TexturaLiberaCond.sfdir
StartChar: plus
Encoding: 43 43 11
Width: 480
Flags: W
HStem: 254 92<105 194 286 375> 526 20G<245 285>
VStem: 194 92<125 254 346 475>
LayerCount: 2
Back
SplineSet
240 500 m 29
 240 100 l 1053
80 300 m 29
 400 300 l 1053
EndSplineSet
Fore
SplineSet
34 275 m 1
 105 346 l 1
 194 346 l 1
 194 475 l 1
 265 546 l 1
 286 525 l 1
 286 346 l 1
 425 346 l 1
 446 325 l 1
 375 254 l 1
 286 254 l 1
 286 125 l 1
 215 54 l 1
 194 75 l 1
 194 254 l 1
 55 254 l 1
 34 275 l 1
EndSplineSet
EndChar
StartChar: comma
Encoding: 44 44 12
Width: 240
Flags: W
HStem: -146 232
VStem: 34 152
LayerCount: 2
Back
SplineSet
100 40 m 25
 140 0 l 1
 140 -40 l 25
 80 -100 l 1049
EndSplineSet
Fore
SplineSet
54 15 m 1
 125 86 l 1
 186 25 l 1
 186 -15 l 1
 55 -146 l 1
 34 -125 l 1
 94 -65 l 1
 94 -25 l 1
 54 15 l 1
EndSplineSet
EndChar
StartChar: period
Encoding: 46 46 14
Width: 240
Flags: W
HStem: -46 132
VStem: 54 132
LayerCount: 2
Back
SplineSet
100 40 m 29
 140 0 l 1049
EndSplineSet
Fore
SplineSet
54 15 m 1
 125 86 l 1
 186 25 l 1
 115 -46 l 1
 54 15 l 1
EndSplineSet
EndChar
StartChar: slash
Encoding: 47 47 15
Width: 400
Flags: W
HStem: -196 21G<-5 35>
LayerCount: 2
Back
SplineSet
40 -150 m 29
 360 700 l 1053
EndSplineSet
Fore
SplineSet
15 -196 m 1
 -6 -175 l 1
 314 675 l 1
 385 746 l 1
 406 725 l 1
 86 -125 l 1
 15 -196 l 1
EndSplineSet
EndChar
StartChar: two
Encoding: 50 50 18
Width: 320
Flags: W
HStem: 4 92<144.024 231> 426 20G<125 217> 426 20G<125 217>
VStem: 34 273
LayerCount: 2
Back
SplineSet
80 350 m 1
 120 400 l 1
 160 400 l 1
 240 350 l 1
 240 275 l 1
 80 75 l 25
 80 0 l 1
 80 0 130 50 200 50 c 3
 228 50 260 0 261 0 c 1025
EndSplineSet
Fore
SplineSet
55 304 m 1xd0
 34 325 l 1
 74 375 l 1
 145 446 l 1
 185 446 l 1
 265 396 l 1
 286 375 l 1
 286 300 l 1
 126 100 l 1
 126 63 l 1
 147 78 182 96 225 96 c 0
 237 96 250 86 261 75 c 2
 283 54 l 2
 295 42 305 27 307 25 c 2
 236 -46 l 2
 215 -25 l 2
 214 -24 209 -16 201 -7 c 0
 193 -1 184 4 175 4 c 0
 105 4 55 -46 55 -46 c 1
 34 -25 l 1
 34 50 l 1
 194 250 l 1
 194 317 l 1
 135 354 l 1
 105 354 l 1
 55 304 l 1xd0
EndSplineSet
Substitution2: "Subscript forms-1" two.inferior
Substitution2: "Superscript forms-1" two.superior
EndChar
StartChar: three
Encoding: 51 51 19
Width: 320
Flags: W
HStem: -196 92<93 153> 426 20G<125 209> 426 20G<125 209>
VStem: 174 92<255 322> 194 92<-125 117.1>
LayerCount: 2
Back
SplineSet
80 350 m 1
 120 400 l 1
 160 400 l 1
 220 350 l 1
 220 230 l 1
 140 150 l 1049
60 -200 m 25
 83 -180 90 -150 120 -150 c 27
 157 -150 200 -200 200 -200 c 9
 240 -160 l 1
 240 115 l 9
 180 175 l 1049
EndSplineSet
Fore
SplineSet
14 -225 m 1xc8
 22 -216 l 2
 31 -206 38 -195 46 -187 c 2
 117 -116 l 2
 124 -109 133 -104 145 -104 c 0
 161 -104 180 -114 194 -125 c 1
 194 90 l 2xc8
 194 110 166 118 155 129 c 2
 148 137 l 1
 115 104 l 1
 94 125 l 1
 174 205 l 1
 174 322 l 1
 135 354 l 1
 105 354 l 1
 55 304 l 1
 34 325 l 1
 74 375 l 1
 145 446 l 1
 185 446 l 1
 245 396 l 1
 266 375 l 1
 266 255 l 1xd0
 218 207 l 1
 286 140 l 1
 286 -135 l 1
 175 -246 l 1
 157 -228 l 2
 141 -214 117 -196 95 -196 c 0
 91 -196 88 -197 84 -198 c 2
 39 -242 l 2
 38 -243 36 -245 35 -246 c 2
 14 -225 l 1xc8
EndSplineSet
Substitution2: "Subscript forms-1" three.inferior
Substitution2: "Superscript forms-1" three.superior
EndChar
StartChar: four
Encoding: 52 52 20
Width: 320
Flags: W
HStem: -196 21G<195 235> -21 92<126.473 174> 426 20G<165 205 225 265> 426 20G<165 205 225 265>
VStem: 34 92<62 175> 174 92<-105 -36 71 331>
LayerCount: 2
Back
SplineSet
200 -110 m 25
 240 -150 l 1049
220 -130 m 1
 220 400 l 1
 220 400 207 375 192 375 c 27
 176 375 160 400 160 400 c 1
 80 200 l 1
 80 0 l 1
 80 0 91 25 160 25 c 3
 269 25 319 0 320 0 c 1025
EndSplineSet
Fore
SplineSet
266 66 m 1xec
 270 65 274 65 278 64 c 0
 323 57 344 46 345 46 c 2
 366 25 l 1
 295 -46 l 2
 295 -46 285 -41 266 -36 c 1
 266 -105 l 1
 286 -125 l 1
 215 -196 l 1
 195 -176 l 1
 174 -155 l 1
 154 -135 l 1
 174 -115 l 1
 174 -22 l 1
 162 -21 149 -21 135 -21 c 0
 96 -21 76 -29 65 -36 c 2
 55 -46 l 1
 34 -25 l 1
 34 175 l 1
 114 375 l 1
 185 446 l 1
 206 425 l 1
 206 424 l 0
 209 422 214 421 217 421 c 0
 218 421 219 421 220 421 c 2
 245 446 l 1
 266 425 l 1
 266 66 l 1xec
174 71 m 1
 174 331 l 2
 172 330 170 329 168 329 c 2
 126 225 l 1
 126 62 l 1
 136 66 152 70 174 71 c 1
EndSplineSet
Substitution2: "Subscript forms-1" four.inferior
Substitution2: "Superscript forms-1" four.superior
EndChar
StartChar: five
Encoding: 53 53 21
Width: 320
Flags: W
HStem: -196 92<73 131.5> 304 92<147.484 207.5> 426 20G<85 145 245 285> 426 20G<85 145 245 285>
VStem: 34 92<184 311> 194 92<-95 70>
LayerCount: 2
Back
SplineSet
240 400 m 17
 240 400 202 350 180 350 c 0
 145 350 80 400 80 400 c 1
 80 125 l 1
 160 175 l 1
 240 95 l 1
 240 -120 l 17
 160 -200 l 1
 160 -200 130 -150 100 -150 c 24
 70 -150 40 -200 40 -200 c 1025
EndSplineSet
Fore
SplineSet
265 446 m 1xec
 286 425 l 1
 286 425 276 411 263 398 c 2
 192 327 l 2
 180 315 166 304 155 304 c 0
 147 304 136 307 126 311 c 1
 126 184 l 1
 185 221 l 1
 286 120 l 1
 286 -95 l 1
 135 -246 l 1
 114 -225 l 1
 114 -225 109 -216 101 -206 c 0
 92 -200 84 -196 75 -196 c 0
 71 -196 66 -197 62 -199 c 2
 15 -246 l 1
 -6 -225 l 1
 -6 -225 4 -209 18 -195 c 2
 88 -124 l 2
 99 -113 112 -104 125 -104 c 0
 138 -104 150 -113 160 -123 c 0
 161 -124 l 2
 182 -145 l 2
 184 -147 186 -148 188 -151 c 2
 194 -145 l 1
 194 70 l 1
 135 129 l 1
 55 79 l 1
 34 100 l 1
 34 375 l 1
 105 446 l 1
 105 446 170 396 205 396 c 0
 210 396 215 398 221 402 c 2
 265 446 l 1xec
EndSplineSet
Substitution2: "Subscript forms-1" five.inferior
Substitution2: "Superscript forms-1" five.superior
EndChar
StartChar: six
Encoding: 54 54 22
Width: 320
Flags: W
HStem: 426 20G<165 205> 426 20G<165 205> 529 92<149.361 231>
VStem: 34 92<105 345 387 515> 194 92<105 295>
LayerCount: 2
Back
SplineSet
80 320 m 25
 160 400 l 25
 240 320 l 25
 240 80 l 25
 160 0 l 25
 80 80 l 1
 80 540 l 1
 140 600 l 25
 163 590 170 575 200 575 c 3
 222 575 225 590 241 600 c 1049
EndSplineSet
Fore
SplineSet
126 345 m 1x38
 126 105 l 1
 185 46 l 1
 194 55 l 1
 194 295 l 1
 135 354 l 1
 126 345 l 1x38
126 387 m 1
 185 446 l 1xb8
 286 345 l 1
 286 105 l 1
 135 -46 l 1
 34 55 l 1
 34 515 l 1
 165 646 l 1
 188 636 195 621 225 621 c 0
 237 621 243 625 248 630 c 2
 255 637 l 2
 258 640 262 643 266 646 c 1
 287 625 l 1
 216 554 l 2
 213 552 211 550 208 547 c 2
 201 541 l 2
 195 535 188 529 175 529 c 0
 150 529 141 539 126 548 c 1
 126 387 l 1
EndSplineSet
Substitution2: "Subscript forms-1" six.inferior
Substitution2: "Superscript forms-1" six.superior
EndChar
StartChar: nine
Encoding: 57 57 25
Width: 320
Flags: W
HStem: -196 92<93 153.5> 426 20G<165 205> 426 20G<165 205>
VStem: 34 92<105 295> 194 92<-125 13 55 295>
LayerCount: 2
Back
SplineSet
240 80 m 1
 160 0 l 1
 80 80 l 25
 80 320 l 25
 160 400 l 25
 240 320 l 1
 240 -160 l 13
 200 -200 l 17
 200 -200 157 -150 120 -150 c 27
 90 -150 60 -200 60 -200 c 1025
EndSplineSet
Fore
SplineSet
194 55 m 1x98
 194 295 l 1
 135 354 l 1
 126 345 l 1
 126 105 l 1
 185 46 l 1
 194 55 l 1x98
194 13 m 1
 135 -46 l 1
 34 55 l 1
 34 295 l 1
 185 446 l 1xd8
 286 345 l 1
 286 -135 l 1
 175 -246 l 1
 157 -228 l 2
 141 -213 117 -196 95 -196 c 0
 91 -196 86 -197 82 -199 c 2
 35 -246 l 1
 14 -225 l 1
 14 -225 24 -209 38 -195 c 2
 108 -124 l 2
 119 -113 132 -104 145 -104 c 0
 162 -104 179 -114 194 -125 c 1
 194 13 l 1
EndSplineSet
Substitution2: "Subscript forms-1" nine.inferior
Substitution2: "Superscript forms-1" nine.superior
EndChar
StartChar: equal
Encoding: 61 61 29
Width: 480
Flags: W
HStem: 154 92<105 375> 354 92<105 375>
LayerCount: 2
Back
SplineSet
80 200 m 25
 400 200 l 1049
80 400 m 25
 400 400 l 1049
EndSplineSet
Fore
SplineSet
34 375 m 1
 105 446 l 1
 425 446 l 1
 446 425 l 1
 375 354 l 1
 55 354 l 1
 34 375 l 1
34 175 m 1
 105 246 l 1
 425 246 l 1
 446 225 l 1
 375 154 l 1
 55 154 l 1
 34 175 l 1
EndSplineSet
EndChar
StartChar: greater
Encoding: 62 62 30
Width: 480
Flags: W
HStem: 526 20G<85 137>
LayerCount: 2
Back
SplineSet
80 500 m 25
 400 300 l 25
 80 100 l 1053
EndSplineSet
Fore
SplineSet
34 475 m 1
 105 546 l 1
 425 346 l 1
 446 325 l 1
 375 254 l 1
 55 54 l 1
 34 75 l 1
 105 146 l 1
 326 285 l 1
 55 454 l 1
 34 475 l 1
EndSplineSet
EndChar
StartChar: A
Encoding: 65 65 33
Width: 560
Flags: W
HStem: 529 21G<135 175> 554 92<191.5 251>
VStem: 234 92<391.017 525>
AnchorPoint: "blwmark" 320 0 basechar 0
AnchorPoint: "abvmark" 360 700 basechar 0
LayerCount: 2
Back
SplineSet
420 560 m 25
 380 600 l 25
 340 560 l 1049
160 300 m 1
 160 300 184 350 240 350 c 3
 342 350 400 250 401 250 c 1025
180 575 m 1
 180 575 188 600 220 600 c 11
 259 600 280 549 280 500 c 3
 280 263 141 75 141 75 c 1025
40 0 m 17
 40 0 65 50 120 50 c 3
 198 50 220 0 220 0 c 1025
400 580 m 1
 440 40 l 1
 480 0 l 9
 520 40 l 1049
EndSplineSet
Fore
SplineSet
15 -46 m 1
 -6 -25 l 1
 -6 -25 0 -13 12 -1 c 2
 82 69 l 2
 91 78 106 88 123 93 c 1
 149 137 187 212 211 304 c 1
 197 303 186 300 176 295 c 2
 135 254 l 1
 114 275 l 1
 114 275 120 287 132 299 c 2
 202 370 l 2
 209 377 217 383 228 388 c 1
 232 416 234 445 234 475 c 0
 234 502 228 530 216 549 c 0
 210 552 202 554 195 554 c 0
 188 554 182 553 177 551 c 2
 155 529 l 1
 134 550 l 1
 134 550 136 557 143 563 c 2
 213 634 l 2
 219 640 230 646 245 646 c 0
 257 646 268 641 277 632 c 2
 298 611 l 2
 309 600 318 582 322 563 c 1
 405 646 l 1
 425 626 l 1
 446 605 l 1
 466 585 l 1
 449 568 l 1
 486 65 l 2
 487 56 499 52 505 46 c 1
 545 86 l 1
 566 65 l 1
 455 -46 l 1
 394 15 l 1
 380 208 l 1
 376 204 l 2
 355 225 l 2
 354 226 346 239 331 256 c 0
 318 268 302 280 283 289 c 1
 242 175 187 100 187 100 c 2
 179 92 l 1
 204 86 221 75 231 65 c 2
 252 44 l 2
 262 34 266 25 266 25 c 1
 195 -46 l 1
 174 -25 l 1
 174 -25 173 -21 170 -17 c 0
 155 -6 130 4 95 4 c 0
 79 4 66 0 55 -6 c 2
 15 -46 l 1
311 389 m 1
 333 382 353 370 369 358 c 1
 354 553 l 1
 326 525 l 1
 326 477 320 432 311 389 c 1
EndSplineSet
EndChar
StartChar: B
Encoding: 66 66 34
Width: 560
Flags: W
HStem: -46 21G<-5 35 263 395> 4 92<87.959 145 175 280.012> 504 21G<-5 35> 554 92<77.3594 138.281>
VStem: 145 30<96 531> 214 92<175 533> 434 92<106 270>
AnchorPoint: "blwmark" 280 0 basechar 0
AnchorPoint: "abvmark" 320 700 basechar 0
LayerCount: 2
Back
SplineSet
40 550 m 5
 40 550 67 600 99 600 c 7
 128 600 142 575 160 575 c 7
 182 575 200 600 201 600 c 1029
160 550 m 1
 160 75 l 1025
260 150 m 5
 260 560 l 5
 300 600 l 5
 480 475 l 5
 360 355 l 1029
400 375 m 5
 480 295 l 5
 480 80.7998046875 l 29
 400 0 l 21
 400 0 279 50 120 50 c 7
 65 50 40 0 40 0 c 1037
EndSplineSet
Fore
SplineSet
235 104 m 1
 214 125 l 1
 214 535 l 1
 325 646 l 1
 505 521 l 1
 526 500 l 1
 436 410 l 1
 526 320 l 1
 526 106 l 1
 446 25 l 1
 375 -46 l 1
 375 -46 254 4 95 4 c 0
 79 4 65 -1 55 -6 c 2
 15 -46 l 1
 -6 -25 l 2
 -6 -25 -1 -14 11 -2 c 2
 12 -1 l 2
 82 69 l 2
 95 82 116 96 145 96 c 2
 145 531 l 2
 142 530 138 529 135 529 c 0
 117 529 103 554 74 554 c 0
 70 554 67 553 63 552 c 2
 15 504 l 1
 -6 525 l 1
 -6 525 4 543 18 557 c 2
 88 628 l 2
 98 638 111 646 124 646 c 0
 153 646 167 621 185 621 c 0
 196 621 206 628 213 634 c 2
 225 646 l 2
 226 646 l 2
 247 625 l 1
 245 623 l 2
 244 622 243 620 241 618 c 2
 240 617 l 2
 175 552 l 1
 175 95 l 1
 313 90 416 49 424 46 c 1
 434 56 l 1
 434 270 l 1
 365 339 l 1
 335 309 l 1
 314 330 l 1
 430 446 l 1
 306 533 l 1
 306 175 l 1
 235 104 l 1
EndSplineSet
EndChar
StartChar: F
Encoding: 70 70 38
Width: 560
Flags: W
HStem: -46 21G<-5 35 175 215> 4 92<87.959 144.57> 254 92<371.5 427.5> 304 92<311 366> 479 92<373.828 417.996> 504 21G<-5 35> 554 92<77.3594 138.281>
VStem: 145 30<96 531> 214 92<78 304 352 517>
AnchorPoint: "blwmark" 280 0 basechar 0
AnchorPoint: "abvmark" 320 700 basechar 0
LayerCount: 2
Back
SplineSet
40 0 m 17
 40 0 65 50 120 50 c 3
 198 50 220 0 220 0 c 9
 260 40 l 1
 260 560 l 1
 300 600 l 1
 300 600 351 525 400 525 c 27
 443 525 480 600 481 600 c 1025
40 550 m 1
 40 550 67 600 99 600 c 3
 128 600 142 575 160 575 c 3
 182 575 200 600 201 600 c 1025
160 550 m 1
 160 75 l 1025
280 300 m 1
 280 300 315 350 337 350 c 3
 365 350 372 300 400 300 c 3
 433 300 460 350 461 350 c 1049
EndSplineSet
Fore
SplineSet
15 504 m 1xd780
 -6 525 l 1
 -6 525 4 543 18 557 c 2
 88 628 l 2
 98 638 111 646 124 646 c 0
 153 646 167 621 185 621 c 0
 196 621 206 628 213 634 c 2
 225 646 l 2
 226 646 l 2
 247 625 l 1
 245 623 l 2
 244 622 243 620 241 618 c 2
 240 617 l 2
 175 552 l 1
 175 93 l 1
 191 90 204 84 214 78 c 1
 214 535 l 1
 325 646 l 1xd780
 346 625 l 1
 346 625 354 613 366 599 c 0
 383 584 405 571 425 571 c 0xc980
 428 571 431 572 433 572 c 0
 434 574 435 575 435 575 c 2
 506 646 l 2xc380
 527 625 l 2
 525 623 511 595 490 573 c 2
 489 572 l 2
 418 501 l 2
 405 488 391 479 375 479 c 0
 350 479 325 498 306 517 c 2
 306 352 l 1
 331 377 l 2
 341 387 353 396 362 396 c 0xd980
 370 396 376 392 381 387 c 2
 402 366 l 2
 407 361 412 354 416 348 c 0
 419 347 422 346 425 346 c 0xe180
 430 346 434 347 438 349 c 2
 486 396 l 2xd180
 507 375 l 2
 505 372 497 358 484 345 c 2
 483 344 l 2
 412 273 l 2
 402 263 389 254 375 254 c 0xe180
 368 254 362 258 357 263 c 2
 356 263 l 0
 335 284 l 2
 330 289 326 295 321 302 c 0
 319 303 315 304 312 304 c 0
 310 304 308 304 306 303 c 2
 306 65 l 1
 195 -46 l 1
 174 -25 l 1
 174 -25 173 -21 170 -17 c 0
 155 -6 130 4 95 4 c 0
 79 4 66 0 55 -6 c 2
 15 -46 l 1
 -6 -25 l 1
 -6 -25 0 -13 12 -1 c 2
 82 69 l 2
 95 82 116 96 145 96 c 0
 145 531 l 2
 142 530 138 529 135 529 c 0
 117 529 103 554 74 554 c 0
 70 554 67 553 63 552 c 2
 15 504 l 1xd780
506 646 m 1
 507 646 506 646 506 646 c 1
EndSplineSet
EndChar
StartChar: G
Encoding: 71 71 39
Width: 600
Flags: W
HStem: 318 92<431.5 491> 446 21G<195 225> 446 21G<195 225> 504 92<409 467.5> 554 92<333.5 396.5>
VStem: 54 92<183.695 394.761> 225 30<86 456 539 555> 294 92<125 285 335 475> 474 92<133.572 313.467>
AnchorPoint: "blwmark" 320 0 basechar 0
AnchorPoint: "abvmark" 360 700 basechar 0
LayerCount: 2
Back
SplineSet
380 300 m 17
 380 300 418 364 460 364 c 3
 505 364 520 306 520 200 c 3
 520 75 415 0 320 0 c 3
 176 0 100 134 100 300 c 3
 100 480 240 600 240 600 c 1025
240 550 m 1
 240 100 l 1025
340 500 m 1
 340 100 l 1025
240 492 m 1
 240 492 316 600 364 600 c 3
 415 600 394 550 440 550 c 3
 478 550 500 600 501 600 c 1025
EndSplineSet
Fore
SplineSet
215 446 m 1xc780
 194 467 l 1xa780
 194 467 207 486 225 507 c 1
 225 555 l 1
 187 502 146 423 146 325 c 0
 146 231 170 147 218 92 c 0
 220 90 223 88 225 86 c 2
 225 456 l 1
 215 446 l 1xc780
362 543 m 2
 360 546 359 548 357 551 c 0
 353 553 346 554 339 554 c 0x8f80
 328 554 316 549 304 540 c 1
 293 527 286 517 286 517 c 1
 255 486 l 1
 255 67 l 1
 281 54 311 46 345 46 c 0
 380 46 416 56 448 75 c 1
 464 103 474 137 474 175 c 0
 474 240 468 287 453 314 c 0
 448 316 442 318 435 318 c 0
 428 318 421 316 414 313 c 2
 386 285 l 1
 386 125 l 1
 315 54 l 1
 294 75 l 1
 294 475 l 1
 362 543 l 2
386 517 m 1
 386 335 l 1
 434 383 l 2
 448 397 466 410 485 410 c 0
 497 410 506 406 514 398 c 2
 536 376 l 2
 558 354 566 303 566 225 c 0
 566 167 543 119 509 85 c 2
 439 14 l 1
 438 14 l 2
 399 -25 346 -46 295 -46 c 0
 238 -46 193 -25 158 10 c 2
 136 31 l 2
 82 85 54 174 54 275 c 0
 54 422 148 530 182 564 c 2
 253 634 l 1
 253 635 l 2
 261 643 265 646 265 646 c 2
 286 625 l 1
 260 599 l 2
 258 597 257 595 255 593 c 2
 255 539 l 1
 320 604 l 2
 343 627 368 646 389 646 c 0x8f80
 404 646 413 641 419 635 c 2
 440 614 l 2
 445 609 448 603 451 598 c 0
 455 597 459 596 465 596 c 0x9780
 470 596 475 597 478 598 c 2
 526 646 l 2x8f80
 547 625 l 2
 546 623 537 606 524 593 c 2
 454 522 l 2
 444 512 431 504 415 504 c 0x9780
 403 504 395 508 390 513 c 2
 386 517 l 1
EndSplineSet
EndChar
StartChar: J
Encoding: 74 74 42
Width: 360
Flags: W
HStem: -196 92<27.8065 109.851> 504 21G<-5 35> 554 92<77.3594 138.281>
VStem: 145 30<-117 531> 214 92<-75 535>
AnchorPoint: "abvmark" 200 700 basechar 0
LayerCount: 2
Back
SplineSet
40 550 m 1
 40 550 67 600 99 600 c 3
 128 600 142 575 160 575 c 3
 182 575 200 600 201 600 c 1025
160 550 m 1
 160 -125 l 1025
300 600 m 1
 260 560 l 1
 260 -100 l 5
 160 -200 l 5
 160 -200 138 -150 60 -150 c 3
 5 -150 -20 -200 -20 -200 c 1025
EndSplineSet
Fore
SplineSet
325 646 m 1
 346 625 l 1
 306 585 l 1
 306 -75 l 1
 135 -246 l 1
 114 -225 l 1
 114 -225 113 -221 110 -217 c 0
 94 -206 70 -196 35 -196 c 0
 19 -196 5 -201 -5 -206 c 2
 -45 -246 l 1
 -66 -225 l 2
 -66 -225 -61 -214 -49 -202 c 2
 -48 -201 l 2
 22 -131 l 2
 35 -118 56 -104 85 -104 c 0
 111 -104 130 -110 145 -117 c 1
 145 531 l 2
 142 530 138 529 135 529 c 0
 117 529 103 554 74 554 c 0
 70 554 67 553 63 552 c 2
 15 504 l 1
 -6 525 l 1
 -6 525 4 543 18 557 c 2
 88 628 l 2
 98 638 111 646 124 646 c 0
 153 646 167 621 185 621 c 0
 196 621 206 628 213 634 c 2
 225 646 l 2
 226 646 l 2
 247 625 l 1
 245 623 l 2
 244 622 243 620 241 618 c 2
 240 617 l 2
 175 552 l 1
 175 -139 l 1
 187 -152 l 1
 214 -125 l 1
 214 535 l 1
 325 646 l 1
EndSplineSet
EndChar
StartChar: K
Encoding: 75 75 43
Width: 560
Flags: W
HStem: -46 21G<-5 35 175 215 435 475> 4 92<87.959 144.155> 504 31G<-5 35 466 495> 554 92<77.3594 138.281>
VStem: 145 30<96 531> 214 92<78 265 307 535> 374 92<425 523> 394 92<46.2344 200>
AnchorPoint: "blwmark" 320 0 basechar 0
AnchorPoint: "abvmark" 360 700 basechar 0
LayerCount: 2
Back
SplineSet
40 550 m 1
 40 550 67 600 99 600 c 3
 128 600 142 575 160 575 c 3
 182 575 200 600 201 600 c 1025
160 550 m 1
 160 75 l 1025
300 280 m 1
 420 400 l 1
 420 560 l 1
 460 600 l 9
 500 560 l 1049
360 325 m 1
 440 225 l 1
 440 40 l 1
 480 0 l 9
 520 40 l 1049
300 600 m 1
 260 560 l 1
 260 40 l 1
 220 0 l 1
 220 0 198 50 120 50 c 3
 65 50 40 0 40 0 c 1033
EndSplineSet
Fore
SplineSet
325 646 m 1xfd
 346 625 l 1
 306 585 l 1
 306 307 l 1
 374 375 l 1
 374 535 l 1
 485 646 l 1
 546 585 l 1
 475 514 l 1
 466 523 l 1
 466 425 l 1xfe
 398 357 l 1
 406 350 l 1
 486 250 l 1
 486 65 l 2
 486 56 500 51 505 46 c 1
 545 86 l 1
 566 65 l 1
 455 -46 l 1
 394 15 l 1
 394 200 l 1
 326 285 l 1
 306 265 l 1
 306 65 l 1
 195 -46 l 1
 174 -25 l 1
 174 -25 173 -21 170 -17 c 0
 154 -6 130 4 95 4 c 0
 79 4 65 -1 55 -6 c 2
 15 -46 l 1
 -6 -25 l 2
 -6 -25 -1 -14 11 -2 c 2
 12 -1 l 2
 82 69 l 2
 95 82 116 96 145 96 c 0
 145 531 l 2
 142 530 138 529 135 529 c 0
 117 529 103 554 74 554 c 0
 70 554 67 553 63 552 c 2
 15 504 l 1
 -6 525 l 1
 -6 525 4 543 18 557 c 2
 88 628 l 2
 98 638 111 646 124 646 c 0
 153 646 167 621 185 621 c 0
 196 621 206 628 213 634 c 2
 225 646 l 2
 226 646 l 2
 247 625 l 1
 245 623 l 2
 244 622 243 620 241 618 c 2
 240 617 l 2
 175 552 l 1
 175 93 l 1
 191 90 204 84 214 78 c 1
 214 535 l 1
 325 646 l 1xfd
EndSplineSet
EndChar
StartChar: M
Encoding: 77 77 45
Width: 720
Flags: W
HStem: -46 21G<-5 35 175 215 395 435 575 615> 4 92<87.959 144.155> 504 21G<-5 35> 554 92<77.3594 138.281>
VStem: 145 30<96 531> 214 92<78 523> 354 92<65 505.095> 534 92<65 514.805>
AnchorPoint: "blwmark" 360 0 basechar 0
AnchorPoint: "abvmark" 400 700 basechar 0
LayerCount: 2
Back
SplineSet
660 40 m 25
 620 0 l 17
 580 40 l 1
 580 500 l 1
 480 600 l 1
 400 520 l 1025
40 550 m 1
 40 550 67 600 99 600 c 3
 128 600 142 575 160 575 c 3
 182 575 200 600 201 600 c 1025
160 550 m 1
 160 75 l 1025
480 40 m 25
 440 0 l 17
 400 40 l 1
 400 500 l 1
 300 600 l 1
 260 560 l 1
 260 40 l 1
 220 0 l 1
 220 0 198 50 120 50 c 3
 65 50 40 0 40 0 c 1033
EndSplineSet
Fore
SplineSet
505 86 m 1
 526 65 l 1
 415 -46 l 1
 354 15 l 1
 354 475 l 2
 354 500 320 509 306 523 c 1
 306 65 l 1
 195 -46 l 1
 174 -25 l 1
 174 -25 173 -21 170 -17 c 0
 154 -6 130 4 95 4 c 0
 79 4 65 -1 55 -6 c 2
 15 -46 l 1
 -6 -25 l 2
 -6 -25 -1 -14 11 -2 c 2
 12 -1 l 2
 82 69 l 2
 95 82 116 96 145 96 c 0
 145 531 l 2
 142 530 138 529 135 529 c 0
 117 529 103 554 74 554 c 0
 70 554 67 553 63 552 c 2
 15 504 l 1
 -6 525 l 1
 -6 525 4 543 18 557 c 2
 88 628 l 2
 98 638 111 646 124 646 c 0
 153 646 167 621 185 621 c 0
 196 621 206 628 213 634 c 2
 225 646 l 2
 226 646 l 2
 247 625 l 1
 245 623 l 2
 244 622 243 620 241 618 c 2
 240 617 l 2
 175 552 l 1
 175 93 l 1
 191 90 204 84 214 78 c 1
 214 535 l 1
 325 646 l 1
 415 556 l 1
 505 646 l 1
 626 525 l 1
 626 65 l 1
 645 46 l 1
 685 86 l 1
 706 65 l 1
 595 -46 l 1
 534 15 l 1
 534 475 l 2
 534 517 478 531 455 554 c 1
 436 535 l 1
 446 525 l 1
 446 65 l 1
 465 46 l 1
 505 86 l 1
EndSplineSet
EndChar
StartChar: S
Encoding: 83 83 51
Width: 560
Flags: W
HStem: 4 92<110.155 261.867> 504 92<276.517 407.957> 626 20G<165 265 457 525>
VStem: 434 92<125 224>
AnchorPoint: "blwmark" 280 0 basechar 0
AnchorPoint: "abvmark" 280 700 basechar 0
LayerCount: 2
Back
SplineSet
440 525 m 25
 98 100 l 1049
360 169 m 1
 80 290 l 9
 120 375 l 1049
480 600 m 1
 480 600 411 550 360 550 c 3
 303 550 160 600 160 600 c 1
 80 500 l 1
 80 440 l 1
 480 260 l 1
 480 100 l 1
 400 0 l 1
 400 0 216 50 160 50 c 3
 102 50 40 0 40 0 c 1025
EndSplineSet
Fore
SplineSet
406 194 m 1
 335 123 l 1
 192 185 l 1
 144 125 l 1
 73 54 l 1
 52 75 l 1
 154 202 l 1
 55 244 l 1
 34 265 l 1
 74 350 l 1
 98 375 l 1
 55 394 l 1
 34 415 l 1
 34 475 l 1
 114 575 l 1
 185 646 l 1
 185 646 328 596 385 596 c 0
 436 596 505 646 505 646 c 1
 526 625 l 1
 468 567 l 1
 486 550 l 1
 347 377 l 1
 505 306 l 1
 526 285 l 1
 526 125 l 1
 446 25 l 1
 375 -46 l 1
 375 -46 191 4 135 4 c 0
 77 4 15 -46 15 -46 c 1
 -6 -25 l 1
 65 46 l 1
 65 46 127 96 185 96 c 0
 232 96 372 60 413 49 c 1
 434 75 l 1
 434 224 l 1
 279 293 l 1
 260 269 l 1
 385 215 l 1
 406 194 l 1
144 354 m 1
 131 325 l 1
 221 286 l 1
 241 310 l 1
 144 354 l 1
434 540 m 1
 410 525 368 504 335 504 c 0
 288 504 180 539 146 550 c 1
 126 525 l 1
 126 476 l 1
 309 394 l 1
 394 500 l 1
 434 540 l 1
EndSplineSet
EndChar
StartChar: Y
Encoding: 89 89 57
Width: 560
Flags: W
HStem: -196 92<96.4053 304.421> -46 21G<255 295> 504 21G<-5 35> 554 92<77.3594 138.281>
VStem: 145 30<196 531> 214 92<275 535> 414 92<-95 93 135 555>
AnchorPoint: "abvmark" 360 700 basechar 0
LayerCount: 2
Back
SplineSet
40 550 m 1
 40 550 67 600 99 600 c 3
 128 600 142 575 160 575 c 3
 182 575 200 600 201 600 c 1025
160 550 m 1
 160 175 l 1025
260 250 m 1
 260 560 l 1
 300 600 l 1025
80 100 m 17
 80 100 110 150 140 150 c 3
 299 150 300 0 300 0 c 5
 460 160 l 1029
40 -200 m 17
 40 -200 53 -150 200 -150 c 3
 330 -150 380 -200 380 -200 c 9
 460 -120 l 1
 460 580 l 1025
440 600 m 25
 480 560 l 1049
EndSplineSet
Fore
SplineSet
394 575 m 1
 465 646 l 1
 485 626 l 1
 506 605 l 1
 526 585 l 1
 506 565 l 1
 506 185 l 1
 506 -95 l 1
 355 -246 l 1
 355 -246 305 -196 175 -196 c 0
 102 -196 62 -208 40 -221 c 1
 15 -246 l 1
 -6 -225 l 1
 -6 -225 -5 -219 3 -212 c 2
 74 -141 l 2
 89 -126 127 -104 225 -104 c 0
 355 -104 405 -154 405 -154 c 1
 414 -145 l 1
 414 93 l 1
 275 -46 l 1
 254 -25 l 2
 254 -25 253 29 219 72 c 1
 196 90 162 104 115 104 c 0
 111 104 107 103 102 101 c 2
 55 54 l 1
 34 75 l 1
 34 75 44 91 58 105 c 2
 128 176 l 2
 129 177 l 0
 134 182 139 187 145 190 c 1
 145 531 l 2
 142 530 138 529 135 529 c 0
 117 529 103 554 74 554 c 0
 70 554 67 553 63 552 c 2
 15 504 l 1
 -6 525 l 1
 -6 525 4 543 18 557 c 2
 88 628 l 2
 98 638 111 646 124 646 c 0
 153 646 167 621 185 621 c 0
 196 621 206 628 213 634 c 2
 225 646 l 2
 226 646 l 2
 247 625 l 1
 245 623 l 2
 244 622 243 620 241 618 c 2
 240 617 l 2
 175 552 l 1
 175 196 l 1
 225 194 258 176 280 154 c 2
 301 133 l 2
 323 111 335 83 340 62 c 1
 414 135 l 1
 414 555 l 1
 394 575 l 1
235 204 m 1
 214 225 l 1
 214 535 l 1
 325 646 l 1
 346 625 l 1
 306 585 l 1
 306 275 l 1
 235 204 l 1
EndSplineSet
EndChar
StartChar: Z
Encoding: 90 90 58
Width: 560
Flags: W
HStem: 4 92<98.2781 327.295> 254 92<327.41 397> 279 92<163.5 235.5> 504 92<195.972 421.867> 626 20G<85 217 457 525>
AnchorPoint: "blwmark" 240 0 basechar 0
AnchorPoint: "abvmark" 280 700 basechar 0
LayerCount: 2
Back
SplineSet
120 275 m 25
 120 275 165 325 200 325 c 27
 263 325 297 300 360 300 c 27
 395 300 440 350 440 350 c 1049
500 80 m 1
 420 0 l 1
 420 0 358 50 160 50 c 3
 102 50 40 0 40 0 c 1
 480 600 l 1
 480 600 411 550 360 550 c 3
 192 550 80 600 80 600 c 1025
EndSplineSet
Fore
SplineSet
525 126 m 1xd8
 546 105 l 1
 395 -46 l 1
 395 -46 333 4 135 4 c 0
 77 4 15 -46 15 -46 c 1
 -6 -25 l 1
 214 276 l 1
 202 278 189 279 175 279 c 0
 152 279 124 257 108 242 c 2
 95 229 l 1
 74 250 l 1
 74 250 76 253 80 257 c 2
 151 327 l 2
 164 340 198 371 225 371 c 0xb8
 246 371 263 369 280 365 c 1
 392 518 l 1
 373 510 353 504 335 504 c 0
 167 504 55 554 55 554 c 1
 34 575 l 1
 105 646 l 1
 105 646 217 596 385 596 c 0
 436 596 505 646 505 646 c 1
 526 625 l 1
 327 353 l 1
 344 349 363 346 385 346 c 0
 409 346 437 369 452 383 c 2
 465 396 l 1
 486 375 l 2
 486 375 484 373 480 369 c 2
 480 368 l 2
 409 298 l 2
 396 285 362 254 335 254 c 0
 306 254 284 259 262 265 c 1
 129 83 l 1
 146 90 166 96 185 96 c 0
 383 96 445 46 445 46 c 1
 525 126 l 1xd8
EndSplineSet
EndChar
StartChar: underscore
Encoding: 95 95 63
Width: 560
Flags: W
HStem: -196 92<105 455>
LayerCount: 2
Back
SplineSet
80 -150 m 25
 480 -150 l 1053
EndSplineSet
Fore
SplineSet
34 -175 m 1
 105 -104 l 1
 505 -104 l 1
 526 -125 l 1
 455 -196 l 1
 55 -196 l 1
 34 -175 l 1
EndSplineSet
EndChar
StartChar: grave
Encoding: 96 96 64
Width: 320
Flags: W
HStem: 504 242
VStem: 54 212
LayerCount: 2
Back
SplineSet
100 700 m 17
 100 600 220 550 220 550 c 1049
EndSplineSet
Fore
SplineSet
125 746 m 1
 146 725 l 1
 146 689 162 659 181 637 c 1
 213 610 245 596 245 596 c 2
 266 575 l 1
 195 504 l 1
 195 504 154 521 120 555 c 2
 99 576 l 2
 75 600 54 633 54 675 c 1
 125 746 l 1
EndSplineSet
EndChar
StartChar: d
Encoding: 100 100 68
Width: 320
Flags: W
HStem: 426 20G<165 193> 426 20G<165 193> 504 92<129.709 169.438>
VStem: 34 92<70.6892 295 569 631.5> 194 92<105 295>
AnchorPoint: "blwmark" 160 0 basechar 0
AnchorPoint: "abvmark" 200 700 basechar 0
LayerCount: 2
Back
SplineSet
240 320 m 1
 160 400 l 25
 80 320 l 1
 80 80 l 29
 160 0 l 25
 240 80 l 5
 240 450 l 10
 240 500 195 550 160 550 c 0
 125 550 80 563 80 600 c 27
 80 623 100 630 113 650 c 1049
EndSplineSet
Fore
SplineSet
194 295 m 1x38
 135 354 l 1
 126 345 l 1
 126 105 l 2
 126 73 168 63 185 46 c 1
 194 55 l 1
 194 295 l 1x38
193 438 m 1
 190 457 181 476 170 490 c 0
 158 499 146 504 135 504 c 0
 111 504 83 510 67 526 c 2
 46 547 l 2
 39 554 34 563 34 575 c 0
 34 589 42 597 50 605 c 2
 56 612 l 2
 60 616 64 620 67 625 c 2
 138 696 l 1
 159 675 l 1
 155 669 151 665 146 660 c 0
 146 659 l 2
 139 653 l 2
 132 646 126 638 126 625 c 0
 126 619 127 613 129 608 c 0
 144 600 167 596 185 596 c 0
 200 596 216 587 230 573 c 2
 231 573 l 0
 231 572 l 1
 252 551 l 2
 271 532 286 504 286 475 c 2
 286 105 l 1
 135 -46 l 1
 34 55 l 1
 34 295 l 1
 185 446 l 1xb8
 193 438 l 1
EndSplineSet
EndChar
StartChar: e
Encoding: 101 101 69
Width: 280
Flags: W
HStem: 426 20G<165 205> 426 20G<165 205>
VStem: 34 92<105 145 187 295>
AnchorPoint: "blwmark" 160 0 basechar 0
AnchorPoint: "abvmark" 160 500 basechar 0
LayerCount: 2
Back
SplineSet
240 80 m 9
 160 0 l 25
 80 80 l 25
 80 320 l 25
 160 400 l 25
 240 320 l 1
 240 280 l 5
 80 120 l 1033
EndSplineSet
Fore
SplineSet
126 187 m 1x20
 194 255 l 1
 194 295 l 1
 135 354 l 1
 126 345 l 1
 126 187 l 1x20
126 145 m 1
 126 105 l 1
 185 46 l 1
 265 126 l 1
 286 105 l 1
 135 -46 l 1
 34 55 l 1
 34 295 l 1
 185 446 l 1xa0
 286 345 l 1
 286 305 l 1
 126 145 l 1
EndSplineSet
EndChar
StartChar: h
Encoding: 104 104 72
Width: 320
Flags: W
HStem: 426 20G<185 225> 426 20G<185 225> 651 20G<65 105>
VStem: 34 92<45 325 367 580> 194 92<45 342.1>
AnchorPoint: "blwmark" 160 0 basechar 0
AnchorPoint: "abvmark" 160 700 basechar 0
LayerCount: 2
Back
SplineSet
220 40 m 25
 260 0 l 1049
60 40 m 25
 100 0 l 1049
60 625 m 25
 100 585 l 1049
80 605 m 9
 80 20 l 1049
240 20 m 25
 240 340 l 25
 180 400 l 1
 80 300 l 1049
EndSplineSet
Fore
SplineSet
14 600 m 1xb8
 85 671 l 1
 105 651 l 1
 126 630 l 1
 146 610 l 1
 126 590 l 1
 126 367 l 1
 205 446 l 1
 286 365 l 1
 286 45 l 1
 306 25 l 1
 235 -46 l 1
 215 -26 l 1
 205 -15 l 1
 174 15 l 1
 194 35 l 1
 194 315 l 2
 194 335 166 343 155 354 c 1
 126 325 l 1
 126 45 l 1
 146 25 l 1
 75 -46 l 1
 55 -26 l 1
 34 -5 l 1
 14 15 l 1
 34 35 l 1
 34 275 l 1
 34 580 l 1
 14 600 l 1xb8
EndSplineSet
Substitution2: "Stylistic alternates-1" h.alt
EndChar
StartChar: i
Encoding: 105 105 73
Width: 160
Flags: W
HStem: 426 20G<65 105> 426 20G<65 105> 514 21G<35 75>
VStem: 34 92<47 353>
AnchorPoint: "blwmark" 80 0 basechar 0
LayerCount: 2
Back
SplineSet
80 640 m 25
 120 600 l 25
 80 560 l 1049
60 40 m 25
 100 0 l 25
 140 40 l 1049
100 360 m 25
 60 400 l 25
 20 360 l 1049
80 380 m 9
 80 20 l 1025
EndSplineSet
Fore
SplineSet
34 615 m 1x30
 105 686 l 1
 166 625 l 1
 55 514 l 1
 34 535 l 1
 74 575 l 1
 34 615 l 1x30
126 405 m 1
 146 385 l 1
 126 365 l 1
 126 47 l 1
 165 86 l 1
 186 65 l 1
 75 -46 l 1
 55 -26 l 1
 14 15 l 1
 34 35 l 1
 34 353 l 1
 -5 314 l 1
 -26 335 l 1
 85 446 l 1
 105 426 l 1xb0
 126 405 l 1
EndSplineSet
Substitution2: "Dotless forms-1" dotlessi
EndChar
StartChar: j
Encoding: 106 106 74
Width: 160
Flags: W
HStem: -196 21G<-5 35> 426 20G<65 105> 426 20G<65 105> 514 21G<35 75>
VStem: 34 92<-85 353>
LayerCount: 2
Back
SplineSet
80 640 m 25
 120 600 l 25
 80 560 l 1049
100 360 m 25
 60 400 l 25
 20 360 l 1049
80 380 m 1
 80 -110 l 9
 40 -150 l 1049
EndSplineSet
Fore
SplineSet
34 615 m 1x98
 105 686 l 1
 166 625 l 1
 55 514 l 1
 34 535 l 1
 74 575 l 1
 34 615 l 1x98
126 405 m 1
 146 385 l 1
 126 365 l 1
 126 -85 l 1
 15 -196 l 1
 -6 -175 l 1
 34 -135 l 1
 34 353 l 1
 -5 314 l 1
 -26 335 l 1
 85 446 l 1
 105 426 l 1xd8
 126 405 l 1
EndSplineSet
Substitution2: "Dotless forms-1" dotlessj
EndChar
StartChar: o
Encoding: 111 111 79
Width: 320
Flags: W
HStem: 426 20G<165 205> 426 20G<165 205>
VStem: 34 92<70.6892 295> 194 92<105 329.311>
AnchorPoint: "blwmark" 160 0 basechar 0
AnchorPoint: "abvmark" 160 500 basechar 0
LayerCount: 2
Back
SplineSet
160 400 m 25
 80 320 l 25
 80 80 l 29
 160 0 l 25
 240 80 l 29
 240 320 l 25
 160 400 l 25
EndSplineSet
Fore
SplineSet
135 354 m 1x30
 126 345 l 1
 126 105 l 2
 126 73 168 63 185 46 c 1
 194 55 l 1
 194 295 l 2
 194 327 152 337 135 354 c 1x30
34 295 m 1
 185 446 l 1xb0
 286 345 l 1
 286 105 l 1
 135 -46 l 1
 34 55 l 1
 34 295 l 1
EndSplineSet
EndChar
StartChar: p
Encoding: 112 112 80
Width: 320
Flags: W
HStem: -196 21G<35 75> 426 20G<65 105 165 205> 426 20G<65 105 165 205>
VStem: 34 92<-125 -37 77.4332 345> 194 92<105 329.311>
AnchorPoint: "abvmark" 160 500 basechar 0
LayerCount: 2
Back
SplineSet
40 0 m 1
 40 0 77 40 100 40 c 0
 123 40 160 0 160 0 c 9
 240 80 l 1
 240 320 l 25
 160 400 l 1
 80 320 l 1049
60 400 m 25
 100 360 l 1049
80 380 m 1
 80 -150 l 1025
EndSplineSet
Fore
SplineSet
14 375 m 1xd8
 85 446 l 1
 105 426 l 1
 126 405 l 1
 135 396 l 1
 185 446 l 1
 286 345 l 1
 286 105 l 1
 135 -46 l 1
 126 -37 l 2
 126 -125 l 1
 55 -196 l 1
 34 -175 l 1
 34 -28 l 2
 30 -31 27 -34 24 -37 c 2
 15 -46 l 1
 -6 -25 l 1
 -6 -25 -4 -23 -1 -20 c 2
 34 15 l 1
 34 295 l 1
 34 355 l 1
 14 375 l 1xd8
126 345 m 1
 126 86 l 1
 144 85 170 60 180 50 c 2
 185 46 l 1
 194 55 l 1
 194 295 l 2
 194 327 152 337 135 354 c 1
 126 345 l 1
EndSplineSet
EndChar
StartChar: r
Encoding: 114 114 82
Width: 240
Flags: W
HStem: 426 20G<65 105 165 205> 426 20G<65 105 165 205>
VStem: 34 92<45 345>
AnchorPoint: "blwmark" 120 0 basechar 0
AnchorPoint: "abvmark" 120 500 basechar 0
LayerCount: 2
Back
SplineSet
200 360 m 25
 160 400 l 25
 80 320 l 1049
60 40 m 25
 100 0 l 1049
60 400 m 25
 100 360 l 1049
80 380 m 9
 80 20 l 1025
EndSplineSet
Fore
SplineSet
14 375 m 1xa0
 85 446 l 1
 105 426 l 1
 126 405 l 1
 135 396 l 1
 185 446 l 1
 246 385 l 1
 175 314 l 1
 135 354 l 1
 126 345 l 1
 126 45 l 1
 146 25 l 1
 75 -46 l 1
 55 -26 l 1
 14 15 l 1
 34 35 l 1
 34 295 l 1
 34 355 l 1
 14 375 l 1xa0
EndSplineSet
EndChar
StartChar: t
Encoding: 116 116 84
Width: 260
Flags: W
HStem: 576 20G<105 145>
VStem: 54 92<46.2344 354 446 525>
AnchorPoint: "blwmark" 140 0 basechar 0
AnchorPoint: "abvmark" 120 650 basechar 0
LayerCount: 2
Back
SplineSet
40 400 m 25
 200 400 l 1049
100 550 m 1
 100 40 l 5
 140 0 l 1
 220 80 l 1029
EndSplineSet
Fore
SplineSet
125 596 m 1
 146 575 l 1
 146 446 l 1
 225 446 l 1
 246 425 l 1
 175 354 l 1
 146 354 l 1
 146 65 l 2
 146 56 160 51 165 46 c 1
 245 126 l 1
 266 105 l 1
 115 -46 l 1
 54 15 l 1
 54 354 l 1
 15 354 l 1
 -6 375 l 1
 54 435 l 1
 54 525 l 1
 125 596 l 1
EndSplineSet
EndChar
StartChar: v
Encoding: 118 118 86
Width: 320
Flags: W
HStem: 426 20G<65 105> 576 20G<65 105 248.282 289>
VStem: 34 92<70.6892 355> 154 92<430.36 498.381> 194 92<105 385.86>
AnchorPoint: "blwmark" 160 0 basechar 0
LayerCount: 2
Back
SplineSet
100 360 m 25
 60 400 l 1049
80 380 m 25
 80 80 l 1
 160 0 l 25
 240 80 l 1
 240 380 l 17
 240 380 200 423 200 472 c 8
 200 507 244 550 244 550 c 1033
EndSplineSet
Fore
SplineSet
126 405 m 1xe8
 146 385 l 1
 126 365 l 1
 126 105 l 2
 126 73 168 63 185 46 c 1
 194 55 l 1
 194 355 l 1xe8
 194 355 154 398 154 447 c 0
 154 480 194 521 198 525 c 2
 268 596 l 2
 269 596 l 1
 290 575 l 1
 283 567 246 529 246 497 c 0xf0
 246 448 286 405 286 405 c 1
 286 105 l 1
 135 -46 l 1
 34 55 l 1
 34 355 l 1
 14 375 l 1
 85 446 l 1
 105 426 l 1
 126 405 l 1xe8
EndSplineSet
Substitution2: "Dotless forms-1" v.alt
EndChar
StartChar: x
Encoding: 120 120 88
Width: 320
Flags: W
HStem: 426 20G<85 125 245 285> 426 20G<85 125 245 285>
VStem: 114 92<105 167.422 232.469 295>
AnchorPoint: "blwmark" 160 0 basechar 0
AnchorPoint: "abvmark" 160 500 basechar 0
LayerCount: 2
Back
SplineSet
60 175 m 25
 60 175 98 225 120 225 c 24
 155 225 165 175 200 175 c 24
 222 175 260 225 261 225 c 1049
160 320 m 9
 240 400 l 25
 280 360 l 1049
160 80 m 13
 240 0 l 1
 280 40 l 1053
40 360 m 25
 80 400 l 25
 160 320 l 25
 160 80 l 29
 80 0 l 29
 40 40 l 1053
EndSplineSet
Fore
SplineSet
15 314 m 1xa0
 -6 335 l 1
 105 446 l 1
 185 366 l 1
 265 446 l 1
 326 385 l 1
 255 314 l 1
 215 354 l 1
 206 345 l 1
 206 226 l 1
 212 223 218 221 225 221 c 0
 231 221 237 224 244 229 c 2
 285 271 l 2
 286 271 l 2
 307 250 l 1
 302 245 295 235 284 224 c 2
 213 153 l 2
 211 151 208 149 206 147 c 2
 206 105 l 1
 265 46 l 1
 305 86 l 1
 326 65 l 1
 215 -46 l 1
 135 34 l 1
 55 -46 l 1
 -6 15 l 1
 65 86 l 1
 105 46 l 1
 114 55 l 1
 114 174 l 1
 109 177 102 179 95 179 c 0
 90 179 85 177 79 173 c 2
 35 129 l 1
 14 150 l 1
 14 150 24 164 37 177 c 2
 108 248 l 2
 110 250 112 251 114 253 c 2
 114 295 l 1
 55 354 l 1
 15 314 l 1xa0
EndSplineSet
EndChar
StartChar: braceleft
Encoding: 123 123 91
Width: 240
Flags: W
HStem: -196 21G<143 195>
VStem: 74 92<-67 167 355 595>
LayerCount: 2
Back
SplineSet
200 700 m 25
 120 620 l 1
 120 330 l 25
 40 250 l 25
 120 200 l 25
 120 -100 l 1
 200 -150 l 1049
EndSplineSet
Fore
SplineSet
225 746 m 1
 246 725 l 1
 166 645 l 1
 166 355 l 1
 91 280 l 1
 145 246 l 1
 166 225 l 1
 166 -67 l 1
 225 -104 l 1
 246 -125 l 1
 175 -196 l 1
 95 -146 l 1
 74 -125 l 1
 74 167 l 1
 15 204 l 1
 -6 225 l 1
 74 305 l 1
 74 595 l 1
 225 746 l 1
EndSplineSet
EndChar
StartChar: asciitilde
Encoding: 126 126 94
Width: 560
Flags: W
HStem: 254 92<241.415 437> 279 92<123.5 318.585>
LayerCount: 2
Back
SplineSet
80 275 m 17
 80 275 125 325 160 325 c 27
 254 325 306 300 400 300 c 27
 435 300 480 350 480 350 c 1033
EndSplineSet
Fore
SplineSet
55 229 m 1x40
 34 250 l 1
 34 250 36 253 40 257 c 2
 111 327 l 2
 124 340 158 371 185 371 c 0x40
 279 371 331 346 425 346 c 0
 449 346 477 369 492 383 c 2
 505 396 l 1
 526 375 l 2
 526 375 524 373 520 369 c 2
 520 368 l 2
 449 298 l 2
 436 285 402 254 375 254 c 0x80
 281 254 229 279 135 279 c 0
 112 279 84 257 68 242 c 2
 55 229 l 1x40
EndSplineSet
EndChar
StartChar: exclamdown
Encoding: 161 161 200
Width: 240
Flags: W
HStem: 426 20G<105 145> 426 20G<105 145>
VStem: 66 108<-134.974 148.048> 74 92<-28.5176 175>
LayerCount: 2
Back
SplineSet
140 360 m 25
 100 400 l 1049
140 -160 m 1
 140 -160 129 -124 128 -100 c 24
 122 17 120 200 120 200 c 1
 120 200 118 17 112 -100 c 24
 110 -139 100 -200 100 -200 c 9
 140 -160 l 1
EndSplineSet
Fore
SplineSet
186 -135 m 1x20
 75 -246 l 1
 54 -225 l 1
 54 -225 64 -164 66 -125 c 0x20
 72 -8 74 175 74 175 c 1
 145 246 l 1
 166 225 l 1x10
 166 225 168 42 174 -75 c 0
 175 -99 186 -135 186 -135 c 1x20
186 385 m 1
 115 314 l 1
 54 375 l 1
 125 446 l 1x80
 186 385 l 1
EndSplineSet
EndChar
StartChar: cent
Encoding: 162 162 202
Width: 360
Flags: W
HStem: -196 21G<155 195> 626 20G<205 245>
VStem: 34 92<128 255> 154 92<-125 -28 105 307 432 575>
LayerCount: 2
Back
SplineSet
200 600 m 25
 200 -150 l 1049
320 320 m 9
 200 400 l 25
 80 280 l 25
 80 100 l 25
 200 0 l 25
 320 100 l 1041
EndSplineSet
Fore
SplineSet
366 345 m 1
 295 274 l 1
 246 307 l 1
 246 64 l 1
 345 146 l 1
 366 125 l 1
 295 54 l 1
 246 13 l 1
 246 -125 l 1
 175 -196 l 1
 154 -175 l 1
 154 -28 l 1
 55 54 l 1
 34 75 l 1
 34 255 l 1
 154 375 l 1
 154 575 l 1
 225 646 l 1
 246 625 l 1
 246 432 l 1
 345 366 l 1
 366 345 l 1
154 333 m 1
 142 321 128 307 126 305 c 2
 126 128 l 1
 154 105 l 1
 154 333 l 1
EndSplineSet
EndChar
StartChar: sterling
Encoding: 163 163 203
Width: 440
Flags: W
HStem: -46 21G<-5 35 292 315> 4 91<176 245.235> 254 92<206.796 287> 529 92<247.5 310.5>
VStem: 114 92<125 257 357.888 552.474>
LayerCount: 2
Back
SplineSet
321 600 m 1
 320 600 302 575 280 575 c 3
 262 575 248 600 219 600 c 3
 187 600 160 550 160 550 c 1
 160 100 l 1025
400 80.7998046875 m 1
 320 0 l 17
 320 0 279 50 120 50 c 3
 65 50 40 0 40 0 c 1033
80 275 m 17
 80 275 112 325 140 325 c 27
 187 325 213 300 260 300 c 27
 288 300 320 350 320 350 c 1033
EndSplineSet
Fore
SplineSet
55 229 m 1
 34 250 l 1
 34 250 44 266 58 280 c 2
 114 336 l 1
 114 525 l 2
 114 525 123 541 137 556 c 2
 138 557 l 2
 208 628 l 2
 218 638 231 646 244 646 c 0
 273 646 287 621 305 621 c 0
 316 621 325 628 333 634 c 2
 345 646 l 2
 346 646 l 2
 367 625 l 1
 365 623 l 2
 363 621 362 619 360 617 c 2
 289 547 l 2
 282 540 269 529 255 529 c 0
 240 529 227 548 206 553 c 1
 206 365 l 1
 231 358 254 346 285 346 c 0
 289 346 294 347 298 349 c 2
 345 396 l 1
 366 375 l 1
 366 375 356 359 342 345 c 2
 272 275 l 2
 261 264 247 254 235 254 c 0
 224 254 215 255 206 257 c 1
 206 125 l 1
 176 95 l 1
 294 90 335 55 343 47 c 2
 344 46 l 1
 354 56 l 1
 425 127 l 1
 446 106 l 1
 366 25 l 1
 295 -46 l 1
 292 -43 l 2
 280 -32 230 4 95 4 c 0
 79 4 65 -1 55 -6 c 2
 15 -46 l 1
 -6 -25 l 2
 -6 -25 -1 -14 11 -2 c 2
 12 -1 l 2
 82 69 l 2
 90 77 101 85 114 90 c 1
 114 279 l 2
 110 279 107 278 102 276 c 2
 55 229 l 1
EndSplineSet
EndChar
StartChar: yen
Encoding: 165 165 204
Width: 520
Flags: W
HStem: -196 92<96.4053 250.586> -21 92<153 331.662> 504 21G<-5 35> 554 92<72 138.5>
VStem: 114 92<300 551.057> 334 92<-95 -39.0879 57 203 245 555>
LayerCount: 2
Back
SplineSet
40 550 m 1
 40 550 67 600 99 600 c 3
 128 600 160 575 160 575 c 1
 160 275 l 1025
80 200 m 17
 80 200 110 250 140 250 c 3
 248 250 260 150 260 150 c 1
 380 270 l 1025
40 -200 m 17
 40 -200 53 -150 200 -150 c 3
 295 -150 300 -200 300 -200 c 9
 380 -120 l 1
 380 580 l 1025
360 600 m 25
 400 560 l 1049
120 -25 m 17
 120 -25 152 25 180 25 c 27
 274 25 326 0 420 0 c 27
 448 0 480 50 480 50 c 1033
EndSplineSet
Fore
SplineSet
95 -71 m 1
 74 -50 l 1
 74 -50 84 -34 98 -20 c 2
 168 50 l 2
 169 51 l 0
 180 62 193 71 205 71 c 0
 256 71 294 64 334 57 c 1
 334 203 l 1
 235 104 l 1
 214 125 l 2
 214 125 210 154 190 181 c 1
 173 194 148 204 115 204 c 0
 111 204 107 203 102 201 c 2
 55 154 l 1
 34 175 l 1
 34 175 44 191 58 205 c 2
 114 262 l 1
 114 542 l 1
 103 548 88 554 74 554 c 0
 70 554 67 553 63 552 c 2
 15 504 l 1
 -6 525 l 1
 -6 525 4 543 18 557 c 2
 88 628 l 2
 98 638 111 646 124 646 c 0
 153 646 185 621 185 621 c 1
 206 600 l 1
 206 300 l 1
 198 292 l 1
 221 287 239 276 251 264 c 2
 272 242 l 2
 283 231 291 218 296 207 c 1
 334 245 l 1
 334 555 l 1
 314 575 l 1
 385 646 l 1
 405 626 l 1
 446 585 l 1
 426 565 l 1
 426 295 l 1
 426 46 l 1
 432 46 439 46 445 46 c 0
 449 46 454 47 458 49 c 2
 505 96 l 1
 526 75 l 1
 526 75 516 59 502 45 c 2
 432 -25 l 2
 430 -27 428 -29 426 -31 c 2
 426 -95 l 1
 275 -246 l 1
 254 -225 l 2
 254 -225 254 -219 250 -212 c 1
 235 -203 211 -196 175 -196 c 0
 102 -196 62 -208 40 -221 c 1
 15 -246 l 1
 -6 -225 l 1
 -6 -225 -5 -219 3 -212 c 2
 74 -141 l 2
 89 -126 127 -104 225 -104 c 0
 274 -104 298 -117 311 -130 c 2
 330 -149 l 1
 334 -145 l 1
 334 -42 l 1
 274 -35 227 -21 155 -21 c 0
 151 -21 147 -22 142 -24 c 2
 95 -71 l 1
EndSplineSet
EndChar
StartChar: brokenbar
Encoding: 166 166 205
Width: 200
Flags: W
HStem: -196 21G<55 95>
VStem: 54 92<-125 175 375 675>
LayerCount: 2
Back
SplineSet
100 -150 m 17
 100 200 l 1025
100 350 m 1
 100 700 l 1033
EndSplineSet
Fore
SplineSet
75 304 m 1
 54 325 l 1
 54 675 l 1
 125 746 l 1
 146 725 l 1
 146 375 l 1
 75 304 l 1
75 -196 m 1
 54 -175 l 1
 54 175 l 1
 125 246 l 1
 146 225 l 1
 146 -125 l 1
 75 -196 l 1
EndSplineSet
EndChar
StartChar: degree
Encoding: 176 176 229
Width: 400
Flags: W
HStem: 379 92<175.848 245.525> 407 64<222.37 253> 679 92<154.475 224.152> 679 64<147 177.63>
VStem: 34 92<528.871 645.743> 274 92<504.257 621.129>
LayerCount: 2
Back
SplineSet
80 600 m 0
 80 660 132 725 180 725 c 0
 260 725 320 650 320 550 c 4
 320 490 268 425 220 425 c 0
 140 425 80 500 80 600 c 0
EndSplineSet
Fore
SplineSet
34 575 m 0x8c
 34 610 52 647 76 672 c 2
 147 743 l 2
 148 743 l 2x9c
 165 760 185 771 205 771 c 0
 239 771 270 757 294 733 c 2
 315 712 l 2
 346 680 366 632 366 575 c 0
 366 540 348 503 324 478 c 2
 253 407 l 2
 252 407 l 2x6c
 235 390 215 379 195 379 c 0
 161 379 130 393 106 417 c 2
 85 438 l 2
 54 470 34 518 34 575 c 0x8c
126 625 m 0
 126 574 141 531 167 499 c 1
 189 482 216 471 245 471 c 0
 251 471 256 472 262 474 c 1
 269 490 274 508 274 525 c 0
 274 576 259 619 233 651 c 1
 211 668 184 679 155 679 c 0xac
 149 679 144 678 138 676 c 1
 131 660 126 642 126 625 c 0
EndSplineSet
EndChar
StartChar: micro
Encoding: 181 181 209
Width: 320
Flags: W
HStem: -196 21G<35 75> -46 21G<-5 31 126 155 215 255> 426 20G<65 105 225 265> 426 20G<65 105 225 265>
VStem: 34 92<-125 -37 71 355> 194 92<55 355>
LayerCount: 2
Back
SplineSet
80 380 m 1
 80 -150 l 1025
100 360 m 9
 60 400 l 1041
300 40 m 9
 260 0 l 1
 240 20 l 17
 240 380 l 1025
260 360 m 9
 220 400 l 1041
40 0 m 1
 40 0 48 25 100 25 c 3
 149 25 160 0 160 0 c 9
 240 80 l 1025
EndSplineSet
Fore
SplineSet
15 -46 m 1xec
 -6 -25 l 1
 -6 -25 -5 -21 0 -16 c 2
 34 18 l 1
 34 355 l 1
 14 375 l 1
 85 446 l 1
 105 426 l 1
 126 405 l 1
 146 385 l 1
 126 365 l 1
 126 71 l 1
 156 71 172 60 179 53 c 2
 186 47 l 1
 194 55 l 1
 194 355 l 1
 174 375 l 1
 245 446 l 1
 265 426 l 1
 286 405 l 1
 306 385 l 1
 286 365 l 1
 286 105 l 1
 286 47 l 1
 325 86 l 1
 346 65 l 1
 235 -46 l 1
 194 -5 l 1
 194 13 l 1
 135 -46 l 1
 126 -37 l 1
 126 -125 l 1
 55 -196 l 1
 34 -175 l 1
 34 -29 l 2
 33 -29 32 -30 31 -30 c 2
 15 -46 l 1xec
EndSplineSet
EndChar
StartChar: paragraph
Encoding: 182 182 226
Width: 480
Flags: W
HStem: 54 92<145 207> 554 92<178.687 258.281>
VStem: 34 92<192.178 474.03> 265 30<-105.296 138 196 531> 334 92<-50 535>
LayerCount: 2
Back
SplineSet
240 150 m 21
 240 150 232 100 180 100 c 7
 112 100 80 178 80 350 c 7
 80 469 113 600 219 600 c 7
 248 600 262 575 280 575 c 7
 302 575 320 600 321 600 c 1029
280 550 m 5
 280 -125 l 1029
420 600 m 5
 380 560 l 5
 380 -75 l 1029
440 -200 m 5
 440 -200 338 -150 260 -150 c 7
 205 -150 180 -200 180 -200 c 1029
EndSplineSet
Fore
SplineSet
486 -175 m 1
 415 -246 l 1
 415 -246 313 -196 235 -196 c 0
 219 -196 205 -201 195 -206 c 2
 155 -246 l 1
 134 -225 l 2
 134 -225 139 -214 151 -202 c 2
 152 -201 l 2
 222 -131 l 2
 232 -121 246 -110 265 -106 c 1
 265 138 l 1
 198 70 l 2
 189 61 175 54 155 54 c 0
 135 54 119 61 105 75 c 2
 83 96 l 2
 50 130 34 204 34 325 c 0
 34 408 50 498 96 544 c 2
 167 614 l 2
 187 634 212 646 244 646 c 0
 273 646 287 621 305 621 c 0
 316 621 326 628 333 634 c 2
 345 646 l 2
 346 646 l 2
 367 625 l 1
 365 623 l 2
 364 622 363 620 361 618 c 2
 360 617 l 2
 295 552 l 1
 295 -104 l 1
 312 -105 329 -108 346 -112 c 1
 334 -100 l 1
 334 535 l 1
 445 646 l 1
 466 625 l 1
 426 585 l 1
 426 -50 l 1
 361 -116 l 1
 417 -131 465 -154 465 -154 c 2
 486 -175 l 1
265 531 m 2
 262 530 258 529 255 529 c 0
 237 529 223 554 194 554 c 0
 181 554 169 552 157 548 c 1
 135 501 126 436 126 375 c 0
 126 266 138 195 165 157 c 1
 176 150 190 146 205 146 c 0
 209 146 212 146 216 147 c 2
 265 196 l 1
 265 531 l 2
EndSplineSet
EndChar
StartChar: periodcentered
Encoding: 183 183 212
Width: 240
Flags: W
HStem: 254 132
VStem: 54 132
LayerCount: 2
Back
SplineSet
100 340 m 25
 140 300 l 1049
EndSplineSet
Fore
SplineSet
54 315 m 1
 125 386 l 1
 186 325 l 1
 115 254 l 1
 54 315 l 1
EndSplineSet
EndChar
StartChar: ordmasculine
Encoding: 186 186 211
Width: 320
Flags: W
HStem: 154 92<65 255>
VStem: 34 92<370.689 595> 194 92<405 629.311>
LayerCount: 2
Back
SplineSet
160 700 m 25
 80 620 l 25
 80 380 l 25
 160 300 l 25
 240 380 l 25
 240 620 l 25
 160 700 l 25
40 200 m 25
 280 200 l 1049
EndSplineSet
Fore
SplineSet
-6 175 m 1
 65 246 l 1
 305 246 l 1
 326 225 l 1
 255 154 l 1
 15 154 l 1
 -6 175 l 1
135 654 m 1
 126 645 l 1
 126 405 l 2
 126 373 168 363 185 346 c 1
 194 355 l 1
 194 595 l 2
 194 627 152 637 135 654 c 1
34 595 m 1
 185 746 l 1
 286 645 l 1
 286 405 l 1
 135 254 l 1
 34 355 l 1
 34 595 l 1
EndSplineSet
EndChar
StartChar: Eth
Encoding: 208 208 180
Width: 560
Flags: W
HStem: -46 21G<-5 35 263 395> 4 92<87.959 145 175 280.012> 272 99<175 213.391> 504 21G<-5 35> 554 92<77.3594 138.281>
VStem: 145 30<96 272 369.581 531> 214 92<175 267.656 366 533> 434 92<106 444>
AnchorPoint: "blwmark" 280 0 basechar 0
AnchorPoint: "abvmark" 320 700 basechar 0
LayerCount: 2
Back
SplineSet
40 550 m 1
 40 550 67 600 99 600 c 3
 128 600 142 575 160 575 c 3
 182 575 200 600 201 600 c 1025
160 550 m 1
 160 75 l 1025
260 150 m 1
 260 550 l 1
 300 600 l 1
 480 475 l 1
 480 101 l 1
 400 0 l 17
 400 0 279 50 120 50 c 3
 65 50 40 0 40 0 c 1033
80 275 m 21
 80 275 112 325 140 325 c 31
 203 325 237 300 300 300 c 31
 328 300 360 350 360 350 c 1037
EndSplineSet
Fore
SplineSet
55 229 m 1
 34 250 l 1
 34 250 44 266 58 280 c 2
 128 350 l 2
 129 351 l 0
 134 356 140 361 145 364 c 1
 145 531 l 2
 142 530 138 529 135 529 c 0
 117 529 103 554 74 554 c 0
 70 554 67 553 63 552 c 2
 15 504 l 1
 -6 525 l 1
 -6 525 4 543 18 557 c 2
 88 628 l 2
 98 638 111 646 124 646 c 0
 153 646 167 621 185 621 c 0
 196 621 206 628 213 634 c 2
 225 646 l 2
 226 646 l 2
 247 625 l 1
 245 623 l 2
 244 622 243 620 241 618 c 2
 240 617 l 2
 175 552 l 1
 175 371 l 1
 189 370 202 368 214 366 c 1
 214 535 l 1
 325 646 l 1
 505 521 l 1
 526 500 l 1
 526 106 l 1
 446 25 l 1
 375 -46 l 1
 375 -46 254 4 95 4 c 0
 79 4 65 -1 55 -6 c 2
 15 -46 l 1
 -6 -25 l 2
 -6 -25 -1 -14 11 -2 c 2
 12 -1 l 2
 82 69 l 2
 95 82 116 96 145 96 c 2
 145 277 l 1
 136 278 126 279 115 279 c 0
 111 279 107 278 102 276 c 2
 55 229 l 1
235 104 m 1
 214 125 l 1
 214 262 l 1
 201 265 188 269 175 272 c 1
 175 95 l 1
 313 90 416 49 424 46 c 1
 434 56 l 1
 434 444 l 1
 306 533 l 1
 306 347 l 1
 312 347 318 346 325 346 c 0
 329 346 334 347 338 349 c 2
 385 396 l 1
 406 375 l 1
 406 375 396 359 382 345 c 2
 312 275 l 2
 310 273 308 271 306 269 c 2
 306 175 l 1
 235 104 l 1
EndSplineSet
EndChar
StartChar: Oslash
Encoding: 216 216 182
Width: 640
Flags: W
HStem: -46 92<256.754 361.528> 446 21G<195 225> 446 21G<195 225> 626 20G<253 285 372 401.5 565 605>
VStem: 54 92<184.209 394.761> 225 30<86 149 251 456 551 555> 295 92<125 236 302 351 417 525> 476 92<204.37 435.396>
AnchorPoint: "abvmark" 360 700 basechar 0
LayerCount: 2
Back
SplineSet
560 600 m 25
 80 0 l 1049
240 550 m 1
 240 100 l 1025
342 550 m 1
 340 100 l 1025
240 600 m 1
 240 600 100 480 100 300 c 3
 100 134 176 0 320 0 c 3
 415 0 522 142 522 300 c 3
 522 512 449 600 360 600 c 3
 290 600 240 492 240 492 c 1029
EndSplineSet
Fore
SplineSet
286 625 m 1x9f
 260 599 l 2
 258 597 257 595 255 593 c 2
 255 551 l 1
 316 612 l 2
 335 631 359 646 385 646 c 0
 418 646 447 635 473 609 c 2
 495 587 l 2
 500 582 505 576 510 570 c 1
 514 575 l 1
 585 646 l 1
 606 625 l 1
 532 532 l 1
 554 484 568 416 568 325 c 0
 568 226 525 133 470 77 c 2
 470 76 l 2
 399 6 l 2
 367 -26 330 -46 295 -46 c 0
 239 -46 193 -26 158 9 c 2
 158 10 l 1
 136 31 l 2
 135 32 134 33 133 34 c 2
 126 25 l 1
 55 -46 l 1
 34 -25 l 1
 107 67 l 1
 72 121 54 194 54 275 c 0
 54 422 148 530 182 564 c 2
 253 634 l 2
 265 646 l 1
 286 625 l 1x9f
324 553 m 1
 316 552 308 549 302 546 c 0
 291 529 286 517 286 517 c 2
 255 486 l 1
 255 251 l 1
 295 302 l 1
 296 525 l 1
 324 553 l 1
388 542 m 1
 387 417 l 1
 440 483 l 1
 432 500 423 514 413 526 c 0
 405 533 397 538 388 542 c 1
225 555 m 1
 187 502 146 423 146 325 c 0
 146 262 157 204 178 156 c 1
 225 214 l 1
 225 456 l 1
 215 446 l 1xdf
 194 467 l 2xbf
 194 467 205 492 225 518 c 1
 225 555 l 1
225 86 m 2
 225 149 l 1
 199 116 l 1
 205 107 211 100 218 92 c 0
 220 90 223 88 225 86 c 2
255 67 m 1
 281 54 311 46 345 46 c 0
 367 46 391 55 412 68 c 1
 450 123 476 197 476 275 c 0
 476 341 469 395 457 438 c 1
 387 351 l 1
 386 125 l 1
 315 54 l 1
 294 75 l 1
 295 236 l 1
 255 186 l 1
 255 67 l 1
EndSplineSet
EndChar
StartChar: Thorn
Encoding: 222 222 178
Width: 560
Flags: W
HStem: -196 92<27.4437 109.851> 426 20G<306 353.8> 426 20G<306 353.8> 504 21G<-5 35> 554 92<77.3594 138.281>
VStem: 145 30<-117 4 47 531> 214 92<-75 38 146 333 427 535> 434 92<155 244>
AnchorPoint: "abvmark" 320 700 basechar 0
LayerCount: 2
Back
SplineSet
200 50 m 17
 200 50 243 100 280 100 c 27
 331 100 400 50 400 50 c 1
 480 130 l 1
 480 275 l 1
 300 400 l 1
 260 360 l 1025
40 550 m 1
 40 550 67 600 99 600 c 3
 128 600 142 575 160 575 c 3
 182 575 200 600 201 600 c 1025
160 550 m 1
 160 -125 l 1025
300 600 m 1
 260 560 l 1
 260 -100 l 1
 160 -200 l 1
 160 -200 138 -150 60 -150 c 3
 5 -150 -20 -200 -18 -200 c 1033
EndSplineSet
Fore
SplineSet
-1 -204 m 2xdf
 -43 -246 l 1
 -64 -225 l 2
 -65 -224 -60 -213 -48 -201 c 2
 -47 -201 l 2
 23 -130 l 2
 36 -117 57 -104 85 -104 c 0
 111 -104 130 -110 145 -117 c 1
 145 531 l 2
 142 530 138 529 135 529 c 0
 117 529 103 554 74 554 c 0
 70 554 67 553 63 552 c 2
 15 504 l 1
 -6 525 l 1
 -6 525 4 543 18 557 c 2
 88 628 l 2
 98 638 111 646 124 646 c 0
 153 646 167 621 185 621 c 0
 196 621 206 628 213 634 c 2
 225 646 l 2
 226 646 l 2
 247 625 l 1
 245 623 l 2
 244 622 243 620 241 618 c 2
 240 617 l 2
 175 552 l 1
 175 47 l 1
 214 86 l 1
 214 335 l 1
 214 535 l 1
 325 646 l 1
 346 625 l 1
 306 585 l 1
 306 427 l 1
 325 446 l 1
 505 321 l 1
 526 300 l 1
 526 155 l 1
 375 4 l 1
 375 4 343 27 306 42 c 1
 306 -75 l 1
 135 -246 l 1
 114 -225 l 1
 114 -225 113 -221 110 -217 c 0
 94 -206 70 -196 35 -196 c 0
 21 -196 9 -199 -1 -204 c 2xdf
175 -139 m 1
 187 -152 l 1
 214 -125 l 1
 214 38 l 1
 207 33 200 27 194 22 c 2
 175 4 l 1
 175 -139 l 1
306 333 m 1
 306 146 l 1
 357 145 425 96 425 96 c 0
 425 96 432 103 434 105 c 2
 434 244 l 1
 306 333 l 1
EndSplineSet
EndChar
StartChar: ae
Encoding: 230 230 189
Width: 440
Flags: W
HStem: 426 20G<145 245 325 365> 426 20G<145 245 325 365>
VStem: 34 92<85 165> 194 92<75 145 280 334>
AnchorPoint: "blwmark" 240 0 basechar 0
AnchorPoint: "abvmark" 240 500 basechar 0
LayerCount: 2
Back
SplineSet
100 280 m 17
 80 340 l 1
 140 400 l 1
 240 375 l 1
 240 100 l 9
 140 0 l 1
 80 60 l 1
 80 190 l 1
 140 250 l 1
 140 250 155 230 200 230 c 3
 215 230 240 230 240 230 c 1033
240 120 m 1
 400 280 l 1
 400 320 l 1
 320 400 l 25
 240 320 l 25
 240 80 l 25
 320 0 l 25
 400 80 l 1041
EndSplineSet
Fore
SplineSet
194 75 m 1x30
 194 184 l 1
 175 184 l 2
 150 184 135 190 126 195 c 1
 126 85 l 1
 165 46 l 1
 194 75 l 1x30
205 44 m 1
 115 -46 l 1
 34 35 l 1
 34 165 l 1
 165 296 l 1
 168 292 l 2
 172 288 181 284 194 280 c 1
 194 295 l 1
 194 334 l 1
 131 350 l 1
 146 305 l 1
 75 234 l 1
 54 255 l 1
 34 315 l 1
 165 446 l 1
 265 421 l 1
 286 400 l 1
 286 387 l 1
 345 446 l 1xb0
 446 345 l 1
 446 305 l 1
 286 145 l 1
 286 125 l 1
 286 105 l 2
 286 73 328 63 345 46 c 1
 425 126 l 1
 446 105 l 1
 295 -46 l 1
 205 44 l 1
286 345 m 1
 286 187 l 1
 354 255 l 1
 354 295 l 2
 354 327 312 337 295 354 c 1
 286 345 l 1
EndSplineSet
EndChar
StartChar: divide
Encoding: 247 247 224
Width: 480
Flags: W
HStem: 254 92<105 375> 551 20G<225 265>
LayerCount: 2
Back
SplineSet
220 115 m 25
 260 75 l 1049
80 300 m 25
 400 300 l 1049
220 525 m 25
 260 485 l 1049
EndSplineSet
Fore
SplineSet
174 500 m 1
 245 571 l 1
 306 510 l 1
 235 439 l 1
 174 500 l 1
34 275 m 1
 105 346 l 1
 425 346 l 1
 446 325 l 1
 375 254 l 1
 55 254 l 1
 34 275 l 1
174 90 m 1
 245 161 l 1
 306 100 l 1
 235 29 l 1
 174 90 l 1
EndSplineSet
EndChar
StartChar: Eng
Encoding: 330 330 599
Width: 560
Flags: W
HStem: -196 92<96.2438 304.421> -46 21G<-5 35 175 215> 4 92<87.959 144.57> 504 21G<-5 35> 554 92<77.3594 138.281>
VStem: 145 30<96 531> 214 92<78 530> 414 92<-95 446>
AnchorPoint: "abvmark" 320 700 basechar 0
LayerCount: 2
Back
SplineSet
40 550 m 1
 40 550 67 600 99 600 c 3
 128 600 142 575 160 575 c 3
 182 575 200 600 201 600 c 1025
160 550 m 1
 160 75 l 1025
40 0 m 17
 40 0 65 50 120 50 c 3
 198 50 220 0 220 0 c 1
 260 40 l 1
 260 560 l 1
 300 600 l 1
 460 475 l 1
 460 -120 l 1
 380 -200 l 1
 380 -200 330 -150 200 -150 c 3
 53 -150 40 -200 40 -200 c 1033
EndSplineSet
Fore
SplineSet
15 -46 m 1
 -6 -25 l 1
 -6 -25 0 -13 12 -1 c 2
 82 69 l 2
 95 82 116 96 145 96 c 0
 145 531 l 2
 142 530 138 529 135 529 c 0
 117 529 103 554 74 554 c 0
 70 554 67 553 63 552 c 2
 15 504 l 1
 -6 525 l 1
 -6 525 4 543 18 557 c 2
 88 628 l 2
 98 638 111 646 124 646 c 0
 153 646 167 621 185 621 c 0
 196 621 206 628 213 634 c 2
 225 646 l 2
 226 646 l 2
 247 625 l 1
 245 623 l 2
 244 622 243 620 241 618 c 2
 240 617 l 2
 175 552 l 1
 175 93 l 1
 191 90 204 84 214 78 c 1
 214 535 l 1
 325 646 l 1
 485 521 l 1
 506 500 l 1
 506 -95 l 1
 355 -246 l 1
 355 -246 305 -196 175 -196 c 0
 102 -196 61 -209 40 -221 c 1
 15 -246 l 1
 -6 -225 l 2
 -6 -225 -4 -219 3 -212 c 2
 74 -141 l 2
 89 -126 127 -104 225 -104 c 0
 355 -104 405 -154 405 -154 c 1
 414 -145 l 1
 414 446 l 1
 306 530 l 1
 306 65 l 1
 195 -46 l 1
 174 -25 l 1
 174 -25 173 -21 170 -17 c 0
 155 -6 130 4 95 4 c 0
 79 4 66 0 55 -6 c 2
 15 -46 l 1
EndSplineSet
EndChar
StartChar: eng
Encoding: 331 331 600
Width: 320
Flags: W
HStem: -196 92<73 133.5> -46 21G<55 95> 432 20G<65 105 185 225>
VStem: 34 92<45 331> 194 92<-150.779 321>
AnchorPoint: "abvmark" 160 500 basechar 0
LayerCount: 2
Back
SplineSet
80 306 m 25
 180 406 l 1
 240 346 l 1
 240 -150 l 1
 240 -150 202 -200 180 -200 c 0
 154 -200 137 -150 100 -150 c 16
 70 -150 40 -200 40 -200 c 1033
60 40 m 25
 100 0 l 1049
100 366 m 25
 60 406 l 1049
80 386 m 9
 80 20 l 1025
EndSplineSet
Fore
SplineSet
126 411 m 1
 145 392 l 1
 205 452 l 1
 286 371 l 1
 286 -125 l 1
 286 -125 276 -139 263 -152 c 2
 192 -223 l 2
 180 -235 166 -246 155 -246 c 0
 145 -246 138 -240 129 -231 c 2
 109 -211 l 2
 99 -202 89 -196 75 -196 c 0
 71 -196 66 -197 62 -199 c 2
 15 -246 l 1
 -6 -225 l 1
 -6 -225 4 -209 18 -195 c 2
 88 -124 l 2
 99 -113 112 -104 125 -104 c 0
 142 -104 154 -114 165 -125 c 0
 166 -126 l 2
 184 -144 l 2
 187 -147 191 -149 194 -151 c 2
 194 321 l 1
 155 360 l 1
 126 331 l 1
 126 45 l 1
 146 25 l 1
 75 -46 l 1
 55 -26 l 1
 14 15 l 1
 34 35 l 1
 34 281 l 1
 34 361 l 1
 14 381 l 1
 85 452 l 1
 105 432 l 1
 126 411 l 1
EndSplineSet
EndChar
StartChar: longs
Encoding: 383 383 95
Width: 240
Flags: W
HStem: -196 92<-67 -8.5> 564 92<206 272.5>
VStem: 54 92<-151.691 545>
AnchorPoint: "abvmark" 140 700 basechar 0
LayerCount: 2
Back
SplineSet
-100 -200 m 17
 -100 -200 -70 -150 -40 -150 c 8
 -3 -150 3 -200 40 -200 c 24
 70 -200 100 -150 100 -150 c 1
 100 570 l 1
 180 650 l 17
 180 650 212 610 240 610 c 24
 268 610 300 650 301 650 c 1033
EndSplineSet
Fore
SplineSet
-125 -246 m 1
 -146 -225 l 1
 -146 -225 -136 -209 -122 -195 c 2
 -52 -124 l 2
 -51 -123 l 0
 -40 -112 -28 -104 -15 -104 c 0
 -2 -104 7 -110 15 -118 c 2
 36 -139 l 2
 37 -140 l 0
 39 -142 42 -145 44 -147 c 0
 47 -149 51 -151 54 -152 c 2
 54 545 l 1
 205 696 l 1
 226 675 l 1
 227 674 l 0
 238 664 252 656 265 656 c 0
 280 656 297 668 308 678 c 2
 325 696 l 2
 326 696 l 2
 347 675 l 1
 345 672 l 2
 343 670 341 668 338 665 c 2
 337 664 l 2
 266 594 l 2
 254 582 234 564 215 564 c 0
 197 564 179 580 167 592 c 0
 155 604 l 1
 146 595 l 1
 146 -125 l 1
 146 -125 136 -141 122 -155 c 2
 52 -226 l 2
 41 -237 28 -246 15 -246 c 0
 2 -246 -7 -240 -15 -232 c 2
 -36 -211 l 2
 -39 -208 -42 -206 -44 -203 c 0
 -50 -199 -57 -196 -65 -196 c 0
 -69 -196 -73 -197 -78 -199 c 2
 -125 -246 l 1
EndSplineSet
EndChar
StartChar: Rsmallcap
Encoding: 640 640 854
Width: 360
Flags: W
HStem: -46 21G<55 95 235 275> 426 20G<65 105 165 209> 426 20G<65 105 165 209>
VStem: 34 92<45 143 167 345>
AnchorPoint: "blwmark" 180 0 basechar 0
AnchorPoint: "abvmark" 160 500 basechar 0
LayerCount: 2
Back
SplineSet
60 40 m 25
 100 0 l 1049
60 400 m 25
 100 360 l 1049
80 380 m 9
 80 20 l 1025
320 40 m 25
 280 0 l 1
 280 0 263 79 240 125 c 24
 223 159 180 200 180 200 c 1025
160 180 m 1
 280 300 l 1
 160 400 l 1
 80 320 l 1049
EndSplineSet
Fore
SplineSet
345 86 m 1xd0
 366 65 l 1
 255 -46 l 1
 234 -25 l 1
 234 -25 217 54 194 100 c 0
 185 118 168 139 155 154 c 1
 135 134 l 1
 126 143 l 1
 126 45 l 1
 146 25 l 1
 75 -46 l 1
 55 -26 l 1
 14 15 l 1
 34 35 l 1
 34 295 l 1
 34 355 l 1
 14 375 l 1
 85 446 l 1
 105 426 l 1
 126 405 l 1
 135 396 l 1
 185 446 l 1
 305 346 l 1
 326 325 l 1
 226 225 l 1
 230 221 l 2
 241 210 272 177 286 150 c 0
 299 123 311 86 318 59 c 1
 345 86 l 1xd0
205 246 m 1
 232 273 l 1
 135 354 l 2
 135 354 128 347 126 345 c 2
 126 167 l 1
 164 205 l 1
 205 246 l 1
EndSplineSet
EndChar
StartChar: caron
Encoding: 711 711 245
Width: 320
Flags: W
HStem: 479 267
VStem: 114 92<550 590.608>
LayerCount: 2
Back
SplineSet
80 700 m 25
 80 700 160 625 160 525 c 1
 160 675 240 700 240 700 c 1025
EndSplineSet
Fore
SplineSet
173 664 m 1
 234 725 l 2
 250 741 265 746 265 746 c 1
 286 725 l 1
 230 669 l 2
 228 665 226 661 224 657 c 0
 213 632 206 597 206 550 c 1
 135 479 l 1
 114 500 l 1
 114 523 110 545 103 565 c 0
 85 619 50 658 38 671 c 2
 34 675 l 1
 105 746 l 1
 105 746 106 745 107 744 c 2
 128 723 l 2
 134 717 155 695 173 664 c 1
EndSplineSet
EndChar
StartChar: verticallinemod
Encoding: 712 712 887
Width: 320
Flags: W
HStem: 479 267
VStem: 114 92<550 675>
LayerCount: 2
Back
SplineSet
160 700 m 9
 160 525 l 1025
EndSplineSet
Fore
SplineSet
185 746 m 1
 206 725 l 1
 206 550 l 1
 135 479 l 1
 114 500 l 1
 114 675 l 1
 185 746 l 1
EndSplineSet
EndChar
StartChar: breve
Encoding: 728 728 265
Width: 320
Flags: W
HStem: 479 92<141.638 206> 626 20G<85 125 265 305>
VStem: 34 272
LayerCount: 2
Back
SplineSet
80 600 m 17
 80 600 92 525 180 525 c 3
 216 525 260 600 260 600 c 1033
EndSplineSet
Fore
SplineSet
105 646 m 1
 126 625 l 1
 126 625 129 607 142 589 c 1
 157 578 177 571 205 571 c 0
 207 571 210 571 212 572 c 0
 213 574 214 575 214 575 c 1
 285 646 l 1
 306 625 l 1
 306 625 288 595 266 573 c 2
 196 502 l 2
 183 489 168 479 155 479 c 0
 119 479 96 491 81 506 c 0
 81 507 l 2
 59 528 l 2
 38 549 34 575 34 575 c 1
 105 646 l 1
EndSplineSet
EndChar
StartChar: ogonek
Encoding: 731 731 283
Width: 320
Flags: W
HStem: -246 292
VStem: 54 212
LayerCount: 2
Back
SplineSet
160 0 m 25
 100 -60 l 1
 100 -150 l 9
 180 -200 l 25
 220 -160 l 1049
EndSplineSet
Fore
SplineSet
185 46 m 1
 206 25 l 1
 146 -35 l 1
 146 -117 l 1
 205 -154 l 2
 205 -154 240 -119 245 -114 c 1
 266 -135 l 1
 155 -246 l 1
 75 -196 l 1
 54 -175 l 1
 54 -85 l 1
 185 46 l 1
EndSplineSet
EndChar
StartChar: tilde
Encoding: 732 732 168
Width: 320
Flags: W
HStem: 479 21G<-5 35> 504 92<153.651 247> 529 92<73 166.349> 626 20G<285 325>
VStem: -6 332
LayerCount: 2
Back
SplineSet
40 525 m 17
 40 525 72 575 100 575 c 27
 147 575 173 550 220 550 c 27
 248 550 280 600 280 600 c 1033
EndSplineSet
Fore
SplineSet
15 479 m 1xb8
 -6 500 l 1
 -6 500 4 516 18 530 c 2
 88 600 l 2
 89 601 l 0
 100 612 113 621 125 621 c 0xb8
 172 621 198 596 245 596 c 0
 249 596 254 597 258 599 c 2
 305 646 l 1
 326 625 l 1
 326 625 316 609 302 595 c 2
 232 525 l 2
 221 514 207 504 195 504 c 0xd8
 148 504 122 529 75 529 c 0
 71 529 67 528 62 526 c 2
 15 479 l 1xb8
EndSplineSet
EndChar
StartChar: hungarumlaut
Encoding: 733 733 267
Width: 320
Flags: W
HStem: 479 267
VStem: 14 312
LayerCount: 2
Back
SplineSet
280 700 m 17
 280 600 180 525 180 525 c 1049
160 700 m 17
 160 600 60 525 60 525 c 1049
EndSplineSet
Fore
SplineSet
185 746 m 1
 206 725 l 1
 206 658 162 603 132 573 c 2
 61 502 l 2
 46 487 35 479 35 479 c 2
 14 500 l 1
 64 550 l 1
 89 581 114 625 114 675 c 1
 185 746 l 1
305 746 m 1
 326 725 l 1
 326 658 282 603 252 573 c 2
 181 502 l 2
 166 487 155 479 155 479 c 2
 134 500 l 1
 184 550 l 1
 209 581 234 625 234 675 c 1
 305 746 l 1
EndSplineSet
EndChar
StartChar: hookcmb
Encoding: 777 777 381
Width: 0
Flags: W
HStem: 454 292 554 21G<-265 -225>
VStem: -286 252
AnchorPoint: "abvmark" -160 500 mark 0
LayerCount: 2
Back
SplineSet
-160 500 m 1
 -80 580 l 1
 -80 675 l 1
 -180 700 l 25
 -240 640 l 1
 -220 600 l 1049
EndSplineSet
Fore
SplineSet
-185 454 m 1xa0
 -206 475 l 1
 -126 555 l 1
 -126 634 l 1
 -186 649 l 1
 -174 625 l 1
 -245 554 l 1
 -266 575 l 1x60
 -286 615 l 1
 -155 746 l 1
 -55 721 l 1
 -34 700 l 1
 -34 605 l 1
 -185 454 l 1xa0
EndSplineSet
EndChar
StartChar: breveinvertedbelowcmb
Encoding: 815 815 537
Width: 0
VWidth: 400
Flags: W
HStem: -171 92<-186 -121.638>
VStem: -286 272
AnchorPoint: "blwmark" -160 0 mark 0
LayerCount: 2
Back
SplineSet
-60 -200 m 21
 -60 -200 -72 -125 -160 -125 c 7
 -196 -125 -240 -200 -240 -200 c 1037
EndSplineSet
Fore
SplineSet
-85 -246 m 1
 -106 -225 l 1
 -106 -225 -109 -207 -122 -189 c 1
 -137 -178 -157 -171 -185 -171 c 0
 -187 -171 -190 -171 -192 -172 c 0
 -193 -174 -194 -175 -194 -175 c 1
 -265 -246 l 1
 -286 -225 l 1
 -286 -225 -268 -195 -246 -173 c 2
 -176 -102 l 2
 -163 -89 -148 -79 -135 -79 c 0
 -99 -79 -76 -91 -61 -106 c 0
 -61 -107 l 2
 -39 -128 l 2
 -18 -149 -14 -175 -14 -175 c 1
 -85 -246 l 1
EndSplineSet
EndChar
StartChar: Germandbls
Encoding: 7838 7838 136
Width: 560
Flags: W
HStem: -186 92<210.73 353.086> -46 21G<-5 35 175 215> 4 92<87.959 144.57> 504 21G<-5 35> 554 92<77.3594 138.281>
VStem: 145 30<96 531> 214 92<78 533> 434 92<-115 192 380 444>
AnchorPoint: "abvmark" 320 700 basechar 0
LayerCount: 2
Back
SplineSet
40 0 m 17
 40 0 65 50 120 50 c 3
 198 50 220 0 220 0 c 1
 260 40 l 1
 260 560 l 1
 300 600 l 1
 480 475 l 1
 480 355 l 1
 400 275 l 9
 480 225 l 25
 480 -140 l 25
 420 -200 l 1
 399 -160 333 -140 280 -140 c 3
 178 -140 140 -200 140 -200 c 1025
40 550 m 1
 40 550 67 600 99 600 c 3
 128 600 142 575 160 575 c 3
 182 575 200 600 201 600 c 1025
160 550 m 1
 160 75 l 1025
EndSplineSet
Fore
SplineSet
15 504 m 1
 -6 525 l 1
 -6 525 4 543 18 557 c 2
 88 628 l 2
 98 638 111 646 124 646 c 0
 153 646 167 621 185 621 c 0
 196 621 206 628 213 634 c 2
 225 646 l 2
 226 646 l 2
 247 625 l 1
 245 623 l 2
 244 622 243 620 241 618 c 2
 240 617 l 2
 175 552 l 1
 175 93 l 1
 191 90 204 84 214 78 c 1
 214 535 l 1
 325 646 l 1
 505 521 l 1
 526 500 l 1
 526 380 l 1
 451 305 l 1
 505 271 l 1
 526 250 l 1
 526 -115 l 1
 395 -246 l 1
 374 -225 l 2
 373 -223 371 -220 370 -218 c 0
 340 -196 294 -186 255 -186 c 0
 199 -186 163 -204 141 -220 c 2
 115 -246 l 1
 94 -225 l 1
 94 -225 97 -220 105 -212 c 2
 176 -141 l 2
 194 -123 234 -94 305 -94 c 0
 350 -94 403 -108 432 -136 c 2
 432 -137 l 2
 434 -139 l 1
 434 192 l 1
 375 229 l 1
 354 250 l 1
 434 330 l 1
 434 444 l 1
 306 533 l 1
 306 65 l 1
 195 -46 l 1
 174 -25 l 1
 174 -25 173 -21 170 -17 c 0
 155 -6 130 4 95 4 c 0
 79 4 66 0 55 -6 c 2
 15 -46 l 1
 -6 -25 l 1
 -6 -25 0 -13 12 -1 c 2
 82 69 l 2
 95 82 116 96 145 96 c 0
 145 531 l 2
 142 530 138 529 135 529 c 0
 117 529 103 554 74 554 c 0
 70 554 67 553 63 552 c 2
 15 504 l 1
EndSplineSet
EndChar
StartChar: quoteleft
Encoding: 8216 8216 254
Width: 240
Flags: W
HStem: 389 232
VStem: 54 152
LayerCount: 2
Back
SplineSet
140 435 m 25
 100 475 l 1
 100 515 l 25
 160 575 l 1049
EndSplineSet
Fore
SplineSet
186 460 m 1
 115 389 l 1
 54 450 l 1
 54 490 l 1
 185 621 l 1
 206 600 l 1
 146 540 l 1
 146 500 l 1
 186 460 l 1
EndSplineSet
EndChar
StartChar: quotereversed
Encoding: 8219 8219 928
Width: 240
Flags: W
HStem: 404 232
VStem: 54 152
LayerCount: 2
Back
SplineSet
140 590 m 29
 100 550 l 1
 100 510 l 29
 160 450 l 1053
EndSplineSet
Fore
SplineSet
115 636 m 1
 186 565 l 1
 146 525 l 1
 146 485 l 2
 146 484 200 431 206 425 c 1
 185 404 l 1
 54 535 l 1
 54 575 l 1
 115 636 l 1
EndSplineSet
EndChar
StartChar: quotedblright
Encoding: 8221 8221 252
Width: 400
Flags: W
HStem: 404 232
VStem: 34 312
LayerCount: 2
Back
SplineSet
260 590 m 29
 300 550 l 1
 300 510 l 29
 240 450 l 1053
100 590 m 29
 140 550 l 5
 140 510 l 29
 80 450 l 1053
EndSplineSet
Fore
SplineSet
54 565 m 1
 125 636 l 1
 186 575 l 1
 186 535 l 1
 55 404 l 1
 34 425 l 1
 94 485 l 1
 94 525 l 1
 54 565 l 1
214 565 m 1
 285 636 l 1
 346 575 l 1
 346 535 l 1
 215 404 l 1
 194 425 l 1
 254 485 l 1
 254 525 l 1
 214 565 l 1
EndSplineSet
EndChar
StartChar: quotedblbase
Encoding: 8222 8222 253
Width: 400
VWidth: 450
Flags: W
HStem: -146 232
VStem: 34 312
LayerCount: 2
Back
SplineSet
260 40 m 29
 300 0 l 1
 300 -40 l 29
 240 -100 l 1053
100 40 m 29
 140 0 l 5
 140 -40 l 29
 80 -100 l 1053
EndSplineSet
Fore
SplineSet
54 15 m 1
 125 86 l 1
 186 25 l 1
 186 -15 l 1
 55 -146 l 1
 34 -125 l 1
 94 -65 l 1
 94 -25 l 1
 54 15 l 1
214 15 m 1
 285 86 l 1
 346 25 l 1
 346 -15 l 1
 215 -146 l 1
 194 -125 l 1
 254 -65 l 1
 254 -25 l 1
 214 15 l 1
EndSplineSet
EndChar
StartChar: quotedblrev
Encoding: 8223 8223 929
Width: 400
Flags: W
HStem: 404 232
VStem: 54 312
LayerCount: 2
Back
SplineSet
140 590 m 29
 100 550 l 5
 100 510 l 29
 160 450 l 1053
300 590 m 29
 260 550 l 1
 260 510 l 29
 320 450 l 1053
EndSplineSet
Fore
SplineSet
275 636 m 1
 346 565 l 1
 306 525 l 1
 306 485 l 2
 306 484 360 431 366 425 c 1
 345 404 l 1
 214 535 l 1
 214 575 l 1
 275 636 l 1
115 636 m 1
 186 565 l 1
 146 525 l 1
 146 485 l 2
 146 484 200 431 206 425 c 1
 185 404 l 1
 54 535 l 1
 54 575 l 1
 115 636 l 1
EndSplineSet
EndChar
StartChar: daggerdbl
Encoding: 8225 8225 263
Width: 320
Flags: W
HStem: -46 21G<35 110 235 275> 426 20G<45 85 210 285> 426 20G<45 85 210 285> 626 20G<185 225>
VStem: 94 132<-142 -33.5007 433.501 542> 112 97<-134.974 -32 72 328 432 534.974>
LayerCount: 2
Back
SplineSet
40 40 m 25
 80 0 l 25
 240 40 l 25
 280 0 l 1049
40 400 m 25
 80 360 l 25
 240 400 l 25
 280 360 l 1049
140 560 m 1
 140 560 151 524 152 500 c 24
 158 383 160 200 160 200 c 1
 160 200 162 383 168 500 c 24
 170 539 180 600 180 600 c 9
 140 560 l 1
180 -160 m 1
 180 -160 169 -124 168 -100 c 24
 162 17 160 200 160 200 c 1
 160 200 158 17 152 -100 c 24
 150 -139 140 -200 140 -200 c 9
 180 -160 l 1
EndSplineSet
Fore
SplineSet
226 -135 m 1xd8
 115 -246 l 1
 94 -225 l 1xd8
 94 -225 104 -164 106 -125 c 0
 107 -97 109 -64 110 -32 c 1
 55 -46 l 1
 -6 15 l 1
 65 86 l 1
 105 46 l 1
 112 48 l 1xd4
 114 119 114 175 114 175 c 1
 114 175 113 246 111 328 c 1
 55 314 l 1
 -6 375 l 1
 65 446 l 1
 105 406 l 1
 109 407 l 1
 108 431 107 454 106 475 c 0
 105 499 94 535 94 535 c 1
 205 646 l 1
 226 625 l 1xd8
 226 625 216 564 214 525 c 0
 213 497 211 464 210 432 c 1
 265 446 l 1
 326 385 l 1
 255 314 l 1
 215 354 l 1
 208 352 l 1
 206 281 206 225 206 225 c 2
 206 225 207 154 209 72 c 1xd4
 265 86 l 1
 326 25 l 1
 255 -46 l 1
 215 -6 l 1
 211 -7 l 1
 212 -31 213 -54 214 -75 c 0
 215 -99 226 -135 226 -135 c 1xd8
EndSplineSet
EndChar
StartChar: bullet
Encoding: 8226 8226 259
Width: 240
Flags: W
HStem: 219 182
VStem: 29 182
LayerCount: 2
Back
SplineSet
95 355 m 25
 165 285 l 25
 145 265 l 25
 75 335 l 25
 95 355 l 25
EndSplineSet
Fore
SplineSet
120 401 m 1
 211 310 l 1
 120 219 l 1
 29 310 l 1
 120 401 l 1
EndSplineSet
EndChar
StartChar: guilsinglright
Encoding: 8250 8250 243
Width: 240
Flags: W
VStem: -6 252
LayerCount: 2
Back
SplineSet
60 325 m 21
 60 325 77 295 100 275 c 4
 176 207 200 200 200 200 c 5
 200 200 149 174 80 100 c 4
 63 82 40 50 40 50 c 1037
EndSplineSet
Fore
SplineSet
85 371 m 1
 106 350 l 1
 106 350 115 333 129 317 c 0
 177 274 204 257 216 250 c 0
 222 246 225 246 225 246 c 1
 246 225 l 1
 175 154 l 1
 175 154 150 140 112 108 c 0
 98 91 86 75 86 75 c 2
 15 4 l 1
 -6 25 l 1
 -6 25 17 57 34 75 c 0
 40 81 45 87 50 92 c 0
 51 93 51 93 52 94 c 2
 123 165 l 2
 127 169 133 174 137 178 c 1
 122 189 101 206 75 229 c 0
 73 231 71 233 69 235 c 0
 68 235 l 2
 68 236 l 1
 47 257 l 2
 28 276 14 300 14 300 c 1
 85 371 l 1
EndSplineSet
EndChar
StartChar: refmark
Encoding: 8251 8251 953
Width: 480
Flags: W
HStem: 546 5G<85 125 245 285 405 445>
LayerCount: 2
Back
SplineSet
400 500 m 25
 80 100 l 1049
80 500 m 25
 400 100 l 1049
380 350 m 25
 420 310 l 1049
200 115 m 25
 240 75 l 1049
240 525 m 25
 280 485 l 1049
60 290 m 25
 100 250 l 1049
EndSplineSet
Fore
SplineSet
14 265 m 1
 85 336 l 1
 146 275 l 1
 75 204 l 1
 14 265 l 1
194 500 m 1
 265 571 l 1
 326 510 l 1
 255 439 l 1
 194 500 l 1
154 90 m 1
 225 161 l 1
 286 100 l 1
 215 29 l 1
 154 90 l 1
334 325 m 1
 405 396 l 1
 466 335 l 1
 395 264 l 1
 334 325 l 1
105 546 m 1
 126 525 l 1
 260 357 l 1
 354 475 l 1
 425 546 l 1
 446 525 l 1
 286 325 l 1
 446 125 l 1
 375 54 l 1
 354 75 l 1
 220 243 l 1
 126 125 l 1
 55 54 l 1
 34 75 l 1
 194 275 l 1
 34 475 l 1
 105 546 l 1
EndSplineSet
EndChar
StartChar: bracketquillright
Encoding: 8262 8262 917
Width: 240
Flags: W
HStem: -196 92<65 114> 254 92<65 114> 654 92<65 114>
VStem: 114 92<-104 254 346 654>
LayerCount: 2
Back
SplineSet
40 300 m 25
 160 300 l 1049
40 700 m 25
 160 700 l 25
 160 -150 l 25
 40 -150 l 1033
EndSplineSet
Fore
SplineSet
-6 675 m 1
 65 746 l 1
 185 746 l 1
 206 725 l 1
 206 325 l 1
 206 -125 l 1
 135 -196 l 1
 15 -196 l 1
 -6 -175 l 1
 65 -104 l 1
 114 -104 l 1
 114 254 l 1
 15 254 l 1
 -6 275 l 1
 65 346 l 1
 114 346 l 1
 114 654 l 1
 15 654 l 1
 -6 675 l 1
EndSplineSet
EndChar
StartChar: et
Encoding: 8266 8266 960
Width: 320
Flags: W
HStem: -196 21G<75 115> 304 92<125.846 226.5> 426 20G<65 133 265 325> 426 20G<65 133 265 325>
VStem: 74 92<-125 49.9103>
LayerCount: 2
Back
SplineSet
60 400 m 1
 60 400 110 350 180 350 c 3
 223 350 280 400 280 400 c 1
 280 400 120 176 120 -100 c 7
 120 -132 120 -150 120 -150 c 1025
EndSplineSet
Fore
SplineSet
14 375 m 1xe8
 85 446 l 1
 85 446 135 396 205 396 c 0
 248 396 305 446 305 446 c 1
 326 425 l 1
 326 425 166 201 166 -75 c 2
 166 -125 l 1
 95 -196 l 1
 74 -175 l 1
 74 -125 l 2
 74 65 150 232 197 316 c 1
 184 310 168 304 155 304 c 0
 85 304 35 354 35 354 c 1
 14 375 l 1xe8
EndSplineSet
EndChar
StartChar: paragraphrev
Encoding: 8267 8267 951
Width: 560
Flags: W
HStem: 525 4G<-5 35.4167 314.5 325> 554 92<77.3359 138.281> 554 67<328.242 388.858>
VStem: 145 30<-105.296 531> 214 92<-50 61 176 531> 415 92<191.844 543.311>
LayerCount: 2
Back
SplineSet
40 550 m 5
 40 550 65 600 99 600 c 7
 128 600 142 575 160 575 c 7
 182 575 200 600 201 600 c 1029
160 550 m 5
 160 -125 l 1029
320 -200 m 5
 320 -200 218 -150 140 -150 c 7
 85 -150 60 -200 60 -200 c 1029
301 150 m 21
 301 150 309 100 361 100 c 7
 429 100 461 178 461 350 c 7
 461 469 456 600 402 600 c 7
 373 600 359 575 341 575 c 7
 319 575 301 600 300 600 c 5
 260 560 l 5
 260 -75 l 1029
EndSplineSet
Fore
SplineSet
306 61 m 1xdc
 306 -50 l 1
 241 -116 l 1
 297 -131 345 -154 345 -154 c 1
 366 -175 l 1
 295 -246 l 1
 295 -246 193 -196 115 -196 c 0
 99 -196 85 -201 75 -206 c 2
 35 -246 l 1
 14 -225 l 2
 14 -225 19 -214 31 -202 c 2
 32 -201 l 2
 102 -131 l 2
 112 -121 126 -110 145 -106 c 1
 145 531 l 2
 142 530 138 529 135 529 c 0
 117 529 103 554 74 554 c 0xbc
 70 554 68 553 64 552 c 2
 15 504 l 1
 -6 525 l 1
 -6 525 3 543 17 557 c 2
 88 628 l 2
 89 629 l 0
 99 639 111 646 124 646 c 0xdc
 153 646 167 621 185 621 c 0xbc
 196 621 206 628 213 634 c 2
 225 646 l 2
 226 646 l 2
 247 625 l 1
 245 623 l 2
 244 622 243 620 241 618 c 2
 240 617 l 2
 175 552 l 1
 175 -104 l 1
 192 -105 209 -108 226 -112 c 1
 214 -100 l 1
 214 535 l 1
 325 646 l 2xdc
 337 634 l 2
 344 628 355 621 366 621 c 0xbc
 384 621 398 646 427 646 c 0
 436 646 442 642 449 636 c 2
 450 636 l 2
 471 615 l 2
 504 582 507 474 507 375 c 0
 507 254 491 178 458 145 c 2
 387 75 l 2
 373 61 356 54 336 54 c 0
 324 54 314 57 306 61 c 1xdc
306 176 m 1
 326 196 l 1
 347 175 l 1
 347 175 349 164 355 153 c 1
 363 148 373 146 386 146 c 0
 389 146 392 146 394 146 c 0
 408 187 415 246 415 325 c 0
 415 414 412 509 389 552 c 0
 386 553 381 554 377 554 c 0
 348 554 334 529 316 529 c 0
 313 529 309 530 306 531 c 2
 306 176 l 1
EndSplineSet
EndChar
StartChar: dotcross
Encoding: 8284 8284 954
Width: 480
Flags: W
HStem: 254 92<65 194 286 415> 501 20G<105 145 245 285 345 385>
VStem: 194 92<75 254 346 525>
LayerCount: 2
Back
SplineSet
240 550 m 25
 240 50 l 1049
40 300 m 25
 440 300 l 1049
340 475 m 25
 380 435 l 1049
340 165 m 25
 380 125 l 1049
100 475 m 25
 140 435 l 1049
100 165 m 25
 140 125 l 1049
EndSplineSet
Fore
SplineSet
54 140 m 1
 125 211 l 1
 186 150 l 1
 115 79 l 1
 54 140 l 1
54 450 m 1
 125 521 l 1
 186 460 l 1
 115 389 l 1
 54 450 l 1
294 140 m 1
 365 211 l 1
 426 150 l 1
 355 79 l 1
 294 140 l 1
294 450 m 1
 365 521 l 1
 426 460 l 1
 355 389 l 1
 294 450 l 1
-6 275 m 1
 65 346 l 1
 194 346 l 1
 194 525 l 1
 265 596 l 1
 286 575 l 1
 286 346 l 1
 465 346 l 1
 486 325 l 1
 415 254 l 1
 286 254 l 1
 286 75 l 1
 215 4 l 1
 194 25 l 1
 194 254 l 1
 15 254 l 1
 -6 275 l 1
EndSplineSet
EndChar
StartChar: Euro
Encoding: 8364 8364 264
Width: 440
Flags: W
HStem: -46 21G<223 275> 179 92<65 74 166 255> 329 92<65 74 166 295> 479 21G<328.333 375> 626 20G<285 331.667>
VStem: 74 92<133 179 271 329>
LayerCount: 2
Back
SplineSet
40 225 m 25
 280 225 l 1049
40 375 m 25
 320 375 l 1049
380 525 m 9
 280 600 l 25
 120 440 l 25
 120 100 l 25
 280 0 l 25
 400 120 l 1041
EndSplineSet
Fore
SplineSet
426 550 m 1
 355 479 l 1
 255 554 l 2
 255 554 174 473 166 465 c 1
 166 421 l 1
 345 421 l 1
 366 400 l 1
 295 329 l 1
 166 329 l 1
 166 271 l 1
 305 271 l 1
 326 250 l 1
 255 179 l 1
 166 179 l 1
 166 133 l 1
 305 46 l 2
 305 46 350 91 354 95 c 2
 425 166 l 1
 446 145 l 1
 255 -46 l 1
 95 54 l 1
 74 75 l 1
 74 179 l 1
 15 179 l 1
 -6 200 l 1
 65 271 l 1
 74 271 l 1
 74 329 l 1
 15 329 l 1
 -6 350 l 1
 65 421 l 1
 80 421 l 1
 305 646 l 1
 405 571 l 1
 426 550 l 1
EndSplineSet
EndChar
StartChar: minus
Encoding: 8722 8722 214
Width: 480
Flags: W
HStem: 254 92<105 375>
LayerCount: 2
Back
SplineSet
80 300 m 25
 400 300 l 1049
EndSplineSet
Fore
SplineSet
34 275 m 1
 105 346 l 1
 425 346 l 1
 446 325 l 1
 375 254 l 1
 55 254 l 1
 34 275 l 1
EndSplineSet
EndChar
StartChar: logicaland
Encoding: 8743 8743 952
Width: 480
Flags: W
HStem: -46 21G<35 75 355 395> 426 20G<245 285> 426 20G<245 285>
LayerCount: 2
Back
SplineSet
80 0 m 25
 240 400 l 25
 400 0 l 1049
EndSplineSet
Fore
SplineSet
55 -46 m 1xc0
 34 -25 l 1
 194 375 l 1
 265 446 l 1
 286 425 l 1
 446 25 l 1
 375 -46 l 1
 354 -25 l 1
 230 285 l 1
 126 25 l 1
 55 -46 l 1xc0
EndSplineSet
EndChar
StartChar: proportion
Encoding: 8759 8759 898
Width: 480
Flags: W
HStem: -46 21G<95 135 335 375>
LayerCount: 2
Back
SplineSet
340 350 m 25
 380 310 l 1049
340 40 m 25
 380 0 l 1049
100 350 m 25
 140 310 l 1049
100 40 m 25
 140 0 l 1049
EndSplineSet
Fore
SplineSet
54 15 m 1
 125 86 l 1
 186 25 l 1
 115 -46 l 1
 54 15 l 1
54 325 m 1
 125 396 l 1
 186 335 l 1
 115 264 l 1
 54 325 l 1
294 15 m 1
 365 86 l 1
 426 25 l 1
 355 -46 l 1
 294 15 l 1
294 325 m 1
 365 396 l 1
 426 335 l 1
 355 264 l 1
 294 325 l 1
EndSplineSet
EndChar
StartChar: luslst
Encoding: 11788 11788 902
Width: 240
Flags: W
VStem: -6 252
LayerCount: 2
Back
SplineSet
40 700 m 25
 200 450 l 1049
EndSplineSet
Fore
SplineSet
65 746 m 1
 86 725 l 1
 246 475 l 1
 175 404 l 1
 154 425 l 1
 -6 675 l 1
 65 746 l 1
EndSplineSet
EndChar
StartChar: ramus
Encoding: 11801 11801 911
Width: 480
Flags: W
HStem: -196 21G<35 75> 532 20G<180 220>
VStem: 14 92<121.04 325> 129 92<355.314 481>
LayerCount: 2
Back
SplineSet
288 662 m 1
 288 662 288 625 288 600 c 27
 288 551 316 475 316 475 c 1
 316 475 388 516 428 550 c 24
 444 564 458 588 458 588 c 1025
60 350 m 1
 60 350 60 274 60 225 c 27
 60 127 123 -25 123 -25 c 1
 123 -25 261 57 340 125 c 24
 372 153 400 200 400 200 c 1025
175 506 m 1
 175 506 175 449 175 412 c 27
 175 339 220 225 220 225 c 1
 220 225 326 287 385 338 c 24
 409 359 430 394 430 394 c 1025
80 -150 m 25
 400 700 l 1049
EndSplineSet
Fore
SplineSet
55 -196 m 1
 34 -175 l 1
 80 -53 l 1
 77 -50 l 1
 77 -50 14 102 14 200 c 2
 14 325 l 1
 85 396 l 1
 106 375 l 1
 106 250 l 2
 106 203 120 144 135 95 c 1
 175 199 l 1
 174 200 l 1
 174 200 129 314 129 387 c 2
 129 481 l 1
 200 552 l 1
 221 531 l 1
 221 437 l 2
 221 412 226 382 233 354 c 1
 270 451 l 1
 267 460 242 529 242 575 c 2
 242 637 l 1
 313 708 l 1
 334 687 l 1
 334 625 l 2
 334 624 334 623 334 622 c 2
 354 675 l 1
 425 746 l 1
 446 725 l 1
 378 543 l 1
 391 551 405 561 419 571 c 2
 483 634 l 1
 504 613 l 1
 504 613 492 593 478 579 c 2
 408 508 l 2
 407 507 404 505 403 504 c 0
 387 491 367 477 348 464 c 1
 284 295 l 1
 311 312 346 335 376 357 c 0
 381 364 384 369 384 369 c 1
 455 440 l 1
 476 419 l 1
 476 419 459 390 438 369 c 2
 367 299 l 2
 365 297 362 294 360 292 c 0
 330 266 288 238 254 216 c 1
 191 48 l 1
 230 73 289 111 335 147 c 1
 347 164 354 175 354 175 c 2
 425 246 l 1
 446 225 l 1
 446 225 423 188 396 160 c 0
 395 159 396 159 395 158 c 2
 324 87 l 2
 321 84 318 82 315 79 c 0
 271 41 208 -2 161 -32 c 1
 126 -125 l 1
 55 -196 l 1
EndSplineSet
EndChar
StartChar: barquillleft
Encoding: 11808 11808 920
Width: 240
Flags: W
HStem: -196 21G<35 75> 254 92<126 175>
VStem: 34 92<-125 254 346 675>
LayerCount: 2
Back
SplineSet
200 300 m 25
 80 300 l 1049
80 700 m 25
 80 -150 l 1049
EndSplineSet
Fore
SplineSet
105 746 m 1
 126 725 l 1
 126 346 l 1
 225 346 l 1
 246 325 l 1
 175 254 l 1
 126 254 l 1
 126 -125 l 1
 55 -196 l 1
 34 -175 l 1
 34 275 l 1
 34 675 l 1
 105 746 l 1
EndSplineSet
EndChar
StartChar: barquillright
Encoding: 11809 11809 921
Width: 240
Flags: W
HStem: -196 21G<115 155> 254 92<65 114>
VStem: 114 92<-125 254 346 675>
LayerCount: 2
Back
SplineSet
40 300 m 25
 160 300 l 1049
160 700 m 25
 160 -150 l 1049
EndSplineSet
Fore
SplineSet
185 746 m 1
 206 725 l 1
 206 325 l 1
 206 -125 l 1
 135 -196 l 1
 114 -175 l 1
 114 254 l 1
 15 254 l 1
 -6 275 l 1
 65 346 l 1
 114 346 l 1
 114 675 l 1
 185 746 l 1
EndSplineSet
EndChar
StartChar: brackettopleft
Encoding: 11810 11810 922
Width: 240
Flags: W
HStem: 654 92<126 175>
VStem: 34 92<325 654>
LayerCount: 2
Back
SplineSet
200 700 m 25
 80 700 l 17
 80 300 l 1025
EndSplineSet
Fore
SplineSet
246 725 m 1
 175 654 l 1
 126 654 l 1
 126 325 l 1
 55 254 l 1
 34 275 l 1
 34 675 l 1
 105 746 l 1
 225 746 l 1
 246 725 l 1
EndSplineSet
EndChar
StartChar: Ubracketright
Encoding: 11815 11815 913
Width: 400
Flags: W
HStem: -46 92<65 208.203> 354 92<65 206.774>
VStem: 274 92<124.924 274.276>
LayerCount: 2
Back
SplineSet
40 400 m 1
 160 400 l 26
 248 400 320 310 320 200 c 27
 320 90 248 0 160 0 c 26
 40 0 l 1025
EndSplineSet
Fore
SplineSet
-6 375 m 1
 65 446 l 1
 185 446 l 2
 223 446 257 429 284 402 c 2
 306 381 l 2
 342 344 366 288 366 225 c 0
 366 162 343 106 306 69 c 2
 235 -2 l 2
 235 -3 l 2
 207 -30 172 -46 135 -46 c 2
 15 -46 l 1
 -6 -25 l 1
 65 46 l 1
 185 46 l 2
 206 46 226 51 245 61 c 1
 263 93 274 132 274 175 c 0
 274 232 255 283 224 320 c 1
 199 341 168 354 135 354 c 2
 15 354 l 1
 -6 375 l 1
EndSplineSet
EndChar
StartChar: a_o
Encoding: 42805 42805 341
Width: 480
Flags: W
HStem: -46 21G<95 135 275 315> 426 20G<145 245 325 365> 426 20G<145 245 325 365>
VStem: 34 92<85 165> 194 92<75 179 276 334> 354 92<105 329.311>
CounterMasks: 1 1c
AnchorPoint: "blwmark" 240 0 basechar 0
AnchorPoint: "abvmark" 240 500 basechar 0
LayerCount: 2
Back
SplineSet
100 280 m 17
 80 340 l 1
 140 400 l 1
 240 375 l 1
 240 100 l 9
 140 0 l 1
 80 60 l 1
 80 190 l 1
 140 250 l 1
 140 250 155 225 200 225 c 3
 215 225 240 225 240 225 c 1033
320 400 m 25
 240 320 l 25
 240 80 l 25
 320 0 l 25
 400 80 l 25
 400 320 l 25
 320 400 l 25
EndSplineSet
Fore
SplineSet
205 44 m 1xdc
 115 -46 l 1
 34 35 l 1
 34 165 l 1
 165 296 l 1
 176 285 l 2
 181 281 186 279 194 276 c 1
 194 295 l 1
 194 334 l 1
 131 350 l 1
 146 305 l 1
 75 234 l 1
 54 255 l 1
 34 315 l 1
 165 446 l 1
 265 421 l 1
 286 400 l 1
 286 387 l 1
 345 446 l 1
 446 345 l 1
 446 105 l 1
 295 -46 l 1
 205 44 l 1xdc
286 125 m 1
 286 105 l 2
 286 73 328 63 345 46 c 1
 354 55 l 1
 354 295 l 2
 354 327 312 337 295 354 c 1
 286 345 l 1
 286 125 l 1
194 75 m 1
 194 179 l 1
 175 179 l 2
 150 179 135 187 126 193 c 1
 126 85 l 1
 165 46 l 1
 194 75 l 1
EndSplineSet
LCarets2: 1 240 
Ligature2: "Historic ligatures-1" a o
EndChar
StartChar: a_u
Encoding: 42807 42807 344
Width: 480
Flags: W
HStem: -46 21G<95 135 255 295 375 415> 426 20G<145 245 385 425> 426 20G<145 245 385 425>
VStem: 34 92<85 165> 194 92<85 179 276 334> 354 92<75 355>
CounterMasks: 1 1c
AnchorPoint: "blwmark" 240 0 basechar 0
AnchorPoint: "abvmark" 240 500 basechar 0
LayerCount: 2
Back
SplineSet
240 100 m 9
 140 0 l 1
 80 60 l 1
 80 190 l 1
 140 250 l 1
 140 250 155 225 200 225 c 3
 215 225 240 225 240 225 c 1033
460 40 m 25
 420 0 l 1
 400 20 l 17
 400 380 l 1025
420 360 m 25
 380 400 l 1049
400 100 m 25
 300 0 l 25
 240 60 l 1
 240 375 l 17
 140 400 l 1
 80 340 l 1
 100 280 l 1033
EndSplineSet
Fore
SplineSet
485 86 m 1xdc
 506 65 l 1
 395 -46 l 1
 354 -5 l 1
 354 33 l 1
 275 -46 l 1
 195 34 l 1
 115 -46 l 1
 34 35 l 1
 34 165 l 1
 165 296 l 1
 176 285 l 2
 181 282 186 279 194 276 c 1
 194 334 l 1
 131 350 l 1
 146 305 l 1
 75 234 l 1
 54 255 l 1
 34 315 l 1
 165 446 l 1
 265 421 l 1
 286 400 l 1
 286 250 l 1
 286 125 l 1
 286 85 l 1
 325 46 l 1
 354 75 l 1
 354 355 l 1
 334 375 l 1
 405 446 l 1
 425 426 l 1
 435 415 l 1
 466 385 l 1
 446 365 l 1
 446 125 l 1
 446 47 l 1
 485 86 l 1xdc
194 75 m 1
 194 179 l 1
 175 179 l 2
 150 179 135 187 126 193 c 1
 126 85 l 1
 165 46 l 1
 194 75 l 1
EndSplineSet
LCarets2: 1 240 
Ligature2: "Historic ligatures-1" a u
EndChar
StartChar: a_v
Encoding: 42809 42809 345
Width: 480
Flags: W
HStem: -46 21G<95 135 275 315> 576 20G<408.282 449>
VStem: 34 92<85 165> 194 92<105 179 276 333> 314 92<427.782 498.189> 354 92<105 383.594>
AnchorPoint: "blwmark" 240 0 basechar 0
AnchorPoint: "abvmark" 240 500 basechar 0
LayerCount: 2
Back
SplineSet
240 100 m 9
 140 0 l 1
 80 60 l 1
 80 190 l 1
 140 250 l 1
 140 250 155 225 200 225 c 3
 215 225 240 225 240 225 c 1033
404 550 m 17
 404 550 360 507 360 472 c 16
 360 423 400 375 400 375 c 9
 400 80 l 1
 320 0 l 25
 240 80 l 1
 240 375 l 17
 140 395 l 1
 80 335 l 1
 100 275 l 1033
EndSplineSet
Fore
SplineSet
450 575 m 1xf8
 443 568 406 529 406 497 c 0xf8
 406 448 446 400 446 400 c 1
 446 105 l 1
 295 -46 l 1
 205 44 l 1
 115 -46 l 1
 34 35 l 1
 34 165 l 1
 165 296 l 1
 176 285 l 2
 181 282 186 279 194 276 c 1
 194 333 l 1
 131 346 l 1
 146 300 l 1
 75 229 l 1
 54 250 l 1
 34 310 l 1
 165 441 l 1
 265 421 l 1
 286 400 l 1
 286 250 l 1
 286 125 l 1
 286 105 l 1
 345 46 l 1
 354 55 l 1
 354 350 l 1xf4
 354 350 314 398 314 447 c 0
 314 480 353 520 358 525 c 0
 428 596 l 2
 429 596 l 1
 450 575 l 1xf8
194 75 m 1
 194 179 l 1
 175 179 l 2
 150 179 135 187 126 193 c 1
 126 85 l 1
 165 46 l 1
 194 75 l 1
EndSplineSet
LCarets2: 1 240 
Ligature2: "Historic ligatures-1" a v
EndChar
StartChar: avslash
Encoding: 42811 42811 861
Width: 480
Flags: W
HStem: -46 21G<95 135 275 315> 204 92<286 354> 426 170G<145 245 408.282 449> 426 20G<145 245>
VStem: 34 92<85 165> 194 92<105 179 296 334> 314 92<430.36 498.189> 354 92<105 204 296 385.86>
AnchorPoint: "abvmark" 240 500 basechar 0
AnchorPoint: "blwmark" 240 0 basechar 0
LayerCount: 2
Back
SplineSet
240 250 m 25
 440 250 l 1049
240 100 m 9
 140 0 l 1
 80 60 l 1
 80 190 l 1
 140 250 l 1
 140 250 155 225 200 225 c 3
 215 225 240 225 240 225 c 1033
404 550 m 17
 404 550 360 507 360 472 c 16
 360 423 400 380 400 380 c 9
 400 80 l 1
 320 0 l 25
 240 80 l 1
 240 375 l 17
 140 400 l 1
 80 340 l 1
 100 280 l 1033
EndSplineSet
Fore
SplineSet
450 575 m 1xee
 443 568 406 529 406 497 c 0xee
 406 448 446 405 446 405 c 1
 446 296 l 1
 465 296 l 1
 486 275 l 1
 446 235 l 1
 446 105 l 1
 295 -46 l 1
 205 44 l 1
 115 -46 l 1
 34 35 l 1
 34 165 l 1
 165 296 l 1
 176 285 l 2
 181 282 186 279 194 276 c 1
 194 334 l 1
 131 350 l 1
 146 305 l 1
 75 234 l 1
 54 255 l 1
 34 315 l 1
 165 446 l 1
 265 421 l 1
 286 400 l 1
 286 296 l 1
 354 296 l 1
 354 355 l 1xdd
 354 355 314 398 314 447 c 0
 314 480 353 520 358 525 c 0
 428 596 l 2
 429 596 l 1
 450 575 l 1xee
194 75 m 1
 194 179 l 1
 175 179 l 2
 150 179 135 187 126 193 c 1
 126 85 l 1
 165 46 l 1
 194 75 l 1
286 125 m 1
 286 105 l 1
 345 46 l 1
 354 55 l 1
 354 204 l 1xcd
 286 204 l 1
 286 125 l 1
EndSplineSet
EndChar
StartChar: a_y
Encoding: 42813 42813 346
Width: 480
Flags: W
HStem: -196 92<233 291.5> -46 21G<95 135 275 315> 426 20G<145 245 385 425> 426 20G<145 245 385 425>
VStem: 34 92<85 165> 194 92<105 179 276 334> 354 92<-151.691 13 55 355>
CounterMasks: 1 0e
AnchorPoint: "abvmark" 240 500 basechar 0
LayerCount: 2
Back
SplineSet
240 100 m 9
 140 0 l 1
 80 60 l 1
 80 190 l 1
 140 250 l 1
 140 250 155 225 200 225 c 3
 215 225 240 225 240 225 c 1033
420 360 m 25
 380 400 l 1049
200 -200 m 17
 200 -200 230 -150 260 -150 c 8
 297 -150 303 -200 340 -200 c 24
 370 -200 400 -150 400 -150 c 1
 400 380 l 1025
400 80 m 9
 320 0 l 25
 240 80 l 1
 240 375 l 17
 140 400 l 1
 80 340 l 1
 100 280 l 1033
EndSplineSet
Fore
SplineSet
175 -246 m 1xee
 154 -225 l 1
 154 -225 164 -209 178 -195 c 2
 248 -124 l 2
 249 -123 l 0
 260 -112 272 -104 285 -104 c 0
 298 -104 307 -110 315 -118 c 2
 336 -139 l 2
 337 -140 l 0
 339 -142 342 -145 344 -147 c 0
 347 -149 351 -151 354 -152 c 2
 354 13 l 1
 295 -46 l 1
 205 44 l 1
 115 -46 l 1
 34 35 l 1
 34 165 l 1
 165 296 l 1
 176 285 l 2
 181 282 186 279 194 276 c 1
 194 334 l 1
 131 350 l 1
 146 305 l 1
 75 234 l 1
 54 255 l 1
 34 315 l 1
 165 446 l 1
 265 421 l 1
 286 400 l 1
 286 250 l 1
 286 125 l 1
 286 105 l 1
 345 46 l 1
 354 55 l 1
 354 355 l 1
 334 375 l 1
 405 446 l 1
 425 426 l 1
 435 415 l 1
 466 385 l 1
 446 365 l 1
 446 105 l 1
 446 -125 l 1
 446 -125 436 -141 422 -155 c 2
 352 -226 l 2
 341 -237 328 -246 315 -246 c 0
 302 -246 293 -240 285 -232 c 2
 264 -211 l 2
 261 -208 258 -206 256 -203 c 0
 250 -199 243 -196 235 -196 c 0
 231 -196 227 -197 222 -199 c 2
 175 -246 l 1xee
194 75 m 1
 194 179 l 1
 175 179 l 2
 150 179 135 187 126 193 c 1
 126 85 l 1
 165 46 l 1
 194 75 l 1
EndSplineSet
LCarets2: 1 240 
Ligature2: "Historic ligatures-1" a y
EndChar
StartChar: kbar
Encoding: 42817 42817 862
Width: 320
Flags: W
HStem: -46 21G<55 95 215 255> 451 20G<225 265> 651 20G<65 105>
VStem: 34 92<45 220 266 429 521 580> 194 92<45 174 375 380>
AnchorPoint: "abvmark" 160 700 basechar 0
AnchorPoint: "blwmark" 160 0 basechar 0
LayerCount: 2
Back
SplineSet
160 475 m 25
 20 475 l 1049
220 425 m 25
 260 385 l 1049
60 625 m 25
 100 585 l 1049
60 625 m 25
 100 585 l 1049
80 200 m 1
 240 350 l 9
 240 405 l 1049
160 275 m 1
 240 200 l 1
 240 20 l 1025
220 40 m 25
 260 0 l 1049
60 40 m 25
 100 0 l 1049
60 625 m 25
 100 585 l 1049
80 605 m 9
 80 20 l 1049
EndSplineSet
Fore
SplineSet
174 400 m 1
 245 471 l 1
 265 451 l 1
 286 430 l 1
 306 410 l 1
 286 390 l 1
 286 375 l 1
 215 304 l 1
 209 298 l 1
 265 246 l 1
 286 225 l 1
 286 45 l 1
 306 25 l 1
 235 -46 l 1
 215 -26 l 1
 194 -5 l 1
 174 15 l 1
 194 35 l 1
 194 174 l 1
 135 229 l 1
 126 220 l 1
 126 45 l 1
 146 25 l 1
 75 -46 l 1
 55 -26 l 1
 34 -5 l 1
 14 15 l 1
 34 35 l 1
 34 175 l 1
 34 429 l 1
 -5 429 l 1
 -26 450 l 1
 34 510 l 1
 34 580 l 1
 14 600 l 1
 85 671 l 1
 105 651 l 1
 126 630 l 1
 146 610 l 1
 126 590 l 1
 126 521 l 1
 185 521 l 1
 206 500 l 1
 135 429 l 1
 126 429 l 1
 126 266 l 1
 194 330 l 1
 194 380 l 1
 174 400 l 1
EndSplineSet
EndChar
StartChar: lbar
Encoding: 42825 42825 865
Width: 160
Flags: W
HStem: -46 21G<55 95> 651 20G<65 105>
VStem: 34 92<47 429 521 580>
AnchorPoint: "abvmark" 80 700 basechar 0
AnchorPoint: "blwmark" 80 0 basechar 0
LayerCount: 2
Back
SplineSet
60 40 m 25
 100 0 l 25
 140 40 l 1049
60 625 m 25
 100 585 l 1049
80 605 m 9
 80 20 l 1049
140 475 m 25
 20 475 l 1049
EndSplineSet
Fore
SplineSet
14 600 m 1
 85 671 l 1
 105 651 l 1
 126 630 l 1
 146 610 l 1
 126 590 l 1
 126 521 l 1
 165 521 l 1
 186 500 l 1
 126 440 l 1
 126 47 l 1
 165 86 l 1
 186 65 l 1
 75 -46 l 1
 55 -26 l 1
 14 15 l 1
 34 35 l 1
 34 429 l 1
 -5 429 l 1
 -26 450 l 1
 34 510 l 1
 34 580 l 1
 14 600 l 1
EndSplineSet
EndChar
StartChar: obiit
Encoding: 42827 42827 866
Width: 320
Flags: W
HStem: -46 21G<115 155> 179 92<126 194> 426 20G<165 205> 426 20G<165 205>
VStem: 34 92<70.6892 179 271 295> 194 92<105 179 271 329.311>
LayerCount: 2
Back
SplineSet
20 225 m 25
 300 225 l 1049
160 400 m 25
 80 320 l 25
 80 80 l 25
 160 0 l 25
 240 80 l 25
 240 320 l 25
 160 400 l 25
EndSplineSet
Fore
SplineSet
135 354 m 1xcc
 126 345 l 1
 126 271 l 1
 194 271 l 1
 194 295 l 2
 194 327 152 337 135 354 c 1xcc
34 295 m 1
 185 446 l 1xec
 286 345 l 1
 286 271 l 1
 325 271 l 1
 346 250 l 1
 286 190 l 1
 286 105 l 1
 135 -46 l 1
 34 55 l 1
 34 179 l 1
 -5 179 l 1
 -26 200 l 1
 34 260 l 1
 34 295 l 1
126 179 m 1
 126 105 l 2
 126 73 168 63 185 46 c 1
 194 55 l 1
 194 179 l 1
 126 179 l 1
EndSplineSet
EndChar
StartChar: o_o
Encoding: 42831 42831 669
Width: 480
Flags: W
HStem: -46 21G<115 155 275 315> 426 20G<165 205 325 365> 426 20G<165 205 325 365>
VStem: 34 92<70.6892 295> 194 92<70.6892 329.311> 354 92<105 329.311>
CounterMasks: 1 1c
AnchorPoint: "blwmark" 240 0 basechar 0
AnchorPoint: "abvmark" 240 500 basechar 0
LayerCount: 2
Back
SplineSet
320 400 m 25
 240 320 l 25
 240 80 l 29
 320 0 l 25
 400 80 l 29
 400 320 l 25
 320 400 l 25
160 400 m 25
 80 320 l 25
 80 80 l 29
 160 0 l 29
 240 80 l 29
 240 320 l 25
 160 400 l 25
EndSplineSet
Fore
SplineSet
135 354 m 1x9c
 126 345 l 1
 126 105 l 2
 126 73 168 63 185 46 c 1
 194 55 l 1
 194 295 l 2
 194 327 152 337 135 354 c 1x9c
34 295 m 1
 185 446 l 1
 265 366 l 1
 345 446 l 1xdc
 446 345 l 1
 446 105 l 1
 295 -46 l 1
 215 34 l 1
 135 -46 l 1
 34 55 l 1
 34 295 l 1
286 105 m 2
 286 73 328 63 345 46 c 1
 354 55 l 1
 354 295 l 2
 354 327 312 337 295 354 c 1
 286 345 l 1
 286 105 l 2
EndSplineSet
LCarets2: 1 240 
Ligature2: "Historic ligatures-1" o o
EndChar
StartChar: pbar
Encoding: 42833 42833 868
Width: 320
Flags: W
HStem: -196 21G<35 75> 426 20G<65 105 165 205> 426 20G<65 105 165 205>
VStem: 34 92<-125 -121 -29 23 146 345> 194 92<106 329.311>
AnchorPoint: "abvmark" 160 500 basechar 0
LayerCount: 2
Back
SplineSet
40 50 m 1
 40 50 77 100 100 100 c 0
 165 100 200 0 200 0 c 9
 240 40 l 1
 240 320 l 25
 160 400 l 1
 80 320 l 1049
60 400 m 25
 100 360 l 1049
80 380 m 1
 80 -150 l 1025
160 -75 m 25
 20 -75 l 1049
EndSplineSet
Fore
SplineSet
126 345 m 1x98
 126 146 l 1
 147 146 164 134 179 120 c 2
 194 106 l 1
 194 295 l 2
 194 327 152 337 135 354 c 1
 126 345 l 1x98
126 -29 m 1
 158 -29 l 1
 154 -25 l 1
 154 -25 144 3 126 29 c 1
 126 -29 l 1
206 -50 m 1
 135 -121 l 1
 126 -121 l 1
 126 -125 l 1
 55 -196 l 1
 34 -175 l 1
 34 -121 l 1
 -5 -121 l 1
 -26 -100 l 1
 34 -40 l 1
 34 23 l 1
 15 4 l 1
 -6 25 l 1
 -6 25 4 39 17 52 c 2
 34 69 l 1
 34 295 l 1
 34 355 l 1
 14 375 l 1
 85 446 l 1
 105 426 l 1
 126 405 l 1
 135 396 l 1
 185 446 l 1xd8
 286 345 l 1
 286 65 l 1
 188 -33 l 1
 206 -50 l 1
EndSplineSet
EndChar
StartChar: qbar
Encoding: 42839 42839 871
Width: 320
Flags: W
HStem: -196 21G<195 235> -46 21G<115 155> 426 20G<165 205 245 285> 426 20G<165 205 245 285>
VStem: 34 92<105 295> 194 92<-125 -121 -29 13 55 330>
AnchorPoint: "abvmark" 180 500 basechar 0
LayerCount: 2
Back
SplineSet
300 -75 m 25
 160 -75 l 1049
240 80 m 9
 160 0 l 25
 80 80 l 25
 80 320 l 25
 160 400 l 1
 160 400 180 368 200 368 c 24
 220 368 240 400 240 400 c 9
 240 -150 l 1049
EndSplineSet
Fore
SplineSet
194 55 m 1xcc
 194 330 l 1
 188 325 182 322 175 322 c 0
 166 322 157 328 150 335 c 0
 150 336 l 2
 133 352 l 1
 126 345 l 1
 126 105 l 1
 185 46 l 1
 194 55 l 1xcc
194 13 m 1
 135 -46 l 1
 34 55 l 1
 34 295 l 1
 185 446 l 1
 206 425 l 1
 206 425 208 422 210 419 c 0
 215 416 220 414 225 414 c 0
 229 414 233 416 236 417 c 2
 265 446 l 1xec
 286 425 l 1
 286 -29 l 1
 325 -29 l 1
 346 -50 l 1
 286 -110 l 1
 286 -125 l 1
 215 -196 l 1
 194 -175 l 1
 194 -121 l 1
 135 -121 l 1
 114 -100 l 1
 185 -29 l 1
 194 -29 l 1
 194 13 l 1
EndSplineSet
EndChar
StartChar: rumrotunda
Encoding: 42845 42845 705
Width: 400
Flags: W
HStem: -196 21G<115 155> -46 21G<115 155.513 272.5 284> 426 20G<85 125> 426 20G<85 125>
VStem: 234 92<77 167>
LayerCount: 2
Back
SplineSet
240 225 m 1
 280 200 l 1
 280 200 280 139 280 100 c 27
 280 3 160 -150 160 -150 c 1025
360 50 m 17
 360 50 345 0 300 0 c 3
 225 0 200 40 200 40 c 13
 160 0 l 5
 80 220 l 25
 160 300 l 1
 80 400 l 1
 40 360 l 1049
EndSplineSet
Fore
SplineSet
385 96 m 1xe8
 406 75 l 1
 406 75 401 57 386 42 c 2
 315 -29 l 2
 306 -38 293 -46 275 -46 c 0
 270 -46 266 -45 261 -45 c 1
 233 -91 206 -125 206 -125 c 2
 135 -196 l 1
 114 -175 l 1
 114 -175 168 -105 204 -30 c 1
 194 -24 187 -19 182 -14 c 2
 175 -7 l 1
 135 -46 l 1
 114 -25 l 1
 34 195 l 1
 114 275 l 1
 53 352 l 1
 15 314 l 1
 -6 335 l 1
 105 446 l 1
 126 425 l 1
 206 325 l 1
 126 245 l 1
 195 56 l 1
 225 86 l 1
 234 77 l 1
 234 167 l 1
 215 179 l 1
 194 200 l 1
 265 271 l 1
 305 246 l 1
 326 225 l 1
 326 125 l 2
 326 101 319 74 308 47 c 1
 313 47 319 46 325 46 c 0
 329 46 331 46 336 47 c 2
 385 96 l 1xe8
EndSplineSet
EndChar
StartChar: thornbar
Encoding: 42853 42853 874
Width: 320
Flags: W
HStem: -196 21G<35 75> -46 21G<-5 24 126 155> 426 20G<165 205> 426 20G<165 205> 651 20G<65 105>
VStem: 34 92<-125 -37 77.4332 345 387 429 521 580> 194 92<105 329.311>
AnchorPoint: "abvmark" 160 700 basechar 0
LayerCount: 2
Back
SplineSet
40 0 m 1
 40 0 77 40 100 40 c 0
 123 40 160 0 160 0 c 9
 240 80 l 1
 240 320 l 25
 160 400 l 1
 80 320 l 1049
60 625 m 25
 100 585 l 1049
80 605 m 1
 80 -150 l 1025
160 475 m 25
 20 475 l 1049
EndSplineSet
Fore
SplineSet
206 500 m 1xee
 135 429 l 1
 126 429 l 1
 126 387 l 1
 185 446 l 1
 286 345 l 1
 286 105 l 1
 135 -46 l 1
 126 -37 l 2
 126 -125 l 1
 55 -196 l 1
 34 -175 l 1
 34 -28 l 2
 30 -31 27 -34 24 -37 c 2
 15 -46 l 1
 -6 -25 l 1
 -6 -25 -4 -23 -1 -20 c 2
 34 15 l 1
 34 295 l 1
 34 429 l 1
 -5 429 l 1
 -26 450 l 1
 34 510 l 1
 34 580 l 1
 14 600 l 1
 85 671 l 1
 105 651 l 1
 126 630 l 1
 146 610 l 1
 126 590 l 1
 126 521 l 1
 185 521 l 1
 206 500 l 1xee
126 345 m 1
 126 86 l 1
 144 85 170 60 180 50 c 2
 185 46 l 1
 194 55 l 1
 194 295 l 2
 194 327 152 337 135 354 c 1
 126 345 l 1
EndSplineSet
EndChar
StartChar: con
Encoding: 42863 42863 890
Width: 320
Flags: W
HStem: -196 21G<155 195> -46 21G<115 155> 426 20G<165 205> 426 20G<165 205>
VStem: 34 92<70.6892 295> 194 92<-85 13 37 329.311>
LayerCount: 2
Back
SplineSet
200 -150 m 25
 240 -110 l 1
 240 320 l 9
 160 400 l 1
 80 320 l 25
 80 80 l 25
 160 0 l 1049
EndSplineSet
Fore
SplineSet
194 37 m 1xcc
 194 295 l 2
 194 327 152 337 135 354 c 1
 126 345 l 1
 126 105 l 2
 126 73 168 63 185 46 c 2
 194 37 l 1xcc
194 13 m 1
 135 -46 l 1
 34 55 l 1
 34 295 l 1
 185 446 l 1xec
 286 345 l 1
 286 -85 l 1
 175 -196 l 1
 154 -175 l 1
 194 -135 l 1
 194 13 l 1
EndSplineSet
EndChar
StartChar: lum
Encoding: 42866 42866 573
Width: 340
Flags: W
HStem: -196 21G<55 95> -46 21G<55 95.5128 212.5 224> 651 20G<65 105>
VStem: 34 92<47 580> 174 92<77 167>
LayerCount: 2
Back
SplineSet
180 225 m 1
 220 200 l 1
 220 200 220 139 220 100 c 27
 220 3 100 -150 100 -150 c 1025
300 50 m 17
 300 50 285 0 240 0 c 3
 165 0 140 40 140 40 c 9
 100 0 l 25
 60 40 l 1025
60 625 m 25
 100 585 l 1049
80 605 m 9
 80 20 l 1049
EndSplineSet
Fore
SplineSet
14 600 m 1
 85 671 l 1
 105 651 l 1
 126 630 l 1
 146 610 l 1
 126 590 l 1
 126 47 l 1
 165 86 l 1
 174 77 l 1
 174 167 l 1
 155 179 l 1
 134 200 l 1
 205 271 l 1
 245 246 l 1
 266 225 l 1
 266 125 l 2
 266 101 259 74 248 47 c 1
 253 47 259 46 265 46 c 0
 269 46 271 46 276 47 c 2
 325 96 l 1
 346 75 l 1
 346 75 341 57 326 42 c 2
 255 -29 l 2
 246 -38 233 -46 215 -46 c 0
 210 -46 206 -45 201 -45 c 1
 173 -91 146 -125 146 -125 c 2
 75 -196 l 1
 54 -175 l 1
 54 -175 108 -105 144 -30 c 1
 134 -24 127 -19 122 -14 c 2
 115 -7 l 1
 75 -46 l 1
 55 -26 l 1
 14 15 l 1
 34 35 l 1
 34 580 l 1
 14 600 l 1
EndSplineSet
EndChar
StartChar: num
Encoding: 42868 42868 597
Width: 500
Flags: W
HStem: -196 21G<215 255> -46 21G<55 95 215 255.513 372.5 384> 426 20G<65 105 185 225> 426 20G<65 105 185 225>
VStem: 34 92<45 325> 194 92<47 342.1> 334 92<77 167>
LayerCount: 2
Back
SplineSet
340 225 m 1
 380 200 l 1
 380 200 380 139 380 100 c 27
 380 3 260 -150 260 -150 c 1025
460 50 m 17
 460 50 445 0 400 0 c 3
 325 0 300 40 300 40 c 1
 260 0 l 25
 220 40 l 1025
240 20 m 1
 240 340 l 25
 180 400 l 1
 80 300 l 1049
60 40 m 25
 100 0 l 1049
100 360 m 25
 60 400 l 1049
80 380 m 9
 80 20 l 1025
EndSplineSet
Fore
SplineSet
485 96 m 1xee
 506 75 l 1
 506 75 501 57 486 42 c 2
 415 -29 l 2
 406 -38 393 -46 375 -46 c 0
 370 -46 366 -45 361 -45 c 1
 333 -91 306 -125 306 -125 c 2
 235 -196 l 1
 214 -175 l 1
 214 -175 268 -105 304 -30 c 1
 294 -24 287 -19 282 -14 c 2
 275 -7 l 1
 235 -46 l 1
 215 -26 l 1
 194 -5 l 1
 174 15 l 1
 194 35 l 1
 194 315 l 2
 194 335 166 343 155 354 c 1
 126 325 l 1
 126 45 l 1
 146 25 l 1
 75 -46 l 1
 55 -26 l 1
 34 -5 l 1
 14 15 l 1
 34 35 l 1
 34 275 l 1
 34 355 l 1
 14 375 l 1
 85 446 l 1
 105 426 l 1
 126 405 l 1
 145 386 l 1
 205 446 l 1
 286 365 l 1
 286 47 l 1
 325 86 l 1
 334 77 l 1
 334 167 l 1
 315 179 l 1
 294 200 l 1
 365 271 l 1
 405 246 l 1
 426 225 l 1
 426 125 l 2
 426 101 419 74 408 47 c 1
 413 47 419 46 425 46 c 0
 429 46 431 46 436 47 c 2
 485 96 l 1xee
EndSplineSet
EndChar
StartChar: Rumsmallcap
Encoding: 42870 42870 858
Width: 520
Flags: W
HStem: -196 21G<235 275> -46 21G<55 95 235 275.513 392.5 404> 426 20G<65 105 165 209> 426 20G<65 105 165 209>
VStem: 34 92<45 143 167 345> 354 92<77 167>
LayerCount: 2
Back
SplineSet
360 225 m 1
 400 200 l 1
 400 200 400 139 400 100 c 27
 400 3 280 -150 280 -150 c 1025
480 50 m 17
 480 50 465 0 420 0 c 3
 345 0 320 40 320 40 c 9
 280 0 l 1
 280 0 263 79 240 125 c 24
 223 159 180 200 180 200 c 1025
60 40 m 25
 100 0 l 1049
60 400 m 25
 100 360 l 1049
80 380 m 9
 80 20 l 1025
160 180 m 1
 280 300 l 1
 160 400 l 1
 80 320 l 1049
EndSplineSet
Fore
SplineSet
14 375 m 1xec
 85 446 l 1
 105 426 l 1
 126 405 l 1
 135 396 l 1
 185 446 l 1
 305 346 l 1
 326 325 l 1
 226 225 l 1
 230 221 l 2
 241 210 272 177 286 150 c 0
 299 123 311 86 318 59 c 1
 345 86 l 1
 354 77 l 1
 354 167 l 1
 335 179 l 1
 314 200 l 1
 385 271 l 1
 425 246 l 1
 446 225 l 1
 446 125 l 2
 446 101 439 74 428 47 c 1
 433 47 439 46 445 46 c 0
 449 46 451 46 456 47 c 2
 505 96 l 1
 526 75 l 1
 526 75 521 57 506 42 c 2
 435 -29 l 2
 426 -38 413 -46 395 -46 c 0
 390 -46 386 -45 381 -45 c 1
 353 -91 326 -125 326 -125 c 2
 255 -196 l 1
 234 -175 l 1
 234 -175 288 -105 324 -30 c 1
 314 -24 307 -19 302 -14 c 2
 295 -7 l 1
 255 -46 l 1
 234 -25 l 1
 234 -25 217 54 194 100 c 0
 185 118 168 139 155 154 c 1
 135 134 l 1
 126 143 l 1
 126 45 l 1
 146 25 l 1
 75 -46 l 1
 55 -26 l 1
 14 15 l 1
 34 35 l 1
 34 295 l 1
 34 355 l 1
 14 375 l 1xec
126 167 m 1
 164 205 l 1
 205 246 l 1
 232 273 l 1
 135 354 l 2
 135 354 128 347 126 345 c 2
 126 167 l 1
EndSplineSet
EndChar
StartChar: um
Encoding: 42872 42872 958
Width: 320
Flags: W
HStem: -196 21G<35 75> -46 21G<-5 34 126 155> 426 20G<165 205 299 325> 426 20G<165 205 299 325>
VStem: 34 92<-125 -37 275 295>
LayerCount: 2
Back
SplineSet
80 -150 m 25
 80 -92 80 -58 80 0 c 3
 80 141 280 400 280 400 c 1
 280 400 242 360 220 360 c 0
 185 360 160 400 160 400 c 9
 80 320 l 1
 80 240 l 1
 240 160 l 1
 240 80 l 1
 160 0 l 17
 160 0 128 40 100 40 c 24
 72 40 40 0 40 0 c 1025
EndSplineSet
Fore
SplineSet
155 261 m 1xc8
 167 280 180 299 190 314 c 1
 173 316 160 326 150 336 c 2
 134 352 l 1
 126 345 l 1
 126 275 l 1
 155 261 l 1xc8
135 84 m 0
 139 83 142 82 145 80 c 0
 156 74 166 65 173 58 c 0
 185 46 l 1
 194 55 l 1
 194 125 l 1
 156 144 l 1
 148 124 140 103 135 84 c 0
55 -196 m 1
 34 -175 l 1
 34 -27 l 1
 15 -46 l 1
 -6 -25 l 2
 -6 -25 -3 -20 4 -13 c 2
 5 -13 l 2
 40 22 l 1
 49 59 65 101 85 141 c 0
 90 151 96 161 101 171 c 1
 55 194 l 1
 34 215 l 1
 34 295 l 1
 185 446 l 1
 206 425 l 2
 206 425 207 423 210 419 c 0
 219 412 232 406 245 406 c 0
 262 406 287 430 299 441 c 2
 305 446 l 1xe8
 326 425 l 1
 326 425 272 354 220 267 c 0
 214 257 208 247 202 237 c 1
 265 206 l 1
 286 185 l 1
 286 105 l 1
 135 -46 l 1
 126 -37 l 1
 126 -125 l 1
 55 -196 l 1
EndSplineSet
EndChar
StartChar: kbar_longs
Encoding: 59336 59336 962
Width: 340
Flags: W
HStem: -196 92<-67 -8.5> -46 21G<235 275> 451 20G<245 285> 564 92<206 272.5>
VStem: 54 92<-151.691 220 266 429 521 545> 214 92<45 174 375 380>
LayerCount: 2
Back
SplineSet
-100 -200 m 17
 -100 -200 -70 -150 -40 -150 c 8
 -3 -150 3 -200 40 -200 c 24
 70 -200 100 -150 100 -150 c 1
 100 570 l 1
 180 650 l 17
 180 650 212 610 240 610 c 24
 268 610 300 650 301 650 c 1033
240 40 m 25
 280 0 l 1049
180 275 m 1
 260 200 l 1
 260 20 l 1025
100 200 m 1
 260 350 l 9
 260 405 l 1049
240 425 m 25
 280 385 l 1049
160 475 m 25
 20 475 l 1049
EndSplineSet
Fore
SplineSet
194 400 m 1
 265 471 l 1
 326 410 l 1
 306 390 l 1
 306 375 l 1
 235 304 l 1
 229 298 l 1
 285 246 l 1
 306 225 l 1
 306 45 l 1
 326 25 l 1
 255 -46 l 1
 235 -26 l 1
 225 -15 l 1
 194 15 l 1
 214 35 l 1
 214 174 l 1
 155 229 l 1
 146 220 l 1
 146 -125 l 1
 146 -125 136 -141 122 -155 c 2
 52 -226 l 2
 41 -237 28 -246 15 -246 c 0
 2 -246 -7 -240 -15 -232 c 2
 -36 -211 l 2
 -39 -208 -42 -206 -44 -203 c 0
 -50 -199 -57 -196 -65 -196 c 0
 -69 -196 -73 -197 -78 -199 c 2
 -125 -246 l 1
 -146 -225 l 1
 -146 -225 -136 -209 -122 -195 c 2
 -52 -124 l 2
 -51 -123 l 0
 -40 -112 -28 -104 -15 -104 c 0
 -2 -104 7 -110 15 -118 c 2
 36 -139 l 2
 37 -140 l 0
 39 -142 42 -145 44 -147 c 0
 47 -149 51 -151 54 -152 c 2
 54 175 l 1
 54 429 l 1
 -5 429 l 1
 -26 450 l 1
 45 521 l 1
 54 521 l 1
 54 545 l 1
 205 696 l 1
 226 675 l 1
 227 674 l 0
 238 664 252 656 265 656 c 0
 280 656 297 668 308 678 c 2
 325 696 l 2
 326 696 l 2
 347 675 l 1
 345 672 l 2
 343 670 341 668 338 665 c 2
 337 664 l 2
 266 594 l 2
 254 582 234 564 215 564 c 0
 197 564 179 580 167 592 c 0
 155 604 l 1
 146 595 l 1
 146 521 l 1
 185 521 l 1
 206 500 l 1
 146 440 l 1
 146 266 l 1
 166 284 185 303 205 321 c 0
 208 324 211 327 214 330 c 2
 214 380 l 1
 194 400 l 1
EndSplineSet
LCarets2: 1 180 
Ligature2: "Historic ligatures-1" kbar longs
EndChar
StartChar: q_v
Encoding: 60113 60113 967
Width: 480
Flags: W
HStem: -196 21G<195 235> -46 21G<115 155 286 315> 426 170G<165 205 245 285 408.282 449> 426 20G<165 205 245 285>
VStem: 34 92<105 295> 194 92<-125 -37 105 330> 314 92<430.36 498.381> 354 92<105 385.86>
LayerCount: 2
Back
SplineSet
240 80 m 9
 160 0 l 25
 80 80 l 25
 80 320 l 25
 160 400 l 1
 160 400 180 368 200 368 c 24
 220 368 240 400 240 400 c 9
 240 -150 l 1049
240 80 m 1
 320 0 l 25
 400 80 l 1
 400 380 l 17
 400 380 360 423 360 472 c 8
 360 507 404 550 404 550 c 1033
EndSplineSet
Fore
SplineSet
194 13 m 1xed
 135 -46 l 1
 34 55 l 1
 34 295 l 1
 185 446 l 1
 206 425 l 1
 206 425 208 422 210 419 c 0
 215 416 220 414 225 414 c 0
 229 414 233 416 236 417 c 2
 265 446 l 1
 286 425 l 1
 286 105 l 1
 345 46 l 1
 354 55 l 1
 354 355 l 1xdd
 354 355 314 398 314 447 c 0
 314 480 354 521 358 525 c 2
 428 596 l 2
 429 596 l 1
 450 575 l 1
 443 567 406 529 406 497 c 0xee
 406 448 446 405 446 405 c 1
 446 105 l 1
 295 -46 l 1
 286 -37 l 1
 286 -125 l 1
 215 -196 l 1
 194 -175 l 1
 194 13 l 1xed
194 55 m 1
 194 330 l 1
 188 325 182 322 175 322 c 0
 166 322 157 328 150 335 c 0
 150 336 l 2
 133 352 l 1
 126 345 l 1
 126 105 l 1
 185 46 l 1
 194 55 l 1
EndSplineSet
LCarets2: 1 240 
Ligature2: "Ligatures-1" q v
EndChar
StartChar: g_p
Encoding: 60114 60114 501
Width: 480
Flags: W
HStem: -196 92<73 131.5> -46 21G<95 135 155 184 286 315> 426 20G<165 205 245 285 325 365> 426 20G<165 205 245 285 325 365>
VStem: 34 92<105 295> 194 92<-125 -37 77.4332 330> 354 92<105 329.311>
CounterMasks: 1 0e
LayerCount: 2
Back
SplineSet
200 0 m 5
 200 0 237 40 260 40 c 4
 283 40 320 0 320 0 c 9
 400 80 l 5
 400 320 l 25
 320 400 l 1
 240 320 l 1049
40 -200 m 17
 40 -200 70 -150 100 -150 c 8
 137 -150 143 -200 180 -200 c 24
 210 -200 240 -150 240 -150 c 9
 240 400 l 1
 240 400 220 368 200 368 c 24
 180 368 160 400 160 400 c 1
 80 320 l 25
 80 80 l 29
 140 0 l 5
 240 100 l 1053
240 -150 m 9
 280 -200 l 1025
EndSplineSet
Fore
SplineSet
194 330 m 1xce
 188 325 182 322 175 322 c 0
 166 322 157 329 150 336 c 2
 133 352 l 1
 126 345 l 1
 126 105 l 1
 168 49 l 1
 194 75 l 1
 194 295 l 1
 194 330 l 1xce
194 33 m 1
 115 -46 l 1
 94 -25 l 1
 34 55 l 1
 34 295 l 1
 185 446 l 1
 206 425 l 1
 206 425 208 422 210 419 c 0
 214 416 220 414 225 414 c 0
 229 414 232 415 236 417 c 2
 265 446 l 1
 286 425 l 1
 286 387 l 1
 345 446 l 1xee
 446 345 l 1
 446 105 l 1
 295 -46 l 1
 286 -37 l 2
 286 -125 l 1
 326 -175 l 1
 255 -246 l 1
 234 -225 l 1
 216 -202 l 1
 192 -226 l 2
 181 -237 168 -246 155 -246 c 0
 142 -246 133 -240 125 -232 c 2
 104 -211 l 2
 101 -208 98 -206 96 -203 c 0
 90 -199 83 -196 75 -196 c 0
 71 -196 67 -197 62 -199 c 2
 15 -246 l 1
 -6 -225 l 1
 -6 -225 4 -209 18 -195 c 2
 88 -124 l 2
 89 -123 l 0
 100 -112 112 -104 125 -104 c 0
 138 -104 147 -110 155 -118 c 2
 176 -139 l 2
 177 -140 l 0
 179 -142 182 -145 184 -147 c 0
 187 -149 191 -151 194 -152 c 2
 194 -28 l 2
 190 -31 187 -34 184 -37 c 2
 175 -46 l 1
 154 -25 l 1
 154 -25 156 -23 159 -20 c 2
 194 15 l 1
 194 33 l 1
286 345 m 1
 286 86 l 1
 304 85 330 60 340 50 c 2
 345 46 l 1
 354 55 l 1
 354 295 l 2
 354 327 312 337 295 354 c 1
 286 345 l 1
EndSplineSet
LCarets2: 1 240 
Ligature2: "Historic ligatures-1" g p
EndChar
StartChar: longs_longs_i
Encoding: 60327 60327 331
Width: 520
GlyphClass: 3
Flags: W
HStem: -196 92<-67 -8.5> -46 21G<415 455> 426 20G<425 465> 426 20G<425 465> 514 21G<395 435>
VStem: 54 92<-124.417 545> 214 92<-150.996 551.891> 394 92<47 355>
LayerCount: 2
Back
SplineSet
100 -150 m 1
 125 -150 174 -200 200 -200 c 0
 222 -200 260 -150 260 -150 c 1
 260 570 l 1
 340 650 l 17
 340 650 400 600 480 600 c 1
 440 560 l 1025
-100 -200 m 1
 -100 -200 -70 -150 -40 -150 c 8
 -3 -150 3 -200 40 -200 c 24
 70 -200 100 -150 100 -150 c 1
 100 570 l 1
 180 650 l 1
 180 650 225 570 260 570 c 1025
420 400 m 25
 460 360 l 1025
440 380 m 9
 440 20 l 1025
420 40 m 25
 460 0 l 25
 500 40 l 1049
EndSplineSet
Fore
SplineSet
374 375 m 1xef
 445 446 l 1
 465 426 l 1
 486 405 l 1
 506 385 l 1
 486 365 l 1
 486 47 l 1
 525 86 l 1
 546 65 l 1
 435 -46 l 1
 415 -26 l 1
 405 -15 l 1
 374 15 l 1
 394 35 l 1
 394 355 l 1
 374 375 l 1xef
-125 -246 m 1
 -146 -225 l 1
 -146 -225 -136 -209 -122 -195 c 2
 -52 -124 l 2
 -51 -123 l 0
 -40 -112 -28 -104 -15 -104 c 0
 -2 -104 7 -110 15 -118 c 2
 36 -139 l 2
 37 -140 l 0
 39 -142 42 -145 44 -147 c 0
 47 -149 51 -151 54 -152 c 2
 54 545 l 1
 205 696 l 1
 226 675 l 1
 226 675 241 649 259 627 c 0
 268 620 277 616 285 616 c 1
 365 696 l 1
 365 696 425 646 505 646 c 1
 526 625 l 1
 415 514 l 1
 394 535 l 1
 417 558 l 1
 358 570 315 604 315 604 c 1
 306 595 l 1
 306 -125 l 2
 306 -125 297 -138 284 -151 c 2
 283 -152 l 2
 212 -223 l 2
 200 -235 186 -246 175 -246 c 0
 151 -246 107 -203 81 -197 c 1
 52 -226 l 2
 41 -237 28 -246 15 -246 c 0
 2 -246 -7 -240 -15 -232 c 2
 -36 -211 l 2
 -39 -208 -42 -206 -44 -203 c 0
 -50 -199 -57 -196 -65 -196 c 0
 -69 -196 -73 -197 -78 -199 c 2
 -125 -246 l 1
214 532 m 1
 209 535 204 540 199 545 c 2
 178 566 l 2
 168 576 159 588 151 599 c 1
 146 595 l 1
 146 -111 l 1
 168 -123 194 -145 214 -152 c 1
 214 532 l 1
EndSplineSet
LCarets2: 2 240 400 
Ligature2: "Ligatures-1" longs longs i
EndChar
StartChar: longs_t_r
Encoding: 60330 60330 713
Width: 560
Flags: W
HStem: -196 92<-67 -8.5> -46 21G<255 295 375 415> 354 92<306 354> 426 20G<485 525>
VStem: 54 92<-151.691 545> 214 92<46.2344 354 446 535.734> 354 92<75 345>
LayerCount: 2
Back
SplineSet
520 360 m 25
 480 400 l 25
 400 320 l 1049
380 40 m 25
 420 0 l 1049
400 380 m 9
 400 20 l 1025
-100 -200 m 1
 -100 -200 -70 -150 -40 -150 c 8
 -3 -150 3 -200 40 -200 c 24
 70 -200 100 -150 100 -150 c 1
 100 570 l 1
 180 650 l 1
 180 650 225 550 260 550 c 1
 260 40 l 1
 300 0 l 1
 380 80 l 1025
200 400 m 1
 380 400 l 25
 420 360 l 1025
EndSplineSet
Fore
SplineSet
-125 -246 m 1xee
 -146 -225 l 1
 -146 -225 -136 -209 -122 -195 c 2
 -52 -124 l 2
 -51 -123 l 0
 -40 -112 -28 -104 -15 -104 c 0
 -2 -104 7 -110 15 -118 c 2
 36 -139 l 2
 37 -140 l 0
 39 -142 42 -145 44 -147 c 0
 47 -149 51 -151 54 -152 c 2
 54 545 l 1
 205 696 l 1
 226 675 l 1
 226 675 246 631 269 602 c 0
 275 598 280 596 285 596 c 2
 306 575 l 1
 306 446 l 1xee
 405 446 l 1
 425 426 l 1
 435 415 l 1
 455 396 l 1
 505 446 l 1xde
 566 385 l 1
 495 314 l 1
 455 354 l 1
 446 345 l 1
 446 45 l 1
 466 25 l 1
 395 -46 l 1
 375 -26 l 1
 354 -5 l 1
 335 14 l 1
 275 -46 l 1
 214 15 l 1
 214 354 l 1
 175 354 l 1
 154 375 l 1
 214 435 l 1
 214 514 l 2
 212 515 211 517 209 519 c 2
 188 540 l 2
 173 555 158 578 148 597 c 1
 146 595 l 1
 146 -125 l 1
 146 -125 136 -141 122 -155 c 2
 52 -226 l 2
 41 -237 28 -246 15 -246 c 0
 2 -246 -7 -240 -15 -232 c 2
 -36 -211 l 2
 -39 -208 -42 -206 -44 -203 c 0
 -50 -199 -57 -196 -65 -196 c 0
 -69 -196 -73 -197 -78 -199 c 2
 -125 -246 l 1xee
306 354 m 1
 306 65 l 2
 306 56 320 51 325 46 c 1
 354 75 l 1
 354 295 l 1
 354 354 l 1
 306 354 l 1
EndSplineSet
LCarets2: 2 240 400 
Ligature2: "Ligatures-1" longs t r
EndChar
StartChar: b_g
Encoding: 61123 61123 350
Width: 320
GlyphClass: 3
Flags: W
HStem: -196 92<73 131.5> -46 21G<115 155> 426 20G<165 205> 426 20G<165 205> 651 20G<65 105>
VStem: 34 92<70.6892 345 387 580> 194 92<-151.691 13 55 329.311>
LayerCount: 2
Back
SplineSet
80 605 m 9
 80 80 l 29
 160 0 l 1
 240 80 l 29
 240 320 l 1
 160 400 l 1
 80 320 l 1049
40 -200 m 17
 40 -200 70 -150 100 -150 c 8
 137 -150 143 -200 180 -200 c 24
 210 -200 240 -150 240 -150 c 1
 240 80 l 1037
60 625 m 25
 100 585 l 1049
EndSplineSet
Fore
SplineSet
14 600 m 1xee
 85 671 l 1
 105 651 l 1
 126 630 l 1
 146 610 l 1
 126 590 l 1
 126 387 l 1
 185 446 l 1
 286 345 l 1
 286 105 l 1
 286 -125 l 1
 286 -125 276 -141 262 -155 c 2
 192 -226 l 2
 181 -237 168 -246 155 -246 c 0
 142 -246 133 -240 125 -232 c 2
 104 -211 l 2
 101 -208 98 -206 96 -203 c 0
 90 -199 83 -196 75 -196 c 0
 71 -196 67 -197 62 -199 c 2
 15 -246 l 1
 -6 -225 l 1
 -6 -225 4 -209 18 -195 c 2
 88 -124 l 2
 89 -123 l 0
 100 -112 112 -104 125 -104 c 0
 138 -104 147 -110 155 -118 c 2
 176 -139 l 2
 177 -140 l 0
 179 -142 182 -145 184 -147 c 0
 187 -149 191 -151 194 -152 c 2
 194 13 l 1
 135 -46 l 1
 34 55 l 1
 34 580 l 1
 14 600 l 1xee
126 345 m 1
 126 105 l 2
 126 73 168 63 185 46 c 1
 194 55 l 1
 194 295 l 2
 194 327 152 337 135 354 c 1
 126 345 l 1
EndSplineSet
LCarets2: 1 160 
Ligature2: "Historic ligatures-1" b g
EndChar
StartChar: c_k
Encoding: 61124 61124 439
Width: 520
Flags: W
HStem: -46 21G<115 155 255 295 415 455> 426 20G<165 205> 446 5G<165 205 425 465> 651 20G<265 305>
VStem: 34 92<70.6892 295> 234 92<45 53 95 220 266 293 397 580> 394 92<45 174 375 380>
LayerCount: 2
Back
SplineSet
240 320 m 9
 160 400 l 25
 80 320 l 25
 80 80 l 25
 160 0 l 25
 240 80 l 1041
420 425 m 25
 460 385 l 1049
260 625 m 25
 300 585 l 1049
260 625 m 25
 300 585 l 1049
280 200 m 1
 440 350 l 9
 440 405 l 1049
360 275 m 1
 440 200 l 1
 440 20 l 1025
420 40 m 25
 460 0 l 1049
260 40 m 25
 300 0 l 1049
260 625 m 25
 300 585 l 1049
280 605 m 9
 280 20 l 1049
EndSplineSet
Fore
SplineSet
374 400 m 1xde
 445 471 l 1
 465 451 l 1xbe
 475 440 l 1
 506 410 l 1
 486 390 l 1
 486 375 l 1
 415 304 l 1
 409 298 l 1
 465 246 l 1
 486 225 l 1
 486 45 l 1
 506 25 l 1
 435 -46 l 1
 415 -26 l 1
 394 -5 l 1
 374 15 l 1
 394 35 l 1
 394 174 l 1
 335 229 l 1
 326 220 l 1
 326 45 l 1
 346 25 l 1
 275 -46 l 1
 255 -26 l 1
 234 -5 l 1
 214 15 l 1
 234 35 l 1
 234 53 l 1
 135 -46 l 1
 34 55 l 1
 34 295 l 1
 185 446 l 1
 234 397 l 1
 234 580 l 1
 214 600 l 1
 285 671 l 1
 305 651 l 1
 326 630 l 1
 346 610 l 1
 326 590 l 1
 326 266 l 1
 394 330 l 1
 394 380 l 1
 374 400 l 1xde
234 175 m 1
 234 293 l 1
 215 274 l 1
 135 354 l 1
 126 345 l 1
 126 105 l 2
 126 73 168 63 185 46 c 1
 234 95 l 1
 234 175 l 1
EndSplineSet
LCarets2: 1 280 
Ligature2: "Ligatures-1" c k
EndChar
StartChar: f_j
Encoding: 61129 61129 322
Width: 360
GlyphClass: 3
Flags: W
HStem: -196 92<-67 -8.5> 354 92<146 234> 514 21G<235 275>
VStem: 54 92<-151.691 354 446 545> 234 92<-85 354>
LayerCount: 2
Back
SplineSet
280 380 m 1
 280 -110 l 9
 240 -150 l 1049
40 400 m 1
 260 400 l 25
 300 360 l 1025
-100 -200 m 1
 -100 -200 -70 -150 -40 -150 c 8
 -3 -150 3 -200 40 -200 c 24
 70 -200 100 -150 100 -150 c 1
 100 570 l 1
 180 650 l 1
 180 650 240 600 320 600 c 13
 280 560 l 1029
EndSplineSet
Fore
SplineSet
-125 -246 m 1
 -146 -225 l 1
 -146 -225 -136 -209 -122 -195 c 2
 -52 -124 l 2
 -51 -123 l 0
 -40 -112 -28 -104 -15 -104 c 0
 -2 -104 7 -110 15 -118 c 2
 36 -139 l 2
 37 -140 l 0
 39 -142 42 -145 44 -147 c 0
 47 -149 51 -151 54 -152 c 2
 54 354 l 1
 15 354 l 1
 -6 375 l 1
 54 435 l 1
 54 545 l 1
 205 696 l 1
 205 696 265 646 345 646 c 1
 366 625 l 1
 255 514 l 1
 234 535 l 1
 257 558 l 1
 198 570 155 604 155 604 c 1
 146 595 l 1
 146 446 l 1
 285 446 l 1
 305 426 l 1
 326 405 l 1
 346 385 l 1
 326 365 l 1
 326 -85 l 1
 215 -196 l 1
 194 -175 l 1
 234 -135 l 1
 234 354 l 1
 146 354 l 1
 146 -125 l 1
 146 -125 136 -141 122 -155 c 2
 52 -226 l 2
 41 -237 28 -246 15 -246 c 0
 2 -246 -7 -240 -15 -232 c 2
 -36 -211 l 2
 -39 -208 -42 -206 -44 -203 c 0
 -50 -199 -57 -196 -65 -196 c 0
 -69 -196 -73 -197 -78 -199 c 2
 -125 -246 l 1
EndSplineSet
LCarets2: 1 240 
Ligature2: "Ligatures-1" f j
EndChar
StartChar: p_p
Encoding: 61142 61142 689
Width: 480
Flags: W
HStem: -196 21G<35 75 195 235> -46 21G<-5 24 126 144 286 315> 426 20G<65 105 165 205 325 365> 426 20G<65 105 165 205 325 365>
VStem: 34 92<-125 -37 77.976 345> 194 92<-125 -37 73.9146 295> 354 92<105 295>
CounterMasks: 1 0e
LayerCount: 2
Back
SplineSet
240 -150 m 1
 240 320 l 9
 320 400 l 1
 400 320 l 25
 400 80 l 1
 320 0 l 1
 320 0 293 40 220 40 c 0
 197 40 160 0 160 0 c 1
 160 0 123 40 100 40 c 0
 77 40 40 0 40 0 c 1025
240 320 m 25
 160 400 l 1
 80 320 l 1049
60 400 m 25
 100 360 l 1049
80 380 m 1
 80 -150 l 1025
EndSplineSet
Fore
SplineSet
14 375 m 1xee
 85 446 l 1
 105 426 l 1
 126 405 l 1
 135 396 l 1
 185 446 l 1
 265 366 l 1
 345 446 l 1
 446 345 l 1
 446 105 l 1
 295 -46 l 1
 286 -37 l 1
 286 -125 l 1
 215 -196 l 1
 194 -175 l 1
 194 -6 l 1
 178 -7 156 -26 144 -37 c 2
 135 -46 l 1
 126 -37 l 2
 126 -125 l 1
 55 -196 l 1
 34 -175 l 1
 34 -28 l 2
 30 -31 27 -34 24 -37 c 2
 15 -46 l 1
 -6 -25 l 2
 -6 -25 -5 -24 -2 -21 c 2
 -1 -20 l 2
 34 15 l 1
 34 295 l 1
 34 355 l 1
 14 375 l 1xee
286 81 m 1
 314 74 331 61 339 53 c 0
 345 46 l 1
 354 55 l 1
 354 295 l 1
 295 354 l 1
 286 345 l 1
 286 81 l 1
126 345 m 1
 126 86 l 1
 144 85 169 62 180 51 c 0
 180 50 l 2
 185 46 l 1
 189 51 l 2
 190 52 192 53 194 55 c 2
 194 295 l 1
 135 354 l 1
 126 345 l 1
EndSplineSet
LCarets2: 1 240 
Ligature2: "Historic ligatures-1" p p
EndChar
StartChar: pfluorish_p
Encoding: 61143 61143 879
Width: 560
Flags: W
HStem: -196 21G<-25 2 115 155 275 315> -46 21G<206 224 366 395> 426 20G<145 185 245 285 405 445> 426 20G<145 185 245 285 405 445>
VStem: 14 92<-102.785 36.3451> 114 92<-125 -37 140 345> 274 92<-125 -37 73.9146 295> 434 92<105 295>
LayerCount: 2
Back
SplineSet
320 -150 m 1
 320 320 l 9
 400 400 l 1
 480 320 l 25
 480 80 l 1
 400 0 l 1
 400 0 373 40 300 40 c 0
 277 40 240 0 240 0 c 1
 240 0 186 100 20 100 c 1
 20 100 60 44 60 0 c 3
 60 -132 20 -150 20 -150 c 1033
320 320 m 25
 240 400 l 1
 160 320 l 1049
140 400 m 25
 180 360 l 1049
160 380 m 1
 160 -150 l 1025
EndSplineSet
Fore
SplineSet
94 375 m 1xef
 165 446 l 1
 185 426 l 1
 206 405 l 1
 215 396 l 1
 265 446 l 1
 345 366 l 1
 425 446 l 1
 526 345 l 1
 526 105 l 1
 375 -46 l 1
 366 -37 l 1
 366 -125 l 1
 295 -196 l 1
 274 -175 l 1
 274 -6 l 1
 258 -7 236 -26 224 -37 c 2
 215 -46 l 1
 206 -37 l 1
 206 -125 l 1
 135 -196 l 1
 114 -175 l 1
 114 33 l 2
 111 34 108 36 105 37 c 1
 106 33 106 29 106 25 c 0
 106 -74 83 -109 72 -120 c 2
 2 -191 l 2
 -2 -195 -5 -196 -5 -196 c 1
 -26 -175 l 1
 -13 -162 l 2
 -1 -145 14 -108 14 -25 c 0
 14 19 -26 75 -26 75 c 1
 45 146 l 1
 71 146 93 144 114 140 c 1
 114 295 l 1
 114 355 l 1
 94 375 l 1xef
366 81 m 1
 394 74 411 61 419 53 c 0
 425 46 l 1
 434 55 l 1
 434 295 l 1
 375 354 l 1
 366 345 l 1
 366 81 l 1
206 345 m 1
 206 104 l 1
 221 94 232 84 241 75 c 2
 263 54 l 2
 265 52 266 51 268 49 c 2
 269 51 l 2
 270 52 272 53 274 55 c 2
 274 295 l 1
 215 354 l 1
 206 345 l 1
EndSplineSet
LCarets2: 1 320 
Ligature2: "Ligatures-1" pflourish p
EndChar
StartChar: t_z
Encoding: 61148 61148 732
Width: 440
Flags: W
HStem: -196 92<193 253.5> -46 21G<95 135> 304 92<146.705 260.933> 426 20G<328 365> 576 20G<105 145 328 365>
VStem: 54 92<46.2344 305 435 525> 314 92<-150.779 72>
LayerCount: 2
Back
SplineSet
40 400 m 1
 40 400 61 350 200 350 c 0
 285 350 320 400 320 400 c 1
 360 360 l 1
 240 200 l 1
 360 100 l 1
 360 -150 l 1
 360 -150 322 -200 300 -200 c 0
 274 -200 257 -150 220 -150 c 16
 190 -150 160 -200 160 -200 c 1033
100 550 m 1
 100 40 l 1
 140 0 l 1
 220 80 l 1025
EndSplineSet
Fore
SplineSet
125 596 m 1
 146 575 l 1
 146 403 l 1
 167 399 193 396 225 396 c 0
 277 396 311 415 328 429 c 2
 345 446 l 1
 406 385 l 1
 288 227 l 1
 385 146 l 1
 406 125 l 1
 406 -125 l 1
 406 -125 396 -139 383 -152 c 2
 312 -223 l 2
 300 -235 286 -246 275 -246 c 0
 265 -246 258 -240 249 -231 c 2
 229 -211 l 2
 219 -202 209 -196 195 -196 c 0
 191 -196 186 -197 182 -199 c 2
 135 -246 l 1
 114 -225 l 1
 114 -225 124 -209 138 -195 c 2
 208 -124 l 2
 219 -113 232 -104 245 -104 c 0
 262 -104 274 -114 285 -125 c 0
 286 -126 l 2
 304 -144 l 2
 307 -147 311 -149 314 -151 c 2
 314 72 l 1
 215 154 l 1
 194 175 l 1
 314 335 l 1
 296 354 l 1
 288 346 l 2
 274 332 238 304 175 304 c 0
 165 304 155 304 146 305 c 1
 146 65 l 2
 146 56 160 51 165 46 c 1
 245 126 l 1
 266 105 l 1
 115 -46 l 1
 54 15 l 1
 54 324 l 1
 39 331 29 337 23 343 c 2
 23 344 l 2
 2 365 l 2
 -4 371 -6 375 -6 375 c 1
 54 435 l 1
 54 525 l 1
 125 596 l 1
EndSplineSet
LCarets2: 1 240 
Ligature2: "Ligatures-1" t z
EndChar
StartChar: a_f
Encoding: 61347 61347 337
Width: 380
GlyphClass: 3
Flags: W
HStem: -196 92<73 131.5> -46 21G<95 135> 354 92<165 194 286 315> 564 92<346 412.5>
VStem: 34 92<85 165> 194 92<-151.691 33 75 179 276 354 446 545>
LayerCount: 2
Back
SplineSet
240 100 m 9
 140 0 l 1
 80 60 l 1
 80 190 l 1
 140 250 l 1
 140 250 155 225 200 225 c 3
 215 225 240 225 240 225 c 1033
40 -200 m 17
 40 -200 70 -150 100 -150 c 8
 137 -150 143 -200 180 -200 c 24
 210 -200 240 -150 240 -150 c 1
 240 570 l 1
 320 650 l 17
 320 650 352 610 380 610 c 24
 408 610 440 650 441 650 c 1033
340 400 m 1
 140 400 l 17
 80 340 l 1
 100 280 l 1033
EndSplineSet
Fore
SplineSet
386 425 m 1
 315 354 l 1
 286 354 l 1
 286 250 l 1
 286 125 l 1
 286 -125 l 1
 286 -125 276 -141 262 -155 c 2
 192 -226 l 2
 181 -237 168 -246 155 -246 c 0
 142 -246 133 -240 125 -232 c 2
 104 -211 l 2
 101 -208 98 -206 96 -203 c 0
 90 -199 83 -196 75 -196 c 0
 71 -196 67 -197 62 -199 c 2
 15 -246 l 1
 -6 -225 l 1
 -6 -225 4 -209 18 -195 c 2
 88 -124 l 2
 89 -123 l 0
 100 -112 112 -104 125 -104 c 0
 138 -104 147 -110 155 -118 c 2
 176 -139 l 2
 177 -140 l 0
 179 -142 182 -145 184 -147 c 0
 187 -149 191 -151 194 -152 c 2
 194 33 l 1
 115 -46 l 1
 34 35 l 1
 34 165 l 1
 165 296 l 1
 176 285 l 2
 181 282 186 279 194 276 c 1
 194 354 l 1
 130 354 l 1
 146 305 l 1
 75 234 l 1
 54 255 l 1
 34 315 l 1
 165 446 l 1
 194 446 l 1
 194 545 l 1
 345 696 l 1
 366 675 l 1
 367 674 l 0
 378 664 392 656 405 656 c 0
 420 656 437 668 448 678 c 2
 465 696 l 2
 466 696 l 2
 487 675 l 1
 485 672 l 2
 483 670 480 667 477 664 c 2
 406 594 l 2
 394 582 374 564 355 564 c 0
 337 564 319 580 307 592 c 0
 306 592 l 2
 295 604 l 1
 286 595 l 1
 286 446 l 1
 365 446 l 1
 386 425 l 1
194 75 m 1
 194 179 l 1
 175 179 l 2
 150 179 135 187 126 193 c 1
 126 85 l 1
 165 46 l 1
 194 75 l 1
EndSplineSet
LCarets2: 1 240 
Ligature2: "Historic ligatures-1" a f
EndChar
StartChar: a_g
Encoding: 61349 61349 338
Width: 480
GlyphClass: 3
Flags: W
HStem: -196 92<233 291.5> -46 21G<95 135 275 315> 426 20G<145 245 325 365 405 445> 426 20G<145 245 325 365 405 445>
VStem: 34 92<85 165> 194 92<75 179 276 334> 354 92<-151.691 13 55 330>
CounterMasks: 1 0e
LayerCount: 2
Back
SplineSet
100 280 m 17
 80 340 l 1
 140 400 l 1
 240 375 l 1
 240 100 l 9
 140 0 l 1
 80 60 l 1
 80 190 l 1
 140 250 l 1
 140 250 155 225 200 225 c 3
 215 225 240 225 240 225 c 1033
200 -200 m 17
 200 -200 230 -150 260 -150 c 8
 297 -150 303 -200 340 -200 c 24
 370 -200 400 -150 400 -150 c 9
 400 400 l 1
 400 400 380 368 360 368 c 24
 340 368 320 400 320 400 c 1
 240 320 l 25
 240 80 l 25
 320 0 l 25
 400 80 l 1041
EndSplineSet
Fore
SplineSet
354 330 m 1xce
 348 325 342 322 335 322 c 0
 326 322 317 329 310 336 c 2
 293 352 l 1
 286 345 l 1
 286 125 l 1
 286 105 l 2
 286 73 328 63 345 46 c 1
 354 55 l 1
 354 330 l 1xce
354 13 m 1
 295 -46 l 1
 205 44 l 1
 115 -46 l 1
 34 35 l 1
 34 165 l 1
 165 296 l 1
 176 285 l 2
 181 281 186 279 194 276 c 1
 194 295 l 1
 194 334 l 1
 131 350 l 1
 146 305 l 1
 75 234 l 1
 54 255 l 1
 34 315 l 1
 165 446 l 1
 265 421 l 1
 286 400 l 1
 286 387 l 1
 345 446 l 1
 366 425 l 1
 366 425 368 422 370 419 c 0
 374 416 380 414 385 414 c 0
 389 414 392 415 396 417 c 2
 425 446 l 1xee
 446 425 l 1
 446 -125 l 1
 446 -125 436 -141 422 -155 c 2
 352 -226 l 2
 341 -237 328 -246 315 -246 c 0
 302 -246 293 -240 285 -232 c 2
 264 -211 l 2
 261 -208 258 -206 256 -203 c 0
 250 -199 243 -196 235 -196 c 0
 231 -196 227 -197 222 -199 c 2
 175 -246 l 1
 154 -225 l 1
 154 -225 164 -209 178 -195 c 2
 248 -124 l 2
 249 -123 l 0
 260 -112 272 -104 285 -104 c 0
 298 -104 307 -110 315 -118 c 2
 336 -139 l 2
 337 -140 l 0
 339 -142 342 -145 344 -147 c 0
 347 -149 351 -151 354 -152 c 2
 354 13 l 1
194 75 m 1
 194 179 l 1
 175 179 l 2
 150 179 135 187 126 193 c 1
 126 85 l 1
 165 46 l 1
 194 75 l 1
EndSplineSet
LCarets2: 1 240 
Ligature2: "Historic ligatures-1" a g
EndChar
StartChar: a_l
Encoding: 61350 61350 339
Width: 320
GlyphClass: 3
Flags: W
HStem: -46 21G<95 135 215 255> 426 20G<145 194> 426 20G<145 194> 651 20G<225 264.355>
VStem: 34 92<85 165> 194 92<75 179 276 334 439 580>
LayerCount: 2
Back
SplineSet
100 280 m 17
 80 340 l 1
 140 400 l 1
 240 375 l 1
 240 100 l 9
 140 0 l 1
 80 60 l 1
 80 190 l 1
 140 250 l 1
 140 250 155 225 200 225 c 3
 215 225 240 225 240 225 c 1033
220 40 m 25
 260 0 l 25
 300 40 l 1049
220 625 m 25
 260 585 l 1049
240 605 m 9
 240 20 l 1049
EndSplineSet
Fore
SplineSet
174 600 m 1xdc
 245 671 l 1
 275 640 l 1
 286 630 l 1
 306 610 l 1
 286 590 l 1
 286 400 l 1
 286 125 l 1
 286 47 l 1
 325 86 l 1
 346 65 l 1
 235 -46 l 1
 215 -26 l 1
 194 -5 l 1
 175 14 l 1
 115 -46 l 1
 34 35 l 1
 34 165 l 1
 165 296 l 1
 176 285 l 2
 181 281 186 279 194 276 c 1
 194 334 l 1
 131 350 l 1
 146 305 l 1
 75 234 l 1
 54 255 l 1
 34 315 l 1
 165 446 l 1
 194 439 l 1
 194 580 l 1
 174 600 l 1xdc
194 75 m 1
 194 179 l 1
 175 179 l 2
 150 179 135 187 126 193 c 1
 126 85 l 1
 165 46 l 1
 194 75 l 1
EndSplineSet
LCarets2: 1 160 
Ligature2: "Historic ligatures-1" a l
EndChar
StartChar: a_n
Encoding: 61351 61351 340
Width: 480
GlyphClass: 3
Flags: W
HStem: -46 21G<95 135 215 255 375 415> 426 20G<145 245 345 385> 426 20G<145 245 345 385>
VStem: 34 92<85 165> 194 92<75 179 276 325> 354 92<45 342.1>
CounterMasks: 1 1c
LayerCount: 2
Back
SplineSet
100 280 m 17
 80 340 l 1
 140 400 l 1
 240 375 l 1
 240 100 l 9
 140 0 l 1
 80 60 l 1
 80 190 l 1
 140 250 l 1
 140 250 155 225 200 225 c 3
 215 225 240 225 240 225 c 1033
380 40 m 25
 420 0 l 1049
400 20 m 1
 400 340 l 25
 340 400 l 1
 240 300 l 1049
220 40 m 25
 260 0 l 1049
240 20 m 1
 240 375 l 1041
EndSplineSet
Fore
SplineSet
194 -5 m 1xdc
 175 14 l 1
 115 -46 l 1
 34 35 l 1
 34 165 l 1
 165 296 l 1
 176 285 l 2
 181 281 186 279 194 276 c 1
 194 334 l 1
 131 350 l 1
 146 305 l 1
 75 234 l 1
 54 255 l 1
 34 315 l 1
 165 446 l 1
 265 421 l 1
 286 400 l 1
 286 367 l 1
 365 446 l 1
 446 365 l 1
 446 45 l 1
 466 25 l 1
 395 -46 l 1
 375 -26 l 1
 354 -5 l 1
 334 15 l 1
 354 35 l 1
 354 315 l 2
 354 335 326 343 315 354 c 1
 286 325 l 1
 286 125 l 1
 286 45 l 1
 306 25 l 1
 235 -46 l 1
 215 -26 l 1
 194 -5 l 1xdc
194 75 m 1
 194 179 l 1
 175 179 l 2
 150 179 135 187 126 193 c 1
 126 85 l 1
 165 46 l 1
 194 75 l 1
EndSplineSet
LCarets2: 1 240 
Ligature2: "Historic ligatures-1" a n
EndChar
StartChar: a_p
Encoding: 61353 61353 342
Width: 480
GlyphClass: 3
Flags: W
HStem: -196 21G<195 235> -46 21G<95 135 155 184 286 315> 426 20G<145 245 325 365> 426 20G<145 245 325 365>
VStem: 34 92<85 165> 194 92<-125 -37 77.4332 179 276 334> 354 92<105 329.311>
CounterMasks: 1 0e
LayerCount: 2
Back
SplineSet
100 280 m 17
 80 340 l 1
 140 400 l 1
 240 375 l 1
 240 100 l 9
 140 0 l 1
 80 60 l 1
 80 190 l 5
 140 250 l 5
 140 250 155 225 200 225 c 3
 215 225 240 225 240 225 c 1033
200 0 m 1
 200 0 237 40 260 40 c 0
 283 40 320 0 320 0 c 9
 400 80 l 1
 400 320 l 25
 320 400 l 1
 240 320 l 1049
240 -150 m 1
 240 375 l 1025
EndSplineSet
Fore
SplineSet
215 -196 m 1xee
 194 -175 l 1
 194 -28 l 2
 190 -31 187 -34 184 -37 c 2
 175 -46 l 1
 154 -25 l 1
 154 -25 156 -23 159 -20 c 2
 194 15 l 1
 194 33 l 1
 115 -46 l 1
 34 35 l 1
 34 165 l 1
 165 296 l 1
 176 285 l 2
 181 281 186 279 194 276 c 1
 194 295 l 1
 194 334 l 1
 131 350 l 1
 146 305 l 1
 75 234 l 1
 54 255 l 1
 34 315 l 1
 165 446 l 1
 265 421 l 1
 286 400 l 1
 286 387 l 1
 345 446 l 1
 446 345 l 1
 446 105 l 1
 295 -46 l 1
 286 -37 l 2
 286 -125 l 1
 215 -196 l 1xee
286 86 m 1
 304 85 330 60 340 50 c 2
 345 46 l 1
 354 55 l 1
 354 295 l 2
 354 327 312 337 295 354 c 1
 286 345 l 1
 286 125 l 1
 286 86 l 1
194 75 m 1
 194 179 l 1
 175 179 l 2
 150 179 135 187 126 193 c 1
 126 85 l 1
 165 46 l 1
 194 75 l 1
EndSplineSet
LCarets2: 1 240 
Ligature2: "Historic ligatures-1" a p
EndChar
StartChar: a_thorn
Encoding: 61356 61356 347
Width: 480
Flags: W
HStem: -196 21G<195 235> -46 21G<95 135 155 184 286 315> 426 20G<145 194 325 365> 426 20G<145 194 325 365> 651 20G<225 264.355>
VStem: 34 92<85 165> 194 92<-125 -37 77.4332 179 276 334 439 580> 354 92<105 329.311>
CounterMasks: 1 07
LayerCount: 2
Back
SplineSet
100 280 m 17
 80 340 l 1
 140 400 l 1
 240 375 l 1
 240 100 l 9
 140 0 l 1
 80 60 l 1
 80 190 l 1
 140 250 l 1
 140 250 155 225 200 225 c 3
 215 225 240 225 240 225 c 1033
200 0 m 1
 200 0 237 40 260 40 c 0
 283 40 320 0 320 0 c 9
 400 80 l 1
 400 320 l 25
 320 400 l 1
 240 320 l 1049
220 625 m 25
 260 585 l 1049
240 605 m 1
 240 -150 l 1025
EndSplineSet
Fore
SplineSet
174 600 m 1xef
 245 671 l 1
 275 640 l 1
 286 630 l 1
 306 610 l 1
 286 590 l 1
 286 400 l 1
 286 387 l 1
 345 446 l 1
 446 345 l 1
 446 105 l 1
 295 -46 l 1
 286 -37 l 2
 286 -125 l 1
 215 -196 l 1
 194 -175 l 1
 194 -28 l 2
 190 -31 187 -34 184 -37 c 2
 175 -46 l 1
 154 -25 l 1
 154 -25 156 -23 159 -20 c 2
 194 15 l 1
 194 33 l 1
 115 -46 l 1
 34 35 l 1
 34 165 l 1
 165 296 l 1
 176 285 l 2
 181 281 186 279 194 276 c 1
 194 295 l 1
 194 334 l 1
 131 350 l 1
 146 305 l 1
 75 234 l 1
 54 255 l 1
 34 315 l 1
 165 446 l 1
 194 439 l 1
 194 580 l 1
 174 600 l 1xef
286 86 m 1
 304 85 330 60 340 50 c 2
 345 46 l 1
 354 55 l 1
 354 295 l 2
 354 327 312 337 295 354 c 1
 286 345 l 1
 286 125 l 1
 286 86 l 1
194 75 m 1
 194 179 l 1
 175 179 l 2
 150 179 135 187 126 193 c 1
 126 85 l 1
 165 46 l 1
 194 75 l 1
EndSplineSet
LCarets2: 1 240 
Ligature2: "Historic ligatures-1" a thorn
EndChar
StartChar: o_c
Encoding: 61357 61357 668
Width: 440
Flags: W
HStem: -46 21G<115 155 275 315> 426 20G<165 205 325 365> 426 20G<165 205 325 365>
VStem: 34 92<70.6892 295> 194 92<70.6892 329.311>
LayerCount: 2
Back
SplineSet
400 320 m 9
 320 400 l 25
 240 320 l 25
 240 80 l 25
 320 0 l 25
 400 80 l 1041
160 400 m 25
 80 320 l 25
 80 80 l 25
 160 0 l 25
 240 80 l 25
 240 320 l 25
 160 400 l 25
EndSplineSet
Fore
SplineSet
135 354 m 1x98
 126 345 l 1
 126 105 l 2
 126 73 168 63 185 46 c 1
 194 55 l 1
 194 295 l 2
 194 327 152 337 135 354 c 1x98
34 295 m 1
 185 446 l 1
 265 366 l 1
 345 446 l 1xd8
 446 345 l 1
 375 274 l 1
 295 354 l 1
 286 345 l 1
 286 105 l 2
 286 73 328 63 345 46 c 1
 425 126 l 1
 446 105 l 1
 295 -46 l 1
 215 34 l 1
 135 -46 l 1
 34 55 l 1
 34 295 l 1
EndSplineSet
LCarets2: 1 240 
Ligature2: "Historic ligatures-1" o c
EndChar
StartChar: m.alt
Encoding: 61987 61987 588
Width: 480
Flags: W
HStem: -196 21G<315 355> -46 21G<55 95 215 255> 426 20G<65 105 185 225 345 385> 426 20G<65 105 185 225 345 385>
VStem: 34 92<45 325> 194 92<45 325> 354 92<-85 342.1>
CounterMasks: 1 0e
AnchorPoint: "abvmark" 240 500 basechar 0
LayerCount: 2
Back
SplineSet
220 40 m 25
 260 0 l 1049
240 20 m 1
 240 340 l 25
 180 400 l 1
 80 300 l 1049
60 40 m 25
 100 0 l 1049
100 360 m 25
 60 400 l 1049
80 380 m 9
 80 20 l 1025
360 -150 m 25
 400 -110 l 1
 400 340 l 9
 340 400 l 1
 240 300 l 1049
EndSplineSet
Fore
SplineSet
335 -196 m 1xee
 314 -175 l 1
 354 -135 l 1
 354 315 l 2
 354 335 326 343 315 354 c 1
 286 325 l 1
 286 45 l 1
 306 25 l 1
 235 -46 l 1
 215 -26 l 1
 194 -5 l 1
 174 15 l 1
 194 35 l 1
 194 275 l 1
 194 315 l 2
 194 335 166 343 155 354 c 1
 126 325 l 1
 126 45 l 1
 146 25 l 1
 75 -46 l 1
 55 -26 l 1
 34 -5 l 1
 14 15 l 1
 34 35 l 1
 34 275 l 1
 34 355 l 1
 14 375 l 1
 85 446 l 1
 105 426 l 1
 126 405 l 1
 145 386 l 1
 205 446 l 1
 285 366 l 1
 365 446 l 1
 446 365 l 1
 446 -85 l 1
 335 -196 l 1xee
EndSplineSet
EndChar
StartChar: h.alt
Encoding: 62010 62010 860
Width: 320
Flags: W
HStem: -196 21G<155 195> -46 21G<55 95> 426 20G<185 225> 426 20G<185 225> 651 20G<65 105>
VStem: 34 92<45 325 367 580> 194 92<-85 315>
AnchorPoint: "abvmark" 160 700 basechar 0
LayerCount: 2
Back
SplineSet
60 40 m 9
 100 0 l 1041
60 625 m 9
 100 585 l 1041
80 605 m 9
 80 20 l 1041
80 300 m 9
 180 400 l 1
 240 340 l 1
 240 -110 l 17
 200 -150 l 1025
EndSplineSet
Fore
SplineSet
14 600 m 1xee
 85 671 l 1
 105 651 l 1
 126 630 l 1
 146 610 l 1
 126 590 l 1
 126 367 l 1
 205 446 l 1
 286 365 l 1
 286 -85 l 1
 175 -196 l 1
 154 -175 l 1
 194 -135 l 1
 194 315 l 1
 155 354 l 1
 126 325 l 1
 126 45 l 1
 146 25 l 1
 75 -46 l 1
 55 -26 l 1
 14 15 l 1
 34 35 l 1
 34 275 l 1
 34 580 l 1
 14 600 l 1xee
EndSplineSet
EndChar
StartChar: longs_k
Encoding: 62716 62716 708
Width: 520
Flags: W
HStem: -196 92<-67 -8.5> -46 21G<255 295 415 455> 451 20G<425 465>
VStem: 54 92<-151.691 545> 234 92<45 220 266 561.826> 394 92<45 174 375 380>
LayerCount: 2
Back
SplineSet
420 425 m 25
 460 385 l 1049
280 200 m 1
 440 350 l 9
 440 405 l 1049
360 275 m 1
 440 200 l 1
 440 20 l 1025
420 40 m 25
 460 0 l 1049
260 40 m 25
 300 0 l 1049
-100 -200 m 17
 -100 -200 -70 -150 -40 -150 c 8
 -3 -150 3 -200 40 -200 c 24
 70 -200 100 -150 100 -150 c 1
 100 570 l 1
 180 650 l 1
 180 650 213 600 280 600 c 9
 280 20 l 1025
EndSplineSet
Fore
SplineSet
-125 -246 m 1
 -146 -225 l 1
 -146 -225 -136 -209 -122 -195 c 2
 -52 -124 l 2
 -51 -123 l 0
 -40 -112 -28 -104 -15 -104 c 0
 -2 -104 7 -110 15 -118 c 2
 36 -139 l 2
 37 -140 l 0
 39 -142 42 -145 44 -147 c 0
 47 -149 51 -151 54 -152 c 2
 54 545 l 1
 205 696 l 1
 226 675 l 1
 226 675 227 674 228 673 c 0
 245 660 270 646 305 646 c 1
 326 625 l 1
 326 266 l 1
 394 330 l 1
 394 380 l 1
 374 400 l 1
 445 471 l 1
 465 451 l 1
 475 440 l 1
 506 410 l 1
 486 390 l 1
 486 375 l 1
 415 304 l 1
 409 298 l 1
 465 246 l 1
 486 225 l 1
 486 45 l 1
 506 25 l 1
 435 -46 l 1
 415 -26 l 1
 394 -5 l 1
 374 15 l 1
 394 35 l 1
 394 174 l 1
 335 229 l 1
 326 220 l 1
 326 45 l 1
 346 25 l 1
 275 -46 l 1
 255 -26 l 1
 234 -5 l 1
 214 15 l 1
 234 35 l 1
 234 175 l 1
 234 556 l 1
 201 562 179 579 167 591 c 2
 154 603 l 1
 146 595 l 1
 146 -125 l 1
 146 -125 136 -141 122 -155 c 2
 52 -226 l 2
 41 -237 28 -246 15 -246 c 0
 2 -246 -7 -240 -15 -232 c 2
 -36 -211 l 2
 -39 -208 -42 -206 -44 -203 c 0
 -50 -199 -57 -196 -65 -196 c 0
 -69 -196 -73 -197 -78 -199 c 2
 -125 -246 l 1
EndSplineSet
LCarets2: 1 240 
Ligature2: "Ligatures-1" longs k
EndChar
StartChar: longs_longs_k
Encoding: 62718 62718 711
Width: 680
Flags: W
HStem: -196 92<-67 -8.5> -46 21G<415.645 455 575 615> 451 20G<585 625>
VStem: 54 92<-123.974 545> 214 92<-150.779 551.891> 394 92<45 220 266 561.826> 554 92<45 174 375 380>
LayerCount: 2
Back
SplineSet
580 425 m 25
 620 385 l 1049
440 200 m 1
 600 350 l 9
 600 405 l 1049
520 275 m 1
 600 200 l 1
 600 20 l 1025
580 40 m 25
 620 0 l 1049
420 40 m 25
 460 0 l 1049
440 20 m 1
 440 600 l 1
 373 600 340 650 340 650 c 9
 260 570 l 1
 260 -150 l 1
 260 -150 222 -200 200 -200 c 0
 174 -200 125 -150 100 -150 c 1025
-100 -200 m 17
 -100 -200 -70 -150 -40 -150 c 8
 -3 -150 3 -200 40 -200 c 24
 70 -200 100 -150 100 -150 c 1
 100 570 l 1
 180 650 l 1
 180 650 225 570 260 570 c 1025
EndSplineSet
Fore
SplineSet
-125 -246 m 1
 -146 -225 l 1
 -146 -225 -136 -209 -122 -195 c 2
 -52 -124 l 2
 -51 -123 l 0
 -40 -112 -28 -104 -15 -104 c 0
 -2 -104 7 -110 15 -118 c 2
 36 -139 l 2
 37 -140 l 0
 39 -142 42 -145 44 -147 c 0
 47 -149 51 -151 54 -152 c 2
 54 545 l 1
 205 696 l 1
 226 675 l 1
 226 675 241 649 259 627 c 0
 268 620 277 616 285 616 c 1
 365 696 l 1
 386 675 l 2
 386 675 387 674 388 673 c 0
 404 660 430 646 465 646 c 1
 486 625 l 1
 486 266 l 1
 545 321 l 1
 554 330 l 1
 554 380 l 1
 534 400 l 1
 605 471 l 1
 625 451 l 1
 646 430 l 1
 666 410 l 1
 646 390 l 1
 646 375 l 1
 575 304 l 1
 569 298 l 1
 625 246 l 1
 646 225 l 1
 646 45 l 1
 666 25 l 1
 595 -46 l 1
 575 -26 l 1
 554 -5 l 1
 534 15 l 1
 554 35 l 1
 554 174 l 1
 495 229 l 1
 486 220 l 1
 486 45 l 1
 506 25 l 1
 435 -46 l 1
 405 -15 l 1
 394 -5 l 1
 374 15 l 1
 394 35 l 1
 394 175 l 1
 394 556 l 1
 361 562 339 579 327 591 c 2
 314 603 l 1
 306 595 l 1
 306 -125 l 1
 306 -125 296 -139 283 -152 c 2
 212 -223 l 2
 200 -235 186 -246 175 -246 c 0
 151 -246 107 -203 81 -197 c 1
 52 -226 l 2
 41 -237 28 -246 15 -246 c 0
 2 -246 -7 -240 -15 -232 c 2
 -36 -211 l 2
 -39 -208 -42 -206 -44 -203 c 0
 -50 -199 -57 -196 -65 -196 c 0
 -69 -196 -73 -197 -78 -199 c 2
 -125 -246 l 1
214 532 m 1
 209 535 204 540 199 545 c 2
 178 566 l 2
 168 576 159 588 151 599 c 1
 146 595 l 1
 146 -111 l 1
 167 -122 194 -145 214 -152 c 1
 214 532 l 1
EndSplineSet
LCarets2: 2 240 400 
Ligature2: "Ligatures-1" longs longs k
EndChar
StartChar: f_f
Encoding: 64256 64256 320
Width: 400
Flags: W
HStem: -196 92<-67 -8.5> 354 92<146 214 306 335> 564 92<366 432.5>
VStem: 54 92<-124.417 354 446 545> 214 92<-150.996 354 446 551.891>
LayerCount: 2
Back
SplineSet
100 -150 m 1
 125 -150 174 -200 200 -200 c 0
 222 -200 260 -150 260 -150 c 1
 260 570 l 1
 340 650 l 17
 340 650 372 610 400 610 c 24
 428 610 460 650 461 650 c 1033
-100 -200 m 17
 -100 -200 -70 -150 -40 -150 c 8
 -3 -150 3 -200 40 -200 c 24
 70 -200 100 -150 100 -150 c 1
 100 570 l 1
 180 650 l 1
 180 650 225 570 260 570 c 1025
40 400 m 25
 360 400 l 1049
EndSplineSet
Fore
SplineSet
-125 -246 m 1
 -146 -225 l 1
 -146 -225 -136 -209 -122 -195 c 2
 -52 -124 l 2
 -51 -123 l 0
 -40 -112 -28 -104 -15 -104 c 0
 -2 -104 7 -110 15 -118 c 2
 36 -139 l 2
 37 -140 l 0
 39 -142 42 -145 44 -147 c 0
 47 -149 51 -151 54 -152 c 2
 54 354 l 1
 15 354 l 1
 -6 375 l 1
 54 435 l 1
 54 545 l 1
 205 696 l 1
 226 675 l 1
 226 675 241 649 259 627 c 0
 268 620 277 616 285 616 c 1
 365 696 l 1
 386 675 l 1
 387 674 l 0
 398 664 412 656 425 656 c 0
 440 656 457 668 468 678 c 2
 485 696 l 2
 486 696 l 2
 507 675 l 1
 505 672 l 2
 503 670 500 667 497 664 c 2
 426 594 l 2
 414 582 394 564 375 564 c 0
 357 564 339 580 327 592 c 0
 326 592 l 2
 315 604 l 1
 306 595 l 1
 306 446 l 1
 385 446 l 1
 406 425 l 1
 335 354 l 1
 306 354 l 1
 306 -125 l 2
 306 -125 297 -138 284 -151 c 2
 283 -152 l 2
 212 -223 l 2
 200 -235 186 -246 175 -246 c 0
 151 -246 107 -203 81 -197 c 1
 52 -226 l 2
 41 -237 28 -246 15 -246 c 0
 2 -246 -7 -240 -15 -232 c 2
 -36 -211 l 2
 -39 -208 -42 -206 -44 -203 c 0
 -50 -199 -57 -196 -65 -196 c 0
 -69 -196 -73 -197 -78 -199 c 2
 -125 -246 l 1
146 446 m 1
 214 446 l 1
 214 532 l 1
 209 535 204 540 199 545 c 2
 178 566 l 2
 168 576 159 588 151 599 c 1
 146 595 l 1
 146 446 l 1
146 354 m 1
 146 -111 l 1
 168 -123 194 -145 214 -152 c 1
 214 354 l 1
 146 354 l 1
EndSplineSet
LCarets2: 1 240 
Ligature2: "Ligatures-1" f f
EndChar
StartChar: f_l
Encoding: 64258 64258 323
Width: 360
Flags: W
HStem: -196 92<-67 -8.5> -46 21G<255 295> 354 92<146 215>
VStem: 54 92<-151.691 354 446 545> 234 92<47 373 446 579>
LayerCount: 2
Back
SplineSet
-100 -200 m 17
 -100 -200 -70 -150 -40 -150 c 8
 -3 -150 3 -200 40 -200 c 24
 70 -200 100 -150 100 -150 c 1
 100 570 l 1
 180 650 l 1
 180 650 212 625 260 625 c 9
 300 585 l 1025
40 400 m 25
 240 400 l 1049
260 40 m 25
 300 0 l 25
 340 40 l 1049
280 605 m 9
 280 20 l 1049
EndSplineSet
Fore
SplineSet
-125 -246 m 1
 -146 -225 l 1
 -146 -225 -136 -209 -122 -195 c 2
 -52 -124 l 2
 -51 -123 l 0
 -40 -112 -28 -104 -15 -104 c 0
 -2 -104 7 -110 15 -118 c 2
 36 -139 l 2
 37 -140 l 0
 39 -142 42 -145 44 -147 c 0
 47 -149 51 -151 54 -152 c 2
 54 354 l 1
 15 354 l 1
 -6 375 l 1
 54 435 l 1
 54 545 l 1
 205 696 l 1
 205 696 237 671 285 671 c 1
 305 651 l 1
 326 630 l 1
 346 610 l 1
 326 590 l 1
 326 47 l 1
 365 86 l 1
 386 65 l 1
 275 -46 l 1
 255 -26 l 1
 234 -5 l 1
 214 15 l 1
 234 35 l 1
 234 373 l 1
 215 354 l 1
 146 354 l 1
 146 -125 l 1
 146 -125 136 -141 122 -155 c 2
 52 -226 l 2
 41 -237 28 -246 15 -246 c 0
 2 -246 -7 -240 -15 -232 c 2
 -36 -211 l 2
 -39 -208 -42 -206 -44 -203 c 0
 -50 -199 -57 -196 -65 -196 c 0
 -69 -196 -73 -197 -78 -199 c 2
 -125 -246 l 1
234 446 m 1
 234 579 l 1
 187 579 155 604 155 604 c 2
 146 595 l 1
 146 446 l 1
 234 446 l 1
EndSplineSet
LCarets2: 1 240 
Ligature2: "Ligatures-1" f l
EndChar
StartChar: f_f_l
Encoding: 64260 64260 325
Width: 520
Flags: W
HStem: -196 92<-67 -8.5> -46 21G<415 455> 354 92<146 214 306 375>
VStem: 54 92<-124.417 354 446 545> 214 92<-150.996 354 446 551.891> 394 92<47 373 446 579>
LayerCount: 2
Back
SplineSet
100 -150 m 1
 125 -150 174 -200 200 -200 c 0
 222 -200 260 -150 260 -150 c 1
 260 570 l 1
 340 650 l 17
 340 650 372 625 420 625 c 1
 460 585 l 1025
-100 -200 m 17
 -100 -200 -70 -150 -40 -150 c 8
 -3 -150 3 -200 40 -200 c 24
 70 -200 100 -150 100 -150 c 1
 100 570 l 1
 180 650 l 1
 180 650 225 570 260 570 c 1025
40 400 m 25
 400 400 l 1049
420 40 m 25
 460 0 l 25
 500 40 l 1049
440 605 m 9
 440 20 l 1049
EndSplineSet
Fore
SplineSet
-125 -246 m 1
 -146 -225 l 1
 -146 -225 -136 -209 -122 -195 c 2
 -52 -124 l 2
 -51 -123 l 0
 -40 -112 -28 -104 -15 -104 c 0
 -2 -104 7 -110 15 -118 c 2
 36 -139 l 2
 37 -140 l 0
 39 -142 42 -145 44 -147 c 0
 47 -149 51 -151 54 -152 c 2
 54 354 l 1
 15 354 l 1
 -6 375 l 1
 54 435 l 1
 54 545 l 1
 205 696 l 1
 226 675 l 1
 226 675 241 649 259 627 c 0
 268 620 277 616 285 616 c 1
 365 696 l 1
 365 696 397 671 445 671 c 1
 465 651 l 1
 486 630 l 1
 506 610 l 1
 486 590 l 1
 486 47 l 1
 525 86 l 1
 546 65 l 1
 435 -46 l 1
 374 15 l 1
 394 35 l 1
 394 373 l 1
 375 354 l 1
 306 354 l 1
 306 -125 l 2
 306 -125 297 -138 284 -151 c 2
 283 -152 l 2
 212 -223 l 2
 200 -235 186 -246 175 -246 c 0
 151 -246 107 -203 81 -197 c 1
 52 -226 l 2
 41 -237 28 -246 15 -246 c 0
 2 -246 -7 -240 -15 -232 c 2
 -36 -211 l 2
 -39 -208 -42 -206 -44 -203 c 0
 -50 -199 -57 -196 -65 -196 c 0
 -69 -196 -73 -197 -78 -199 c 2
 -125 -246 l 1
394 446 m 1
 394 579 l 1
 347 579 315 604 315 604 c 1
 306 595 l 1
 306 446 l 1
 394 446 l 1
146 446 m 1
 214 446 l 1
 214 532 l 1
 209 535 204 540 199 545 c 2
 178 566 l 2
 168 576 159 588 151 599 c 1
 146 595 l 1
 146 446 l 1
146 354 m 1
 146 -111 l 1
 168 -123 194 -145 214 -152 c 1
 214 354 l 1
 146 354 l 1
EndSplineSet
LCarets2: 2 240 400 
Ligature2: "Ligatures-1" f f l
EndChar
StartChar: w.alt
Encoding: 65542 -1 784
Width: 480
Flags: W
HStem: -46 21G<115 155 275 315> 426 20G<65 105 225 265 365 405> 426 20G<65 105 225 265 365 405>
VStem: 34 92<70.6892 355> 194 92<70.6892 355> 354 92<105 356.953>
CounterMasks: 1 1c
AnchorPoint: "abvmark" 240 500 basechar 0
AnchorPoint: "blwmark" 240 0 basechar 0
LayerCount: 2
Back
SplineSet
260 360 m 25
 220 400 l 1049
240 380 m 25
 240 80 l 1
 320 0 l 25
 400 80 l 1
 400 360 l 25
 360 400 l 1049
100 360 m 25
 60 400 l 1049
80 380 m 25
 80 80 l 1
 160 0 l 25
 240 80 l 1025
EndSplineSet
Fore
SplineSet
126 405 m 1xdc
 146 385 l 1
 126 365 l 1
 126 105 l 2
 126 73 168 63 185 46 c 1
 194 55 l 1
 194 355 l 1
 174 375 l 1
 245 446 l 1
 265 426 l 1
 286 405 l 1
 306 385 l 1
 286 365 l 1
 286 105 l 2
 286 73 328 63 345 46 c 1
 354 55 l 1
 354 335 l 2
 354 344 340 349 335 354 c 2
 314 375 l 1
 385 446 l 1
 446 385 l 1
 446 105 l 1
 295 -46 l 1
 215 34 l 1
 135 -46 l 1
 34 55 l 1
 34 355 l 1
 14 375 l 1
 85 446 l 1
 105 426 l 1
 126 405 l 1xdc
EndSplineSet
EndChar
